<svg xmlns="http://www.w3.org/2000/svg" viewBox="0 0 380 320" role="img" aria-label="rounded moth specimen"><rect width="100%" height="100%" fill="#f9f7f0"/><g transform="translate(190 160)" stroke="#292d29" stroke-width="1.1" stroke-linejoin="round" stroke-linecap="round"><path fill="none" stroke-width="1.05" opacity="0.66" d="M90.7,-22.4 L69.3,-16.8 M89.7,-21.0 L68.3,-15.7 M89.7,-19.9 L68.3,-14.9 M90.8,-19.0 L69.2,-14.3 M90.2,-17.8 L68.7,-13.3 M90.1,-16.7 L68.5,-12.4 M89.1,-15.5 L67.5,-11.6 M89.9,-14.8 L68.4,-11.0 M89.2,-13.8 L67.9,-10.3 M90.1,-13.0 L68.9,-9.8 M87.0,-11.6 L66.0,-8.7 M87.0,-10.7 L66.1,-8.0 M87.8,-9.9 L67.0,-7.4 M86.6,-8.9 L66.0,-6.6 M86.6,-7.9 L66.1,-5.9 M85.9,-6.9 L65.5,-5.2 M84.9,-6.0 L64.8,-4.5 M84.9,-5.4 L65.0,-4.1 M83.2,-4.7 L63.6,-3.5 M83.3,-4.1 L63.9,-3.1 M82.1,-3.4 L62.9,-2.5 M79.7,-2.6 L60.8,-2.0 M79.5,-2.0 L60.9,-1.5 M78.7,-1.3 L60.3,-1.0 M76.8,-0.6 L58.7,-0.4 M77.0,0.1 L59.1,0.1 M75.7,0.8 L58.1,0.6 M75.1,1.3 L57.8,1.0 M72.3,1.7 L55.3,1.3 M72.8,2.3 L56.1,1.7 M71.8,2.8 L55.3,2.1 M70.1,3.2 L54.0,2.4 M68.9,3.7 L53.1,2.8 M67.4,4.2 L51.9,3.1 M65.9,4.7 L50.7,3.4 M64.1,5.1 L49.2,3.8 M64.6,5.8 L50.0,4.3 M63.3,6.1 L49.0,4.6 M61.1,6.4 L47.1,4.7 M60.4,6.8 L46.7,5.1 M59.5,7.2 L46.1,5.4 M58.0,7.6 L44.9,5.6 M56.7,7.9 L44.0,5.9 M55.1,8.2 L42.6,6.1 M53.7,8.6 L41.6,6.3 M52.4,8.9 L40.6,6.6 M51.3,9.3 L39.7,6.9 M50.8,9.8 L39.6,7.3 M49.8,10.2 L38.8,7.6 M48.7,10.6 L38.0,7.9 M47.4,10.9 L37.0,8.1 M46.1,11.3 L36.0,8.4 M44.0,11.3 L34.2,8.3 M42.8,11.7 L33.3,8.6 M42.2,12.2 L33.0,9.0 M41.1,12.6 L32.1,9.3 M40.2,13.1 L31.6,9.7 M38.1,12.9 L29.8,9.5 M37.0,12.9 L28.9,9.5 M35.7,12.9 L27.9,9.5 M34.9,13.1 L27.4,9.6 M33.9,13.2 L26.7,9.7 M32.2,12.9 L25.3,9.5 M31.6,13.2 L24.9,9.7 M30.0,13.0 L23.7,9.5 M28.8,13.0 L22.7,9.5 M27.4,12.9 L21.6,9.4 M26.7,13.1 L21.2,9.7 M25.6,12.9 L20.4,9.5 M-90.7,-22.4 L-69.3,-16.8 M-89.7,-21.0 L-68.3,-15.7 M-89.7,-19.9 L-68.3,-14.9 M-90.8,-19.0 L-69.2,-14.3 M-90.2,-17.8 L-68.7,-13.3 M-90.1,-16.7 L-68.5,-12.4 M-89.1,-15.5 L-67.5,-11.6 M-89.9,-14.8 L-68.4,-11.0 M-89.2,-13.8 L-67.9,-10.3 M-90.1,-13.0 L-68.9,-9.8 M-87.0,-11.6 L-66.0,-8.7 M-87.0,-10.7 L-66.1,-8.0 M-87.8,-9.9 L-67.0,-7.4 M-86.6,-8.9 L-66.0,-6.6 M-86.6,-7.9 L-66.1,-5.9 M-85.9,-6.9 L-65.5,-5.2 M-84.9,-6.0 L-64.8,-4.5 M-84.9,-5.4 L-65.0,-4.1 M-83.2,-4.7 L-63.6,-3.5 M-83.3,-4.1 L-63.9,-3.1 M-82.1,-3.4 L-62.9,-2.5 M-79.7,-2.6 L-60.8,-2.0 M-79.5,-2.0 L-60.9,-1.5 M-78.7,-1.3 L-60.3,-1.0 M-76.8,-0.6 L-58.7,-0.4 M-77.0,0.1 L-59.1,0.1 M-75.7,0.8 L-58.1,0.6 M-75.1,1.3 L-57.8,1.0 M-72.3,1.7 L-55.3,1.3 M-72.8,2.3 L-56.1,1.7 M-71.8,2.8 L-55.3,2.1 M-70.1,3.2 L-54.0,2.4 M-68.9,3.7 L-53.1,2.8 M-67.4,4.2 L-51.9,3.1 M-65.9,4.7 L-50.7,3.4 M-64.1,5.1 L-49.2,3.8 M-64.6,5.8 L-50.0,4.3 M-63.3,6.1 L-49.0,4.6 M-61.1,6.4 L-47.1,4.7 M-60.4,6.8 L-46.7,5.1 M-59.5,7.2 L-46.1,5.4 M-58.0,7.6 L-44.9,5.6 M-56.7,7.9 L-44.0,5.9 M-55.1,8.2 L-42.6,6.1 M-53.7,8.6 L-41.6,6.3 M-52.4,8.9 L-40.6,6.6 M-51.3,9.3 L-39.7,6.9 M-50.8,9.8 L-39.6,7.3 M-49.8,10.2 L-38.8,7.6 M-48.7,10.6 L-38.0,7.9 M-47.4,10.9 L-37.0,8.1 M-46.1,11.3 L-36.0,8.4 M-44.0,11.3 L-34.2,8.3 M-42.8,11.7 L-33.3,8.6 M-42.2,12.2 L-33.0,9.0 M-41.1,12.6 L-32.1,9.3 M-40.2,13.1 L-31.6,9.7 M-38.1,12.9 L-29.8,9.5 M-37.0,12.9 L-28.9,9.5 M-35.7,12.9 L-27.9,9.5 M-34.9,13.1 L-27.4,9.6 M-33.9,13.2 L-26.7,9.7 M-32.2,12.9 L-25.3,9.5 M-31.6,13.2 L-24.9,9.7 M-30.0,13.0 L-23.7,9.5 M-28.8,13.0 L-22.7,9.5 M-27.4,12.9 L-21.6,9.4 M-26.7,13.1 L-21.2,9.7 M-25.6,12.9 L-20.4,9.5"/><path fill="none" stroke-width="0.45" opacity="0.56" d="M28.4,22.1 L31.6,23.9 L34.9,25.8 M34.0,25.4 L36.2,26.6 L38.5,27.9 M39.6,21.8 L42.8,23.0 L46.0,24.2 M42.7,23.4 L44.5,24.1 L46.4,24.8 M39.1,24.6 L41.9,25.9 L44.7,27.2 M38.5,18.9 L40.6,19.5 L42.6,20.2 M38.7,19.7 L40.7,20.3 L42.6,21.0 M31.9,25.4 L33.6,26.5 L35.4,27.6 M37.0,24.4 L40.1,25.9 L43.3,27.4 M35.9,25.2 L38.4,26.5 L40.8,27.8 M31.1,21.6 L34.2,23.2 L37.4,24.7 M45.1,21.3 L47.3,22.0 L49.6,22.7 M40.3,20.4 L43.8,21.6 L47.4,22.8 M29.8,22.0 L32.8,23.6 L35.9,25.2 M39.9,23.3 L43.1,24.6 L46.4,25.9 M40.0,18.4 L42.7,19.1 L45.4,19.9 M40.3,23.7 L43.3,24.9 L46.4,26.2 M35.0,24.8 L38.4,26.6 L41.9,28.4 M30.4,24.7 L33.0,26.3 L35.6,27.9 M35.2,23.2 L38.6,24.8 L42.0,26.4 M37.7,20.0 L40.2,20.9 L42.8,21.8 M42.6,19.7 L45.8,20.7 L49.1,21.6 M28.2,21.7 L31.6,23.6 L34.9,25.5 M34.0,21.6 L37.4,23.1 L40.9,24.6 M37.4,20.5 L40.7,21.8 L44.0,23.0 M23.9,25.0 L26.8,27.4 L29.8,29.8 M31.0,24.7 L33.1,26.0 L35.2,27.3 M30.7,25.3 L33.0,26.7 L35.2,28.2 M27.1,26.4 L29.4,28.1 L31.6,29.8 M34.7,23.6 L37.2,24.8 L39.8,26.1 M4.3,8.6 L5.6,10.9 L7.0,13.5 M7.5,13.0 L8.6,14.4 L9.6,15.9 M30.2,18.8 L32.3,19.7 L34.4,20.5 M19.2,18.4 L21.1,19.7 L23.0,21.0 M7.9,13.7 L9.6,16.1 L11.3,18.5 M6.1,10.2 L8.4,12.7 L10.7,15.2 M5.6,10.7 L7.4,13.6 L9.2,16.4 M7.8,11.7 L8.9,12.8 L9.9,13.9 M7.8,11.4 L9.7,13.1 L11.5,14.9 M8.6,17.6 L9.7,19.6 L10.8,21.7 M-11.3,18.5 L-12.2,19.8 L-13.1,21.1 M-17.5,14.0 L-17.6,14.0 M-6.8,10.8 L-8.9,13.0 L-11.0,15.3 M-9.6,15.7 L-11.6,18.4 L-13.5,21.0 M-7.7,14.9 L-8.7,16.6 L-9.7,18.4 M-8.5,11.5 L-10.1,12.9 L-11.7,14.3 M-23.9,21.0 L-26.7,22.8 L-29.6,24.6 M-8.0,13.5 L-9.8,16.0 L-11.7,18.5 M-29.9,21.4 L-31.6,22.3 L-33.3,23.1 M-5.4,10.1 L-6.4,11.7 L-7.4,13.3 M-20.1,18.3 L-22.4,19.8 L-24.6,21.2 M-6.7,10.1 L-8.0,11.3 L-10.1,13.2 M-13.4,18.8 L-14.9,20.6 L-16.4,22.3 M-9.8,14.7 L-12.1,17.4 L-14.3,20.0 M-23.1,15.1 L-25.6,16.1 M-9.4,11.4 L-9.4,11.4 L-11.9,13.1 M-7.4,13.2 L-9.3,16.0 L-11.1,18.8 M-9.4,11.5 L-11.2,12.8 L-12.9,14.1 M54.3,-1.0 L58.7,-1.0 L63.0,-1.1 M48.7,4.5 L51.1,4.8 L53.5,5.1 M65.3,0.0 L68.9,0.0 L72.5,0.0 M56.1,-2.0 L59.3,-2.1 L62.6,-2.2 M37.9,4.1 L42.3,4.7 L46.8,5.4 M49.2,3.3 L52.3,3.6 L55.4,3.9 M46.9,6.1 L51.2,6.7 L55.6,7.4 M46.8,5.1 L50.7,5.6 L54.7,6.1 M55.5,3.7 L57.9,3.9 L60.3,4.1 M66.6,-3.1 L70.8,-3.3 L75.0,-3.5 M45.6,5.6 L49.1,6.2 L52.7,6.7 M41.9,2.6 L45.1,2.9 L48.4,3.2 M62.1,-4.1 L65.7,-4.3 L69.4,-4.6 M51.5,3.6 L55.5,3.9 L59.5,4.3 M41.4,5.8 L44.3,6.4 L47.3,6.9 M44.0,3.9 L47.3,4.3 L50.6,4.7 M42.6,6.4 L45.7,6.9 L48.8,7.5 M45.7,4.3 L48.4,4.7 L51.1,5.0 M61.5,-2.2 L64.9,-2.3 L68.3,-2.4 M49.6,1.6 L53.0,1.8 L56.5,2.0 M57.5,1.0 L59.9,1.1 L62.3,1.1 M64.3,0.8 L66.7,0.8 L69.1,0.8 M57.6,-3.3 L61.6,-3.4 L65.5,-3.7 M66.1,-1.5 L70.7,-1.6 L75.3,-1.7 M38.1,3.9 L40.9,4.3 L43.6,4.7 M52.2,2.4 L56.8,2.6 L61.4,2.9 M78.0,-7.8 L82.3,-8.3 L86.6,-8.8 M91.4,-14.5 L93.9,-15.0 L96.5,-15.4 M95.3,-18.2 L98.7,-18.9 L102.1,-19.7 M78.6,-6.9 L82.4,-7.2 L86.3,-7.6 M91.7,-12.4 L96.2,-13.1 L100.7,-13.8 M84.4,-7.5 L88.0,-7.9 L91.6,-8.3 M70.0,1.7 L73.8,1.8 L77.6,1.9 M82.2,-6.7 L84.9,-7.0 L87.6,-7.3 M81.4,-7.1 L85.1,-7.4 L88.8,-7.8 M75.8,1.7 L78.9,1.8 L82.0,1.8 M88.2,-7.3 L91.2,-7.6 L94.2,-7.9 M70.8,-0.1 L74.7,-0.1 L78.6,-0.2 M90.2,-11.9 L93.5,-12.4 L96.8,-12.9 M74.4,1.3 L77.2,1.3 L80.0,1.3 M84.8,-12.3 L89.1,-13.0 L93.3,-13.7 M76.8,1.6 L79.9,1.6 L83.0,1.7 M63.5,1.8 L68.1,2.0 L72.8,2.1 M74.8,0.4 L77.3,0.4 L79.8,0.4 M89.9,-12.8 L94.0,-13.5 L98.2,-14.2 M83.4,-6.5 L87.0,-6.8 L90.6,-7.1 M79.7,-8.2 L82.8,-8.6 L85.9,-9.0 M89.7,-12.4 L92.6,-12.9 L95.5,-13.4 M79.2,-2.5 L82.0,-2.7 L84.8,-2.8 M67.0,1.3 L69.9,1.4 L72.9,1.4 M85.3,-4.3 L88.6,-4.5 L91.9,-4.8 M73.9,0.8 L77.7,0.8 L81.6,0.8 M80.4,-4.6 L83.4,-4.8 L86.5,-5.0 M65.4,1.2 L68.4,1.2 L71.4,1.3 M73.2,-2.0 L77.9,-2.1 L82.5,-2.3 M78.7,-9.6 L82.6,-10.1 L86.5,-10.6 M84.5,-13.5 L88.5,-14.2 L92.5,-14.9 M91.7,-18.6 L96.1,-19.6 L100.6,-20.6 M87.8,-14.9 L90.4,-15.3 L92.9,-15.8 M80.6,-5.2 L84.7,-5.6 L88.8,-5.9 M70.2,-0.8 L74.7,-0.9 L79.2,-1.0 M88.0,-5.5 L91.7,-5.7 L95.4,-6.1 M88.3,-9.9 L91.3,-10.3 L94.3,-10.7 M96.5,-17.1 L99.1,-17.6 L101.7,-18.2 M83.5,-16.4 L86.7,-17.1 L89.8,-17.8 M68.4,1.7 L71.1,1.8 L73.8,1.8 M31.8,-13.3 L34.7,-14.5 L37.6,-15.7 M11.0,-5.8 L13.9,-7.3 L16.8,-8.8 M12.0,3.8 L14.2,5.2 L16.3,6.6 M15.3,2.9 L17.9,3.9 L20.5,4.9 M19.1,-1.3 L20.9,-1.3 L22.6,-1.2 M8.7,-4.5 L10.9,-5.7 L13.1,-6.8 M9.5,0.9 L11.5,1.7 L13.5,2.6 M14.6,-0.9 L16.4,-0.8 L18.1,-0.7 M7.5,0.2 L9.0,0.9 L10.4,1.7 M21.2,-1.7 L22.9,-1.7 L24.7,-1.6 M42.3,-0.9 L45.3,-0.9 L48.2,-0.9 M12.4,2.4 L15.4,3.8 L18.4,5.2 M16.8,3.6 L19.4,4.6 L22.1,5.6 M14.4,-9.2 L16.7,-10.7 L19.0,-12.3 M34.8,2.3 L36.4,2.5 L38.1,2.7 M24.9,-14.7 L26.5,-15.7 L28.0,-16.6 M13.9,-2.7 L16.6,-3.0 L19.3,-3.2 M10.9,-6.2 L12.9,-7.4 L15.0,-8.7 M19.1,-9.0 L21.5,-10.2 L24.0,-11.3 M27.4,-2.6 L28.9,-2.7 L30.5,-2.7 M18.4,-9.8 L19.8,-10.5 L21.2,-11.2 M17.1,0.9 L19.6,1.4 L22.1,1.9 M37.5,-9.9 L39.1,-10.3 L40.6,-10.7 M35.5,-17.0 L38.3,-18.4 L41.2,-19.8 M21.2,-2.7 L24.4,-2.8 L27.6,-3.0 M30.1,3.7 L31.6,3.9 L33.0,4.2 M14.4,-0.9 L17.5,-0.7 L20.7,-0.4 M35.5,-11.9 L38.8,-12.9 L42.1,-14.0 M7.6,-0.2 L9.4,0.5 L11.2,1.2 M12.6,-5.9 L14.7,-6.8 L16.9,-7.8 M24.2,0.6 L26.2,0.9 L28.3,1.1 M7.4,-1.5 L10.8,-1.3 L14.1,-1.0 M26.2,-12.0 L27.5,-12.6 L28.8,-13.2 M22.3,-11.7 L24.3,-12.8 L26.3,-13.9 M7.2,-0.6 L9.6,0.2 L12.0,1.0 M18.9,-11.6 L21.3,-13.1 L23.7,-14.7 M20.8,0.9 L23.3,1.3 L25.9,1.6 M31.8,-6.5 L33.9,-6.9 L35.9,-7.3 M26.9,-2.1 L29.7,-2.1 L32.5,-2.2 M44.1,-7.6 L46.4,-8.0 L48.6,-8.3 M14.5,1.6 L16.2,2.1 L17.9,2.6 M-49.5,4.0 L-52.3,4.3 L-55.2,4.6 M-40.5,8.0 L-44.0,8.8 L-47.4,9.6 M-37.1,8.0 L-40.4,8.9 L-43.7,9.8 M-70.2,-2.2 L-73.0,-2.3 L-75.7,-2.4 M-62.8,-2.5 L-66.4,-2.6 L-69.9,-2.7 M-59.2,1.5 L-63.5,1.7 L-67.8,1.8 M-38.0,6.1 L-40.6,6.7 L-43.3,7.2 M-69.4,-1.3 L-72.0,-1.4 L-74.7,-1.5 M-49.3,3.8 L-53.2,4.1 L-57.0,4.5 M-47.5,3.6 L-52.1,4.1 L-56.8,4.5 M-49.6,6.0 L-52.0,6.4 L-54.3,6.7 M-71.3,-5.4 L-74.3,-5.6 L-77.4,-5.9 M-52.0,4.8 L-55.6,5.2 L-59.3,5.6 M-73.2,-3.6 L-75.9,-3.8 L-78.7,-4.0 M-38.6,7.3 L-42.6,8.2 L-46.5,9.1 M-33.6,8.5 L-36.9,9.6 L-40.2,10.6 M-40.6,7.9 L-43.1,8.5 L-45.5,9.1 M-55.9,4.0 L-58.3,4.2 L-60.8,4.4 M-36.4,6.6 L-38.9,7.2 L-41.5,7.8 M-62.8,-3.0 L-65.6,-3.1 L-68.4,-3.3 M-31.0,8.3 L-34.9,9.7 L-38.9,11.0 M-71.8,-3.5 L-75.0,-3.7 L-78.1,-3.9 M-35.4,9.4 L-37.9,10.2 L-40.4,11.0 M-48.6,4.7 L-53.0,5.3 L-57.4,5.8 M-54.4,1.8 L-58.3,2.0 L-62.2,2.2 M-42.8,6.1 L-45.2,6.5 L-47.5,6.9 M-55.7,2.1 L-58.9,2.3 L-62.0,2.4 M-67.3,-2.1 L-71.9,-2.3 L-76.5,-2.5 M-65.2,-3.1 L-68.4,-3.3 L-71.5,-3.4 M-42.8,6.4 L-47.2,7.2 L-51.6,8.0 M-31.8,8.0 L-34.2,8.8 L-36.6,9.6 M-38.2,8.6 L-40.8,9.3 L-43.3,10.0 M-55.9,2.5 L-59.1,2.6 L-62.3,2.8 M-40.7,6.7 L-43.4,7.3 L-46.0,7.8 M-68.0,-1.7 L-71.4,-1.8 L-74.7,-1.9 M-44.8,5.3 L-48.4,5.9 L-52.0,6.4 M-32.0,-15.4 L-34.2,-16.4 L-36.4,-17.5 M-26.3,-16.5 L-28.5,-17.9 L-30.7,-19.3 M-33.4,-18.5 L-35.6,-19.7 L-37.8,-21.0 M-15.3,-9.6 L-18.8,-12.0 L-22.4,-14.4 M-39.6,-17.8 L-42.6,-19.2 L-45.6,-20.5 M-47.9,-21.5 L-50.1,-22.5 L-52.3,-23.5 M-38.1,-17.5 L-40.7,-18.7 L-43.4,-19.9 M-29.1,-16.3 L-32.5,-18.3 L-35.8,-20.2 M-37.7,-17.1 L-40.5,-18.4 L-43.3,-19.7 M-39.6,-18.8 L-43.4,-20.7 L-47.3,-22.6 M-24.2,-15.1 L-27.3,-17.1 L-30.3,-19.1 M-36.4,-18.6 L-39.1,-20.0 L-41.9,-21.4 M-23.9,-14.7 L-26.7,-16.5 L-29.6,-18.3 M-45.0,-19.2 L-48.9,-20.9 L-52.7,-22.5 M-20.7,-12.7 L-23.4,-14.5 L-26.1,-16.2 M-23.4,-13.3 L-27.5,-15.6 L-31.5,-18.0 M-20.3,-13.0 L-22.7,-14.6 L-25.2,-16.3 M-20.3,-12.6 L-24.0,-15.0 L-27.7,-17.4 M-17.1,-10.5 L-20.8,-12.9 L-24.4,-15.3 M-21.1,-13.6 L-23.8,-15.5 L-26.5,-17.3 M-34.1,-15.6 L-37.3,-17.1 L-40.4,-18.5 M-30.7,-16.4 L-32.9,-17.6 L-35.0,-18.8 M-41.7,-18.3 L-45.9,-20.2 L-50.0,-22.0 M-31.5,-18.2 L-33.7,-19.5 L-36.0,-20.8 M-18.1,-11.4 L-21.6,-13.7 L-25.2,-16.1 M-33.5,-16.6 L-37.6,-18.7 L-41.8,-20.8 M-33.8,-14.3 L-37.5,-15.9 L-41.2,-17.4 M-27.3,-16.6 L-30.3,-18.5 L-33.3,-20.4 M-28.7,-17.1 L-31.5,-18.8 L-34.4,-20.6 M-44.7,-18.8 L-48.8,-20.6 L-53.0,-22.3 M-23.7,-13.3 L-27.6,-15.6 L-31.5,-17.9 M-8.0,0.5 L-9.9,1.5 L-11.7,2.5 M-27.6,-15.1 L-29.4,-16.1 L-31.3,-17.1 M-20.7,1.7 L-23.4,2.3 L-26.2,2.8 M-24.2,-7.1 L-26.6,-7.7 L-29.0,-8.4 M-30.4,-9.0 L-32.1,-9.5 L-33.9,-10.0 M-34.3,-6.1 L-37.0,-6.5 L-39.8,-6.9 M-4.6,-1.1 L-6.0,-0.2 L-7.4,0.7 M-24.4,-4.6 L-26.2,-4.9 L-28.0,-5.1 M-51.8,-14.3 L-53.2,-14.7 L-54.6,-15.0 M-11.5,-5.4 L-12.8,-6.0 L-14.1,-6.6 M-28.5,2.1 L-30.5,2.3 L-32.4,2.6 M-27.1,-4.0 L-30.1,-4.3 L-33.1,-4.6 M-27.7,-6.9 L-31.1,-7.7 L-34.5,-8.4 M-49.0,-13.3 L-51.7,-14.1 L-54.4,-14.8 M-9.0,-5.0 L-10.5,-5.9 L-12.0,-6.7 M-41.5,-8.7 L-44.4,-9.3 L-47.3,-9.9 M-37.7,-19.3 L-39.6,-20.2 L-41.4,-21.2 M-14.5,1.6 L-16.1,2.1 L-17.7,2.6 M-6.0,-0.6 L-9.0,0.9 L-12.1,2.4 M-10.0,-2.1 L-13.1,-2.3 L-16.1,-2.4 M-4.5,-1.2 L-7.0,0.2 L-9.5,1.7 M-8.2,-4.9 L-10.0,-6.1 L-11.7,-7.2 M-34.9,-18.3 L-36.2,-19.0 L-37.6,-19.7 M-25.3,-11.1 L-28.4,-12.5 L-31.6,-13.9 M-26.8,-15.8 L-29.5,-17.4 L-32.1,-19.0 M-14.0,-7.8 L-16.2,-9.0 L-18.3,-10.3 M-15.1,-5.7 L-16.5,-6.2 L-17.8,-6.7 M-30.6,2.1 L-32.5,2.4 L-34.3,2.6 M-19.7,-2.7 L-21.9,-2.9 L-24.2,-3.0 M-23.2,-14.4 L-25.5,-16.0 L-27.9,-17.5 M-10.8,2.9 L-12.5,4.0 L-14.3,5.1 M-17.3,3.0 L-20.0,4.0 L-22.8,4.9 M-43.4,-9.1 L-46.5,-9.7 L-49.7,-10.3 M-18.2,0.6 L-20.9,1.0 L-23.6,1.4 M-21.3,-7.0 L-23.1,-7.5 L-24.9,-8.0 M-15.9,2.4 L-19.0,3.4 L-22.2,4.4 M-10.4,0.2 L-13.0,1.0 L-15.7,1.8 M-23.5,4.5 L-26.6,5.5 L-29.8,6.4 M-23.0,-8.2 L-24.4,-8.7 L-25.9,-9.2 M-14.5,-0.2 L-16.9,0.1 L-19.4,0.5 M-32.1,-4.3 L-33.8,-4.5 L-35.6,-4.7 M-8.6,0.3 L-11.0,1.3 L-13.4,2.3 M-27.3,1.9 L-30.3,2.4 L-33.3,2.8 M-36.6,-7.0 L-38.3,-7.3 L-40.1,-7.6 M-14.6,2.4 L-17.1,3.4 L-19.7,4.4 M-31.1,2.2 L-32.6,2.4 L-34.1,2.6 M-44.2,-6.9 L-46.7,-7.3 L-49.2,-7.6 M-36.0,-13.7 L-38.7,-14.7 L-41.4,-15.7 M-24.6,-12.7 L-26.4,-13.6 L-28.2,-14.5 M-11.3,-3.8 L-13.0,-4.2 L-14.6,-4.6 M-21.7,4.7 L-24.7,5.7 L-27.8,6.7 M-11.5,1.7 L-13.7,2.6 L-15.9,3.6 M-10.4,-1.8 L-13.0,-1.7 L-15.6,-1.7"/><path fill="none" stroke-width="0.6" opacity="0.62" d="M9.9,20.0 L10.6,20.4 L11.4,20.9 M9.3,15.3 L9.7,16.0 L10.0,16.7 M30.2,18.4 L30.0,18.7 L29.6,19.1 M8.5,25.3 L9.2,26.1 L9.8,27.0 M32.6,33.5 L33.1,33.9 L33.5,34.4 M8.5,17.1 L9.0,17.9 L9.6,18.6 M71.2,17.6 L71.8,18.0 L72.4,18.4 M12.3,25.7 L12.2,26.1 L12.1,26.4 M66.5,19.7 L66.8,20.6 L67.1,21.5 M18.2,22.0 L19.2,22.5 L20.3,23.0 M-57.3,23.2 L-56.9,23.5 L-56.5,23.9 M-17.5,31.9 L-18.2,32.5 L-19.0,33.0 M-7.0,14.5 L-6.7,14.5 L-6.3,14.5 M-9.0,25.5 L-9.4,26.3 L-9.9,27.2 M-74.2,30.1 L-74.9,29.8 L-75.7,29.5 M-17.1,20.5 L-18.2,21.0 L-19.3,21.4 M-9.6,16.1 L-8.9,15.8 L-8.3,15.5 M-29.8,33.6 L-29.1,33.7 L-28.4,33.7 M32.6,14.2 L32.4,14.3 L32.2,14.4 M97.5,-15.7 L98.6,-16.3 L99.7,-17.0 M38.5,14.1 L38.1,14.2 L37.7,14.4 M31.2,2.3 L32.4,2.3 L33.7,2.3 M60.8,-0.3 L62.0,-0.5 L63.2,-0.7 M17.2,3.8 L18.0,3.7 L18.9,3.6 M94.3,-35.6 L94.3,-36.2 L94.3,-36.8 M56.3,-3.8 L57.7,-4.2 L58.9,-4.6 M34.3,8.1 L35.2,7.9 L36.2,7.7 M29.2,-18.4 L30.3,-19.0 L31.3,-19.6 M51.1,-2.6 L51.7,-2.6 L52.4,-2.6 M60.2,9.7 L61.1,9.6 L62.0,9.4 M47.7,8.5 L47.5,8.8 L47.4,9.1 M103.5,-17.2 L104.2,-17.5 L104.9,-17.8 M36.9,8.6 L38.1,8.3 L39.3,8.1 M23.9,-12.4 L25.2,-12.8 L26.7,-13.2 M19.7,-13.2 L19.6,-13.3 L19.5,-13.4 M18.2,7.9 L18.4,8.3 L18.6,8.7 M26.2,7.3 L27.6,7.4 L29.0,7.5 M35.1,7.0 L36.1,6.8 L37.2,6.6 M69.3,0.5 L69.9,0.2 L70.5,-0.1 M39.2,-25.5 L40.2,-26.1 L41.2,-26.8 M53.0,-22.7 L53.7,-22.1 L54.4,-21.5 M19.6,5.1 L19.6,5.3 L19.6,5.5 M-15.7,-10.6 L-16.6,-11.2 L-17.5,-11.8 M-65.2,-36.3 L-66.3,-36.9 L-67.5,-37.4 M-62.3,-7.9 L-63.4,-8.2 L-64.5,-8.5 M-29.8,-16.6 L-30.8,-17.2 L-31.8,-17.7 M-15.8,1.0 L-16.6,1.0 L-17.5,1.1 M-76.4,-39.3 L-77.6,-39.5 L-78.8,-39.6 M-35.6,-22.7 L-35.2,-22.5 L-34.8,-22.3 M-18.6,8.3 L-19.4,8.6 L-20.1,8.9 M-29.3,3.5 L-29.6,3.8 L-29.9,4.1 M-16.3,7.3 L-16.4,7.6 L-16.4,7.9 M-26.6,-4.0 L-27.6,-4.6 L-28.6,-5.1 M-12.8,6.4 L-14.0,7.0 L-15.3,7.5 M-27.2,-17.1 L-27.9,-17.7 L-28.7,-18.2 M-78.3,0.8 L-79.4,0.5 L-80.5,0.1 M-17.0,4.3 L-17.9,4.7 L-18.7,5.1 M-31.2,10.7 L-31.9,11.1 L-32.5,11.5 M-35.9,13.0 L-36.9,13.1 L-37.8,13.1 M-64.6,4.2 L-64.7,4.5 L-64.8,4.8 M-17.5,5.2 L-18.2,5.5 L-18.8,5.9 M-95.4,-35.2 L-96.1,-35.3 L-96.8,-35.3 M-22.2,-0.4 L-21.7,-0.1 L-21.3,0.2 M-12.0,4.9 L-11.8,5.0 L-11.5,5.0 M-31.9,-14.7 L-33.3,-14.8 L-34.4,-14.6 M-45.5,-22.9 L-45.8,-23.2 L-46.1,-23.4"/><path fill="none" stroke-width="0.45" opacity="0.4" d="M60.7,14.3 L65.4,14.8 L71.2,15.1 L77.1,15.4 L82.9,16.2 L88.7,17.4 M20.6,14.6 L22.6,15.6 L26.9,19.1 L32.1,20.6 L37.0,22.7 L42.0,25.0 L46.6,28.2 L52.4,29.4 L58.2,31.0 L64.2,32.7 L70.2,35.4 L77.0,35.9 M11.3,14.6 L14.2,17.2 L17.6,19.1 L20.8,21.3 L23.4,24.1 L26.3,26.6 L29.1,29.3 L32.0,31.8 L35.5,33.5 L38.6,35.6 L41.3,38.3 L44.2,40.7 L46.9,43.3 M7.1,13.6 L8.4,15.4 L9.5,17.3 L10.5,19.1 L10.8,21.4 L12.0,23.2 L13.3,25.0 L14.6,26.8 L15.9,28.7 L17.2,30.7 L18.0,33.2 L19.6,35.1 L21.4,37.1 M3.9,10.3 L4.8,11.6 L4.9,13.1 L4.9,14.6 L5.2,16.0 L6.0,17.3 L6.2,18.8 L6.2,20.3 L6.5,21.8 L7.4,23.1 L7.6,24.7 L7.6,26.3 L8.0,27.8 M-60.7,14.3 L-65.4,14.8 L-71.2,15.1 L-77.1,15.4 L-82.9,16.2 L-88.7,17.4 M-20.6,14.6 L-22.6,15.6 L-26.9,19.1 L-32.1,20.6 L-37.0,22.7 L-42.0,25.0 L-46.6,28.2 L-52.4,29.4 L-58.2,31.0 L-64.2,32.7 L-70.2,35.4 L-77.0,35.9 M-11.3,14.6 L-14.2,17.2 L-17.6,19.1 L-20.8,21.3 L-23.4,24.1 L-26.3,26.6 L-29.1,29.3 L-32.0,31.8 L-35.5,33.5 L-38.6,35.6 L-41.3,38.3 L-44.2,40.7 L-46.9,43.3 M-7.1,13.6 L-8.4,15.4 L-9.5,17.3 L-10.5,19.1 L-10.8,21.4 L-12.0,23.2 L-13.3,25.0 L-14.6,26.8 L-15.9,28.7 L-17.2,30.7 L-18.0,33.2 L-19.6,35.1 L-21.4,37.1 M-3.9,10.3 L-4.8,11.6 L-4.9,13.1 L-4.9,14.6 L-5.2,16.0 L-6.0,17.3 L-6.2,18.8 L-6.2,20.3 L-6.5,21.8 L-7.4,23.1 L-7.6,24.7 L-7.6,26.3 L-8.0,27.8 M6.9,-5.3 L9.0,-6.8 L11.3,-8.0 L13.4,-9.1 L15.3,-10.5 L17.1,-12.1 L19.2,-13.5 L21.5,-14.8 L23.7,-16.4 L25.9,-18.5 L28.3,-20.8 L30.6,-22.8 M11.6,-6.7 L15.3,-9.7 L19.6,-11.6 L23.5,-14.0 L27.0,-16.7 L30.4,-19.6 L34.7,-21.5 L38.8,-24.0 L43.0,-27.1 L47.3,-30.4 L52.7,-32.7 L58.0,-35.7 L62.0,-38.3 M18.5,-8.4 L25.1,-11.4 L31.4,-15.6 L38.5,-18.3 L45.9,-20.5 L52.9,-23.6 L59.0,-28.0 L65.6,-30.7 L72.0,-33.0 L77.5,-36.2 L78.7,-37.4 M20.9,-7.1 L28.3,-9.7 L35.7,-12.5 L42.9,-15.5 L50.1,-18.7 L57.3,-21.9 L64.6,-24.7 L72.1,-27.2 L79.6,-29.7 L87.1,-32.5 L94.7,-35.3 L102.4,-37.7 L110.2,-40.2 M27.7,-6.4 L35.3,-7.4 L42.8,-8.4 L50.4,-9.3 L58.0,-9.8 L65.6,-10.5 L73.0,-12.0 L80.4,-14.1 L87.8,-16.2 L95.2,-18.2 L102.5,-20.4 L109.8,-22.8 L117.1,-25.4 M21.1,-2.6 L28.6,-2.7 L36.1,-2.9 L43.6,-3.1 L51.1,-4.0 L58.5,-5.3 L66.0,-5.5 L73.5,-5.8 L80.9,-6.2 L88.3,-6.6 L95.7,-7.5 L102.9,-8.8 L110.2,-9.0 M21.3,-0.6 L27.1,-0.5 L32.8,0.0 L38.5,1.2 L44.1,1.5 L49.9,1.6 L55.7,1.7 L61.5,1.7 L67.5,1.9 L73.7,2.7 L80.0,2.6 L86.5,2.2 L93.0,1.8 M15.5,0.1 L20.5,0.8 L25.5,1.9 L30.6,2.6 L35.6,4.1 L40.8,4.3 L45.9,4.5 L50.9,5.0 L55.6,6.0 L60.3,6.8 L64.6,8.2 L69.0,8.6 L72.8,8.9 M14.0,1.8 L16.8,3.3 L19.4,4.9 L22.0,6.3 L25.2,6.6 L27.9,7.8 L30.5,9.4 L33.5,10.8 L36.8,12.2 L40.6,13.3 L44.9,13.0 L49.3,13.6 L54.0,14.7 M7.5,1.2 L10.1,2.2 L12.8,3.0 L15.1,4.8 L17.3,6.6 L20.0,7.6 L22.8,8.3 L24.9,10.1 L26.9,11.9 L29.4,12.8 L31.8,13.6 L33.5,15.3 L35.1,17.1 M5.5,-0.4 L6.8,0.7 L7.9,2.0 L9.0,3.5 L10.3,4.7 L11.7,5.9 L13.0,7.2 L13.9,8.6 L14.9,9.9 L16.1,10.9 L17.2,11.7 L18.2,12.6 L19.1,13.5 M-6.9,-5.3 L-9.0,-6.8 L-11.3,-8.0 L-13.4,-9.1 L-15.3,-10.5 L-17.1,-12.1 L-19.2,-13.5 L-21.5,-14.8 L-23.7,-16.4 L-25.9,-18.5 L-28.3,-20.8 L-30.6,-22.8 M-11.6,-6.7 L-15.3,-9.7 L-19.6,-11.6 L-23.5,-14.0 L-27.0,-16.7 L-30.4,-19.6 L-34.7,-21.5 L-38.8,-24.0 L-43.0,-27.1 L-47.3,-30.4 L-52.7,-32.7 L-58.0,-35.7 L-63.4,-39.2 M-18.5,-8.4 L-25.1,-11.4 L-31.4,-15.6 L-38.5,-18.3 L-45.9,-20.5 L-52.9,-23.6 L-59.0,-28.0 L-65.6,-30.7 L-72.0,-33.0 L-77.5,-36.2 L-81.6,-40.5 L-86.3,-43.3 L-90.9,-45.7 M-20.9,-7.1 L-28.3,-9.7 L-35.7,-12.5 L-42.9,-15.5 L-50.1,-18.7 L-57.3,-21.9 L-64.6,-24.7 L-72.1,-27.2 L-79.6,-29.7 L-87.1,-32.5 L-94.7,-35.3 L-102.4,-37.7 L-110.2,-40.2 M-27.7,-6.4 L-35.3,-7.4 L-42.8,-8.4 L-50.4,-9.3 L-58.0,-9.8 L-65.6,-10.5 L-73.0,-12.0 L-80.4,-14.1 L-87.8,-16.2 L-95.2,-18.2 L-102.5,-20.4 L-109.8,-22.8 L-117.1,-25.4 M-21.1,-2.6 L-28.6,-2.7 L-36.1,-2.9 L-43.6,-3.1 L-51.1,-4.0 L-58.5,-5.3 L-66.0,-5.5 L-73.5,-5.8 L-80.9,-6.2 L-88.3,-6.6 L-95.7,-7.5 L-102.9,-8.8 L-110.2,-9.0 M-21.3,-0.6 L-27.1,-0.5 L-32.8,0.0 L-38.5,1.2 L-44.1,1.5 L-49.9,1.6 L-55.7,1.7 L-61.5,1.7 L-67.5,1.9 L-73.7,2.7 L-80.0,2.6 L-86.5,2.2 L-93.0,1.8 M-15.5,0.1 L-20.5,0.8 L-25.5,1.9 L-30.6,2.6 L-35.6,4.1 L-40.8,4.3 L-45.9,4.5 L-50.9,5.0 L-55.6,6.0 L-60.3,6.8 L-64.6,8.2 L-69.0,8.6 L-72.8,8.9 M-14.0,1.8 L-16.8,3.3 L-19.4,4.9 L-22.0,6.3 L-25.2,6.6 L-27.9,7.8 L-30.5,9.4 L-33.5,10.8 L-36.8,12.2 L-40.6,13.3 L-44.9,13.0 L-49.3,13.6 L-54.0,14.7 M-7.5,1.2 L-10.1,2.2 L-12.8,3.0 L-15.1,4.8 L-17.3,6.6 L-20.0,7.6 L-22.8,8.3 L-24.9,10.1 L-26.9,11.9 L-29.4,12.8 L-31.8,13.6 L-33.5,15.3 L-35.1,17.1 M-5.5,-0.4 L-6.8,0.7 L-7.9,2.0 L-9.0,3.5 L-10.3,4.7 L-11.7,5.9 L-13.0,7.2 L-13.9,8.6 L-14.9,9.9 L-16.1,10.9 L-17.2,11.7 L-18.2,12.6 L-19.1,13.5"/><path fill="none" stroke-width="0.85" opacity="0.72" d="M40.3,18.1 L38.1,19.6 L34.7,20.8 L31.1,21.2 L27.7,21.7 L24.0,21.6 L20.5,21.4 L17.3,21.0 L14.2,20.9 L12.5,20.0 L10.8,18.9 L9.3,18.2 L7.9,18.6 L8.7,21.9 L7.9,24.4 L6.4,24.6 M45.0,17.9 L44.4,18.7 L40.9,20.2 L37.2,21.1 L33.4,21.8 L29.8,22.4 L25.9,22.5 L22.0,22.7 L18.6,22.5 L15.2,22.3 L13.2,21.3 L11.3,20.3 L9.7,19.4 L7.9,19.4 L7.9,22.6 L7.2,24.3 L6.4,23.8 M65.2,12.7 L66.3,16.2 L65.4,20.6 L63.9,24.7 L59.6,27.0 L55.5,29.4 L50.9,31.3 L45.9,32.7 L39.8,32.3 L34.0,32.2 L28.5,32.1 L23.2,32.2 L19.7,30.9 L16.3,29.5 L13.4,28.4 L10.9,27.3 L9.4,27.1 L7.3,26.4 L6.2,25.1 M-40.3,18.1 L-38.1,19.6 L-34.7,20.8 L-31.1,21.2 L-27.7,21.7 L-24.0,21.6 L-20.5,21.4 L-17.3,21.0 L-14.2,20.9 L-12.5,20.0 L-10.8,18.9 L-9.3,18.2 L-7.9,18.6 L-8.7,21.9 L-7.9,24.4 L-6.4,24.6 M-45.0,17.9 L-44.4,18.7 L-40.9,20.2 L-37.2,21.1 L-33.4,21.8 L-29.8,22.4 L-25.9,22.5 L-22.0,22.7 L-18.6,22.5 L-15.2,22.3 L-13.2,21.3 L-11.3,20.3 L-9.7,19.4 L-7.9,19.4 L-7.9,22.6 L-7.2,24.3 L-6.4,23.8 M-65.2,12.7 L-66.3,16.2 L-65.4,20.6 L-63.9,24.7 L-59.6,27.0 L-55.5,29.4 L-50.9,31.3 L-45.9,32.7 L-39.8,32.3 L-34.0,32.2 L-28.5,32.1 L-23.2,32.2 L-19.7,30.9 L-16.3,29.5 L-13.4,28.4 L-10.9,27.3 L-9.4,27.1 L-7.3,26.4 L-6.2,25.1 M102.6,-47.6 L87.5,-35.5 L69.7,-24.1 L48.7,-14.0 L45.7,-10.7 L45.6,-8.4 L44.7,-6.4 L44.1,-4.3 L43.1,-2.3 L41.4,-0.9 L39.8,0.4 L37.6,1.1 L35.4,1.5 L33.1,2.0 L31.0,3.0 L28.7,4.2 L26.4,5.1 L23.9,5.8 L21.4,6.3 L18.7,6.7 L15.9,6.9 L14.7,6.3 L15.6,8.4 L14.6,10.6 L12.2,11.6 M95.9,-44.4 L96.1,-43.8 L93.0,-36.6 L88.6,-29.6 L89.1,-24.6 L89.6,-20.0 L89.6,-15.7 L87.4,-11.6 L85.4,-7.4 L81.9,-4.0 L78.1,-0.7 L73.9,2.3 L69.0,4.7 L64.0,7.0 L58.8,8.4 L53.5,9.7 L48.3,10.9 L43.2,12.1 L38.0,13.2 L32.8,13.1 L27.6,13.0 L23.0,12.3 L19.8,12.3 L16.2,12.0 L12.5,11.4 M53.8,-14.2 L57.3,-12.4 L57.2,-9.3 L57.2,-6.2 L53.8,-4.3 L50.0,-1.2 L44.8,-0.5 M-102.6,-47.6 L-87.5,-35.5 L-69.7,-24.1 L-48.7,-14.0 L-45.7,-10.7 L-45.6,-8.4 L-44.7,-6.4 L-44.1,-4.3 L-43.1,-2.3 L-41.4,-0.9 L-39.8,0.4 L-37.6,1.1 L-35.4,1.5 L-33.1,2.0 L-31.0,3.0 L-28.7,4.2 L-26.4,5.1 L-23.9,5.8 L-21.4,6.3 L-18.7,6.7 L-15.9,6.9 L-14.7,6.3 L-15.6,8.4 L-14.6,10.6 L-12.2,11.6 M-95.1,-46.7 L-96.1,-43.8 L-93.0,-36.6 L-88.6,-29.6 L-89.1,-24.6 L-89.6,-20.0 L-89.6,-15.7 L-87.4,-11.6 L-85.4,-7.4 L-81.9,-4.0 L-78.1,-0.7 L-73.9,2.3 L-69.0,4.7 L-64.0,7.0 L-58.8,8.4 L-53.5,9.7 L-48.3,10.9 L-43.2,12.1 L-38.0,13.2 L-32.8,13.1 L-27.6,13.0 L-23.0,12.3 L-19.8,12.3 L-16.2,12.0 L-12.5,11.4 M-53.8,-14.2 L-57.3,-12.4 L-57.2,-9.3 L-57.2,-6.2 L-53.8,-4.3 L-50.0,-1.2 L-44.8,-0.5"/><path fill="none" stroke-width="0.7" opacity="0.82" d="M66.1,-3.6 L67.4,-3.5 L68.9,-3.8 L70.5,-4.4 L72.1,-5.1 L72.8,-6.7 L73.0,-8.4 L73.9,-9.2 L75.2,-9.8 L75.7,-10.8 L75.8,-11.8 L75.4,-12.7 L74.4,-13.1 L73.3,-13.3 L72.2,-12.7 L71.2,-11.4 L70.1,-10.7 L68.4,-10.9 L66.8,-10.5 L65.6,-9.6 L64.4,-8.8 L63.8,-7.7 L63.3,-6.7 L63.4,-5.6 L64.5,-5.1 L65.1,-5.2 L64.6,-4.6 L65.1,-3.8 L66.1,-3.6 M61.3,-0.5 L63.6,-0.8 L66.3,-1.4 L69.3,-2.3 L72.6,-3.5 L75.8,-5.0 L78.4,-6.9 L80.0,-9.2 L81.1,-11.6 L81.5,-13.5 L80.9,-15.1 L79.0,-16.4 L76.9,-17.3 L74.5,-17.7 L72.1,-17.6 L69.6,-16.9 L67.3,-15.8 L65.2,-14.2 L63.7,-12.5 L62.0,-10.6 L60.3,-8.7 L59.0,-6.8 L58.4,-5.0 L57.8,-3.7 L57.3,-2.6 L57.5,-1.7 L58.2,-1.0 L59.5,-0.6 L61.3,-0.5 M-66.1,-3.6 L-67.4,-3.5 L-68.9,-3.8 L-70.5,-4.4 L-72.1,-5.1 L-72.8,-6.7 L-73.0,-8.4 L-73.9,-9.2 L-75.2,-9.8 L-75.7,-10.8 L-75.8,-11.8 L-75.4,-12.7 L-74.4,-13.1 L-73.3,-13.3 L-72.2,-12.7 L-71.2,-11.4 L-70.1,-10.7 L-68.4,-10.9 L-66.8,-10.5 L-65.6,-9.6 L-64.4,-8.8 L-63.8,-7.7 L-63.3,-6.7 L-63.4,-5.6 L-64.5,-5.1 L-65.1,-5.2 L-64.6,-4.6 L-65.1,-3.8 L-66.1,-3.6 M-61.3,-0.5 L-63.6,-0.8 L-66.3,-1.4 L-69.3,-2.3 L-72.6,-3.5 L-75.8,-5.0 L-78.4,-6.9 L-80.0,-9.2 L-81.1,-11.6 L-81.5,-13.5 L-80.9,-15.1 L-79.0,-16.4 L-76.9,-17.3 L-74.5,-17.7 L-72.1,-17.6 L-69.6,-16.9 L-67.3,-15.8 L-65.2,-14.2 L-63.7,-12.5 L-62.0,-10.6 L-60.3,-8.7 L-59.0,-6.8 L-58.4,-5.0 L-57.8,-3.7 L-57.3,-2.6 L-57.5,-1.7 L-58.2,-1.0 L-59.5,-0.6 L-61.3,-0.5"/><path fill="#292d29" stroke-width="0.45" opacity="0.85" d="M68.2,-4.2 L69.0,-4.4 L70.1,-4.6 L71.1,-5.0 L72.0,-5.6 L72.8,-6.4 L73.4,-7.2 L73.9,-8.0 L74.1,-8.8 L74.2,-9.5 L74.1,-10.0 L73.8,-10.4 L73.4,-10.6 L72.8,-10.6 L72.1,-10.4 L71.4,-10.0 L70.6,-9.6 L69.8,-9.1 L69.0,-8.6 L68.2,-8.2 L67.4,-7.8 L66.6,-7.3 L66.1,-6.7 L65.8,-6.0 L65.8,-5.3 L66.1,-4.6 L66.7,-4.3 L67.4,-4.2 L68.1,-4.2 M-68.2,-4.2 L-69.0,-4.4 L-70.1,-4.6 L-71.1,-5.0 L-72.0,-5.6 L-72.8,-6.4 L-73.4,-7.2 L-73.9,-8.0 L-74.1,-8.8 L-74.2,-9.5 L-74.1,-10.0 L-73.8,-10.4 L-73.4,-10.6 L-72.8,-10.6 L-72.1,-10.4 L-71.4,-10.0 L-70.6,-9.6 L-69.8,-9.1 L-69.0,-8.6 L-68.2,-8.2 L-67.4,-7.8 L-66.6,-7.3 L-66.1,-6.7 L-65.8,-6.0 L-65.8,-5.3 L-66.1,-4.6 L-66.7,-4.3 L-67.4,-4.2 L-68.1,-4.2"/><path fill="none" stroke-width="0.42" opacity="0.55" d="M86.1,8.2 L88.2,6.1 M89.4,12.1 L93.3,10.1 M90.5,16.6 L95.7,15.8 M90.7,21.0 L96.0,21.1 M90.4,25.4 L94.3,26.1 M89.2,29.5 L92.5,31.4 M86.1,32.4 L88.4,35.7 M82.0,34.6 L83.8,38.2 M77.7,36.8 L79.7,40.7 M73.1,39.1 L75.1,43.8 M67.9,40.8 L69.2,45.3 M62.2,42.2 L62.9,46.0 M55.8,43.1 L56.1,46.7 M49.0,43.1 L48.8,47.0 M41.5,42.5 L41.2,47.6 M35.5,42.4 L35.3,47.8 M31.1,41.7 L30.0,45.3 M27.3,39.9 L25.1,43.7 M23.9,37.8 L21.5,42.2 M20.5,36.2 L18.9,39.8 M17.6,34.8 L15.0,39.5 M15.0,33.2 L12.6,36.8 M12.6,31.4 L9.9,34.8 M10.6,29.5 L7.6,32.1 M8.9,27.2 L4.5,30.2 M7.2,24.7 L3.5,26.9 M6.1,22.1 L1.8,23.6 M-86.1,8.2 L-88.2,6.1 M-89.4,12.1 L-93.9,9.8 M-90.5,16.6 L-95.1,15.9 M-90.7,21.0 L-94.4,21.1 M-90.4,25.4 L-95.7,26.3 M-89.2,29.5 L-93.5,32.0 M-86.1,32.4 L-88.5,35.8 M-82.0,34.6 L-83.8,38.2 M-77.7,36.8 L-79.7,40.8 M-73.1,39.1 L-75.1,43.8 M-67.9,40.8 L-69.3,45.6 M-62.2,42.2 L-62.9,46.0 M-55.8,43.1 L-56.2,48.3 M-49.0,43.1 L-48.8,47.0 M-41.5,42.5 L-41.2,47.8 M-35.5,42.4 L-35.3,47.7 M-31.1,41.7 L-30.0,45.4 M-27.3,39.9 L-24.6,44.5 M-23.9,37.8 L-22.0,41.2 M-20.5,36.2 L-18.6,40.5 M-17.6,34.8 L-15.1,39.4 M-15.0,33.2 L-12.8,36.4 M-12.6,31.4 L-9.3,35.5 M-10.6,29.5 L-7.8,31.9 M-8.9,27.2 L-5.7,29.4 M-7.2,24.7 L-3.8,26.7 M-6.1,22.1 L-2.3,23.4 M118.2,-37.1 L122.6,-39.5 M120.2,-31.6 L124.9,-32.7 M120.9,-25.9 L124.8,-25.8 M120.1,-20.1 L124.6,-18.8 M117.6,-14.6 L121.8,-11.8 M113.4,-9.9 L115.7,-7.2 M107.9,-6.0 L109.8,-3.1 M102.1,-2.2 L103.9,0.6 M96.1,1.5 L98.0,5.0 M89.5,4.5 L90.7,7.8 M82.5,6.4 L83.2,10.1 M74.8,7.4 L75.8,11.8 M68.1,10.1 L69.5,12.9 M62.0,12.7 L63.4,16.4 M55.8,14.6 L57.0,19.2 M49.4,16.1 L50.2,20.7 M43.0,16.9 L43.2,20.2 M36.8,16.7 L36.3,21.4 M30.9,15.6 L30.1,19.0 M25.1,14.4 L24.5,17.6 M19.7,13.3 L19.0,16.6 M14.7,12.1 L13.5,16.3 M10.3,10.5 L8.5,14.8 M-118.2,-37.1 L-122.1,-39.2 M-120.2,-31.6 L-125.1,-32.8 M-120.9,-25.9 L-125.4,-25.8 M-120.1,-20.1 L-124.5,-18.8 M-117.6,-14.6 L-121.6,-11.9 M-113.4,-9.9 L-116.2,-6.6 M-107.9,-6.0 L-110.7,-1.9 M-102.1,-2.2 L-104.4,1.4 M-96.1,1.5 L-97.7,4.5 M-89.5,4.5 L-91.1,9.0 M-82.5,6.4 L-83.3,10.8 M-74.8,7.4 L-75.6,10.7 M-68.1,10.1 L-69.8,13.6 M-62.0,12.7 L-63.5,16.8 M-55.8,14.6 L-56.9,18.9 M-49.4,16.1 L-50.2,20.5 M-43.0,16.9 L-43.2,20.7 M-36.8,16.7 L-36.4,20.7 M-30.9,15.6 L-30.0,19.6 M-25.1,14.4 L-24.2,18.6 M-19.7,13.3 L-18.7,18.2 M-14.7,12.1 L-13.4,16.5 M-10.3,10.5 L-9.0,13.8"/><path fill="none" stroke-width="1.05" opacity="0.92" d="M86.1,6.7 L88.2,8.7 L90.4,11.6 L91.4,14.8 L91.8,18.0 L91.8,21.0 L91.7,24.1 L91.3,27.1 L90.2,30.0 L88.2,32.4 L85.4,34.2 L82.5,35.6 L79.6,37.0 L76.7,38.6 L73.6,40.1 L70.1,41.4 L66.4,42.4 L62.4,43.3 L58.1,44.0 L53.6,44.4 L48.9,44.3 L44.0,43.9 L38.8,43.4 L35.4,43.6 L32.2,43.3 L29.3,42.3 L26.8,40.9 L24.4,39.4 L22.2,38.2 L20.1,37.3 L18.0,36.3 L16.1,35.3 L14.4,34.1 L12.7,32.9 L11.1,31.7 L9.7,30.2 L8.5,28.7 L7.4,27.0 L6.3,25.3 L5.3,23.5 L4.8,21.4 L4.1,19.4 L3.5,17.4 L3.5,16.8 L3.5,16.1 L3.6,15.4 L3.6,14.5 L3.6,13.7 L3.6,12.7 L3.6,11.7 L3.7,10.7 L3.7,9.6 L3.7,8.5 L3.7,8.2 M86.7,6.6 L88.3,8.5 L90.3,11.7 L91.1,14.9 L91.4,18.0 L91.4,21.0 L91.3,24.0 L90.9,27.0 L89.8,29.8 L87.9,32.1 L85.3,33.9 L82.4,35.4 L79.6,36.9 L76.7,38.5 L73.5,40.0 L70.1,41.4 L66.5,42.7 L62.5,43.9 L58.2,44.9 L53.6,45.2 L48.9,44.9 L44.0,44.1 L38.8,43.4 L35.5,43.3 L32.3,42.9 L29.5,42.0 L26.9,40.6 L24.6,39.1 L22.4,37.9 L20.2,37.0 L18.1,36.1 L16.2,35.1 L14.4,34.0 L12.8,32.9 L11.2,31.6 L9.7,30.3 L8.4,28.7 L7.1,27.1 L6.0,25.4 L5.1,23.5 L4.8,21.4 L4.1,19.4 L3.5,17.4 L3.5,16.8 L3.5,16.1 L3.6,15.4 L3.6,14.5 L3.6,13.7 L3.6,12.7 L3.6,11.7 L3.7,10.7 L3.7,9.6 L3.7,8.5 L3.7,8.2 M-86.1,6.7 L-88.2,8.7 L-90.4,11.6 L-91.4,14.8 L-91.8,18.0 L-91.8,21.0 L-91.7,24.1 L-91.3,27.1 L-90.2,30.0 L-88.2,32.4 L-85.4,34.2 L-82.5,35.6 L-79.6,37.0 L-76.7,38.6 L-73.6,40.1 L-70.1,41.4 L-66.4,42.4 L-62.4,43.3 L-58.1,44.0 L-53.6,44.4 L-48.9,44.3 L-44.0,43.9 L-38.8,43.4 L-35.4,43.6 L-32.2,43.3 L-29.3,42.3 L-26.8,40.9 L-24.4,39.4 L-22.2,38.2 L-20.1,37.3 L-18.0,36.3 L-16.1,35.3 L-14.4,34.1 L-12.7,32.9 L-11.1,31.7 L-9.7,30.2 L-8.5,28.7 L-7.4,27.0 L-6.3,25.3 L-5.3,23.5 L-4.8,21.4 L-4.1,19.4 L-3.5,17.4 L-3.5,16.8 L-3.5,16.1 L-3.6,15.4 L-3.6,14.5 L-3.6,13.7 L-3.6,12.7 L-3.6,11.7 L-3.7,10.7 L-3.7,9.6 L-3.7,8.5 L-3.7,8.2 M-86.7,6.5 L-88.6,8.3 L-90.7,11.4 L-91.3,14.8 L-91.2,18.0 L-91.1,21.0 L-91.2,24.0 L-91.1,27.1 L-90.1,30.0 L-88.0,32.3 L-85.4,34.1 L-82.6,35.8 L-79.8,37.4 L-77.0,39.1 L-73.8,40.7 L-70.3,41.8 L-66.4,42.5 L-62.3,42.9 L-58.1,43.3 L-53.6,43.8 L-48.9,44.0 L-44.0,43.7 L-38.9,43.3 L-35.5,43.4 L-32.2,43.4 L-29.2,42.7 L-26.5,41.3 L-24.2,39.8 L-22.0,38.6 L-20.0,37.5 L-18.1,36.2 L-16.4,34.9 L-14.6,33.7 L-12.9,32.7 L-11.2,31.6 L-9.8,30.2 L-8.6,28.6 L-7.4,27.0 L-6.2,25.3 L-5.2,23.5 L-4.8,21.4 L-4.1,19.4 L-3.5,17.4 L-3.5,16.8 L-3.5,16.1 L-3.6,15.4 L-3.6,14.5 L-3.6,13.7 L-3.6,12.7 L-3.6,11.7 L-3.7,10.7 L-3.7,9.6 L-3.7,8.5 L-3.7,8.2 M3.5,-8.9 L8.1,-10.8 L13.1,-13.2 L18.5,-15.9 L24.0,-19.0 L29.8,-22.4 L35.8,-25.9 L41.8,-29.5 L48.1,-33.0 L54.5,-36.2 L60.2,-38.7 M102.3,-49.2 L106.2,-48.5 L110.4,-46.8 L114.1,-44.4 L117.0,-41.1 L119.2,-37.7 L120.8,-34.1 L121.7,-30.4 L122.0,-26.6 L121.8,-22.8 L121.0,-19.0 L119.5,-15.3 L117.1,-12.0 L114.1,-9.0 L110.7,-6.5 L107.1,-4.1 L103.4,-1.8 L99.7,0.7 L95.8,3.0 L91.7,4.9 L87.2,6.4 L82.7,7.5 L78.0,8.2 L73.2,8.6 L69.3,10.7 L65.5,12.5 L61.6,14.0 L57.7,15.3 L53.6,16.4 L49.6,17.2 L45.5,17.9 L41.5,18.1 L37.5,17.9 L33.6,17.3 L29.9,16.5 L26.3,15.7 L22.8,15.0 L19.4,14.4 L16.2,13.7 L13.2,12.8 L10.4,11.8 L7.8,10.7 L5.5,9.4 L3.5,8.1 L3.4,7.1 L3.3,6.2 L3.2,5.2 L3.1,4.3 L3.1,3.4 L3.0,2.6 L3.0,1.7 L3.0,0.9 L3.0,0.1 L3.0,-0.8 L3.0,-1.6 L3.0,-2.4 L3.0,-3.2 L3.0,-4.0 L3.1,-4.8 L3.1,-5.6 L3.2,-6.4 L3.3,-7.2 L3.4,-8.0 L3.5,-8.9 M3.5,-8.9 L8.1,-10.8 L13.1,-13.2 L18.5,-15.9 L24.1,-19.0 L29.9,-22.3 L35.9,-25.7 L41.9,-29.3 L48.2,-32.8 L54.6,-36.0 L60.7,-38.6 M102.9,-49.8 L106.4,-49.1 L110.6,-47.2 L114.3,-44.6 L117.1,-41.2 L119.3,-37.7 L120.7,-34.1 L121.5,-30.4 L121.7,-26.6 L121.5,-22.9 L120.7,-19.1 L119.2,-15.5 L116.8,-12.2 L113.8,-9.4 L110.3,-7.0 L106.8,-4.6 L103.3,-2.0 L99.8,0.7 L96.1,3.4 L92.0,5.6 L87.5,7.2 L82.8,8.2 L78.1,8.7 L73.2,8.9 L69.4,10.8 L65.6,12.6 L61.6,14.0 L57.6,15.1 L53.6,16.1 L49.5,16.9 L45.5,17.6 L41.5,17.9 L37.5,17.7 L33.7,17.0 L30.0,16.2 L26.3,15.4 L22.8,14.9 L19.4,14.4 L16.2,13.9 L13.1,13.1 L10.3,12.0 L7.8,10.7 L5.5,9.4 L3.5,8.1 L3.4,7.1 L3.3,6.2 L3.2,5.2 L3.1,4.3 L3.1,3.4 L3.0,2.6 L3.0,1.7 L3.0,0.9 L3.0,0.1 L3.0,-0.8 L3.0,-1.6 L3.0,-2.4 L3.0,-3.2 L3.0,-4.0 L3.1,-4.8 L3.1,-5.6 L3.2,-6.4 L3.3,-7.2 L3.4,-8.0 L3.5,-8.9 M60.2,-38.7 L69.6,-36.4 M84.6,-38.1 L99.4,-46.3 L102.3,-49.2 M-3.5,-8.9 L-8.1,-10.8 L-13.1,-13.2 L-18.5,-15.9 L-24.0,-19.0 L-29.8,-22.4 L-35.8,-25.9 L-41.8,-29.5 L-48.1,-33.0 L-54.5,-36.2 L-61.0,-39.0 L-67.5,-41.4 L-73.8,-43.6 L-79.9,-45.6 L-85.7,-47.3 L-91.3,-48.7 L-96.6,-49.4 L-101.6,-49.4 L-106.2,-48.5 L-110.4,-46.8 L-114.1,-44.4 L-117.0,-41.1 L-119.2,-37.7 L-120.8,-34.1 L-121.7,-30.4 L-122.0,-26.6 L-121.8,-22.8 L-121.0,-19.0 L-119.5,-15.3 L-117.1,-12.0 L-114.1,-9.0 L-110.7,-6.5 L-107.1,-4.1 L-103.4,-1.8 L-99.7,0.7 L-95.8,3.0 L-91.7,4.9 L-87.2,6.4 L-82.7,7.5 L-78.0,8.2 L-73.2,8.6 L-69.3,10.7 L-65.5,12.5 L-61.6,14.0 L-57.7,15.3 L-53.6,16.4 L-49.6,17.2 L-45.5,17.9 L-41.5,18.1 L-37.5,17.9 L-33.6,17.3 L-29.9,16.5 L-26.3,15.7 L-22.8,15.0 L-19.4,14.4 L-16.2,13.7 L-13.2,12.8 L-10.4,11.8 L-7.8,10.7 L-5.5,9.4 L-3.5,8.1 L-3.4,7.1 L-3.3,6.2 L-3.2,5.2 L-3.1,4.3 L-3.1,3.4 L-3.0,2.6 L-3.0,1.7 L-3.0,0.9 L-3.0,0.1 L-3.0,-0.8 L-3.0,-1.6 L-3.0,-2.4 L-3.0,-3.2 L-3.0,-4.0 L-3.1,-4.8 L-3.1,-5.6 L-3.2,-6.4 L-3.3,-7.2 L-3.4,-8.0 L-3.5,-8.9 M-3.5,-8.9 L-8.1,-10.8 L-13.1,-13.2 L-18.3,-16.2 L-23.9,-19.3 L-29.7,-22.6 L-35.7,-25.9 L-41.9,-29.4 L-48.1,-32.9 L-54.5,-36.1 L-61.0,-39.0 L-67.5,-41.3 L-73.9,-43.3 L-80.1,-45.0 L-85.9,-46.6 L-91.4,-48.0 L-96.6,-48.8 L-101.6,-48.9 L-106.1,-48.2 L-110.4,-46.8 L-114.4,-44.7 L-117.6,-41.6 L-120.1,-38.2 L-121.9,-34.5 L-122.6,-30.6 L-122.6,-26.6 L-121.9,-22.8 L-120.8,-19.1 L-119.3,-15.4 L-117.0,-12.0 L-114.1,-9.1 L-110.6,-6.7 L-106.8,-4.5 L-103.0,-2.4 L-99.3,-0.1 L-95.4,2.2 L-91.4,4.3 L-87.1,6.0 L-82.6,7.2 L-78.0,8.2 L-73.3,9.0 L-69.7,11.4 L-65.9,13.4 L-62.0,15.0 L-57.9,16.1 L-53.7,16.8 L-49.6,17.3 L-45.5,17.7 L-41.5,18.0 L-37.5,17.8 L-33.6,17.3 L-29.9,16.4 L-26.3,15.5 L-22.9,14.6 L-19.5,14.0 L-16.3,13.3 L-13.3,12.6 L-10.4,11.7 L-7.8,10.7 L-5.5,9.4 L-3.5,8.1 L-3.4,7.1 L-3.3,6.2 L-3.2,5.2 L-3.1,4.3 L-3.1,3.4 L-3.0,2.6 L-3.0,1.7 L-3.0,0.9 L-3.0,0.1 L-3.0,-0.8 L-3.0,-1.6 L-3.0,-2.4 L-3.0,-3.2 L-3.0,-4.0 L-3.1,-4.8 L-3.1,-5.6 L-3.2,-6.4 L-3.3,-7.2 L-3.4,-8.0 L-3.5,-8.9"/><path fill="none" stroke-width="0.75" opacity="0.88" d="M-3.1,-5.6 L-6.2,-7.5 L-10.6,-9.4 M3.0,2.0 L8.2,3.9 L12.1,5.8 M-3.7,-3.6 L-8.0,-4.2 L-12.0,-4.9 M0.6,-8.1 L1.3,-14.4 L3.1,-20.6 M2.5,-6.7 L5.9,-9.3 L9.7,-12.0 M3.6,-4.1 L11.7,-5.7 L18.6,-7.3 M0.9,-13.3 L4.3,-9.5 L7.2,-5.7 M-2.9,2.4 L-6.3,4.8 L-11.0,7.2 M3.1,1.8 L8.8,3.8 L13.4,5.8 M-2.0,26.9 L-7.5,28.6 L-12.1,30.2 M1.4,28.2 L5.2,30.4 L9.0,32.5 M3.8,-0.9 L10.2,-0.3 L15.9,0.2 M-0.9,-8.0 L-4.7,-14.4 L-7.2,-20.8 M-1.6,-7.6 L-6.3,-13.0 L-10.3,-18.3 M-3.8,-1.8 L-8.8,-1.7 L-14.1,-1.7 M-0.4,29.3 L-3.1,33.3 L-4.6,37.2 M3.8,-1.2 L7.3,-1.0 L11.7,-0.7 M3.8,-1.6 L9.8,-1.4 L16.8,-1.2 M2.2,3.4 L7.7,7.2 L12.0,11.1 M3.6,0.2 L9.0,1.4 L14.6,2.6 M-2.5,-16.3 L-7.3,-15.2 L-12.7,-14.1 M-3.7,-3.7 L-7.3,-4.3 L-10.6,-4.9 M1.2,10.6 L3.6,8.4 L6.8,6.2 M0.8,-23.8 L4.0,-27.9 L6.5,-31.9 M-2.6,-17.0 L-10.3,-15.9 L-17.7,-14.9 M2.9,21.6 L7.1,21.9 L11.0,22.1 M-3.5,0.6 L-11.6,2.4 L-18.4,4.1 M0.6,-8.1 L1.3,-10.9 L2.2,-13.8 M-3.8,-2.0 L-9.7,-2.0 L-15.0,-2.1 M-1.4,28.2 L-3.4,29.6 L-5.9,31.1 M2.5,-16.7 L9.2,-15.6 L15.8,-14.6 M-1.9,-7.4 L-5.4,-11.0 L-8.8,-14.6 M2.8,2.5 L7.1,4.5 L10.6,6.5 M2.3,-21.3 L5.6,-22.2 L8.6,-23.1 M-1.9,27.0 L-6.0,28.5 L-10.2,30.0 M2.9,21.1 L7.6,21.3 L11.5,21.5 M1.0,-8.0 L3.4,-10.6 L4.5,-13.2 M0.8,29.0 L3.8,31.6 L6.0,34.2 M-3.8,-2.9 L-6.1,-3.2 L-9.8,-3.6 M-2.2,3.4 L-6.8,8.0 L-12.1,12.7 M0.1,29.4 L-0.1,33.4 L0.5,37.5 M-2.9,21.7 L-7.2,22.0 L-11.4,22.3 M-2.9,21.9 L-8.5,22.3 L-12.8,22.6 M-1.9,12.1 L-6.4,10.3 L-11.2,8.6 M-1.9,-22.4 L-7.0,-24.4 L-11.2,-26.4 M0.9,10.2 L4.2,7.2 L7.2,4.2 M2.5,3.0 L6.3,6.6 L11.4,10.3 M-1.4,-13.8 L-5.4,-10.8 L-9.3,-7.9 M-3.8,-2.2 L-8.6,-2.3 L-12.1,-2.4 M-2.9,21.0 L-6.3,21.2 L-10.9,21.4 M2.9,22.2 L6.4,22.6 L11.3,23.0 M0.3,29.3 L0.6,33.1 L2.1,36.8 M0.1,-24.0 L-0.7,-28.4 L-0.2,-32.8 M-1.4,11.1 L-4.5,9.7 L-6.9,8.4 M-3.3,1.4 L-6.2,2.5 L-9.2,3.6 M2.4,-16.1 L5.6,-15.2 L9.8,-14.3 M3.7,-0.1 L9.1,0.8 L14.5,1.7 M-3.8,-0.6 L-10.7,0.1 L-16.5,0.8 M-3.6,-4.0 L-11.4,-5.7 L-18.8,-7.3 M1.2,-13.5 L4.6,-9.1 L9.1,-4.8 M-2.8,22.9 L-6.1,23.4 L-10.5,23.9 M2.5,-16.4 L7.3,-15.7 L10.8,-15.0 M-0.1,4.5 L0.7,11.9 L0.2,19.3 M-2.1,12.7 L-5.4,11.8 L-8.1,11.0 M0.7,-8.1 L4.1,-15.0 L6.3,-21.9 M-0.6,-8.1 L-3.2,-15.1 L-5.1,-22.1 M-2.9,21.2 L-7.4,21.4 L-11.1,21.6 M-2.9,17.0 L-5.2,16.7 L-8.5,16.4 M-2.8,16.6 L-6.3,16.2 L-9.9,15.9 M-3.0,2.1 L-7.5,3.7 L-10.7,5.3 M-2.8,22.9 L-6.8,23.5 L-11.7,24.0 M0.6,10.0 L3.0,7.6 L4.6,5.2 M3.0,-5.8 L6.0,-7.8 L10.1,-9.7 M2.2,-15.2 L9.3,-12.8 L15.9,-10.5 M-3.8,-0.5 L-9.0,0.1 L-13.0,0.6 M-2.0,3.5 L-3.8,6.2 L-6.7,8.9 M2.4,13.9 L6.2,13.4 L8.9,12.8 M2.5,24.6 L5.7,25.1 L8.5,25.7 M-2.0,-7.3 L-6.2,-12.4 L-11.3,-17.4 M-0.0,29.4 L-0.1,33.1 L-0.2,36.9 M-1.8,27.4 L-6.7,29.2 L-11.3,31.1 M0.3,-8.2 L2.3,-15.7 L3.1,-23.1 M3.7,-3.4 L8.1,-4.3 L13.5,-5.1 M3.8,-2.9 L7.8,-3.3 L11.3,-3.6 M-1.0,4.3 L-3.3,10.1 L-6.0,15.9 M0.8,29.0 L4.6,32.3 L7.4,35.5 M1.9,27.0 L5.6,28.5 L10.0,30.0 M3.7,-0.2 L6.9,0.2 L9.7,0.6 M0.7,-8.1 L1.9,-13.8 L3.7,-19.5 M1.6,3.9 L6.1,8.7 L9.6,13.6 M3.4,-4.8 L8.2,-6.6 L13.6,-8.3 M2.2,3.3 L7.9,7.4 L12.7,11.5 M-3.8,-1.8 L-8.7,-1.8 L-13.5,-1.8 M2.8,22.8 L7.3,23.3 L12.3,23.8 M1.9,-8.9 L12.0,-18.8 L12.6,-32.3 L9.3,-35.1 M-1.9,-8.9 L-12.0,-18.8 L-12.6,-32.3 L-9.3,-35.1 M4.4,-11.4 L5.9,-9.5 M-4.4,-11.4 L-5.9,-9.5 M6.9,-13.9 L8.1,-12.5 M-6.9,-13.9 L-8.1,-12.5 M9.5,-16.3 L10.7,-14.9 M-9.5,-16.3 L-10.7,-14.9 M1.9,-1.9 L15.2,0.1 L25.3,8.5 L29.5,7.6 M-1.9,-1.9 L-15.2,0.1 L-25.3,8.5 L-29.5,7.6 M5.2,-1.4 L4.9,0.5 M-5.2,-1.4 L-4.9,0.5 M8.5,-0.9 L8.1,2.2 M-8.5,-0.9 L-8.1,2.2 M11.8,-0.4 L11.5,1.9 M-11.8,-0.4 L-11.5,1.9 M1.9,5.1 L5.8,17.3 L3.2,28.6 L5.5,31.5 M-1.9,5.1 L-5.8,17.3 L-3.2,28.6 L-5.5,31.5 M2.8,8.2 L1.2,9.0 M-2.8,8.2 L-1.2,9.0 M3.8,11.2 L2.0,12.1 M-3.8,11.2 L-2.0,12.1 M4.8,14.3 L3.2,15.0 M-4.8,14.3 L-3.2,15.0"/><path fill="none" stroke-width="0.9" d="M2.8,-24.0 L4.8,-28.9 L6.9,-33.4 L8.9,-37.8 L10.9,-42.1 L12.9,-46.1 L15.0,-50.1 L17.1,-54.0 L19.3,-57.8 L21.5,-61.5 L23.8,-65.2 L26.1,-69.0 L28.5,-72.8 L31.1,-76.6 L33.7,-80.5 L36.5,-84.5 L39.4,-88.7 L42.4,-93.0 L45.6,-97.5 L48.9,-102.2 L52.4,-107.2 M-2.8,-24.0 L-4.8,-28.9 L-6.9,-33.4 L-8.9,-37.8 L-10.9,-42.1 L-12.9,-46.1 L-15.0,-50.1 L-17.1,-54.0 L-19.3,-57.8 L-21.5,-61.5 L-23.8,-65.2 L-26.1,-69.0 L-28.5,-72.8 L-31.1,-76.6 L-33.7,-80.5 L-36.5,-84.5 L-39.4,-88.7 L-42.4,-93.0 L-45.6,-97.5 L-48.9,-102.2 L-52.4,-107.2 M5.8,-36.6 L6.9,-33.4 L7.9,-31.4 M-5.8,-36.6 L-6.9,-33.4 L-7.9,-31.4 M7.3,-41.0 L8.9,-37.8 L10.4,-35.8 M-7.3,-41.0 L-8.9,-37.8 L-10.4,-35.8 M8.9,-45.2 L10.9,-42.1 L12.9,-40.0 M-8.9,-45.2 L-10.9,-42.1 L-12.9,-40.0 M10.5,-49.3 L12.9,-46.1 L15.4,-44.1 M-10.5,-49.3 L-12.9,-46.1 L-15.4,-44.1 M12.2,-53.3 L15.0,-50.1 L17.8,-48.0 M-12.2,-53.3 L-15.0,-50.1 L-17.8,-48.0 M14.0,-57.1 L17.1,-54.0 L20.2,-51.9 M-14.0,-57.1 L-17.1,-54.0 L-20.2,-51.9 M16.0,-60.9 L19.3,-57.8 L22.6,-55.7 M-16.0,-60.9 L-19.3,-57.8 L-22.6,-55.7 M18.1,-64.7 L21.5,-61.5 L24.9,-59.5 M-18.1,-64.7 L-21.5,-61.5 L-24.9,-59.5 M20.3,-68.4 L23.8,-65.2 L27.2,-63.2 M-20.3,-68.4 L-23.8,-65.2 L-27.2,-63.2 M22.7,-72.2 L26.1,-69.0 L29.5,-66.9 M-22.7,-72.2 L-26.1,-69.0 L-29.5,-66.9 M25.3,-75.9 L28.5,-72.8 L31.8,-70.7 M-25.3,-75.9 L-28.5,-72.8 L-31.8,-70.7 M28.0,-79.8 L31.1,-76.6 L34.2,-74.5 M-28.0,-79.8 L-31.1,-76.6 L-34.2,-74.5 M30.9,-83.7 L33.7,-80.5 L36.5,-78.5 M-30.9,-83.7 L-33.7,-80.5 L-36.5,-78.5 M34.1,-87.7 L36.5,-84.5 L38.9,-82.5 M-34.1,-87.7 L-36.5,-84.5 L-38.9,-82.5 M37.4,-91.9 L39.4,-88.7 L41.4,-86.6 M-37.4,-91.9 L-39.4,-88.7 L-41.4,-86.6 M40.9,-96.2 L42.4,-93.0 L44.0,-91.0 M-40.9,-96.2 L-42.4,-93.0 L-44.0,-91.0 M44.5,-100.7 L45.6,-97.5 L46.7,-95.5 M-44.5,-100.7 L-45.6,-97.5 L-46.7,-95.5"/><path fill="#2b2f2a" stroke-width="1.1" d="M2.3,0.0 L2.7,1.1 L3.1,2.2 L3.4,3.3 L3.8,4.4 L4.2,5.5 L4.5,6.6 L4.8,7.6 L5.1,8.7 L5.3,9.8 L5.5,10.9 L5.7,12.0 L5.8,13.1 L5.9,14.2 L5.9,15.2 L5.9,16.3 L5.9,17.4 L5.8,18.5 L5.7,19.6 L5.5,20.7 L5.3,21.8 L5.1,22.9 L4.8,23.9 L4.5,25.0 L4.2,26.1 L3.9,27.2 L3.5,28.3 L3.1,29.4 L2.7,30.5 L2.3,31.5 L1.9,32.6 L1.5,33.7 L1.2,34.8 L0.8,35.9 L0.5,37.0 L0.2,38.1 L0.0,39.1 L-0.0,39.1 L-0.2,38.1 L-0.5,37.0 L-0.8,35.9 L-1.2,34.8 L-1.5,33.7 L-1.9,32.6 L-2.3,31.5 L-2.7,30.5 L-3.1,29.4 L-3.5,28.3 L-3.9,27.2 L-4.2,26.1 L-4.5,25.0 L-4.8,23.9 L-5.1,22.9 L-5.3,21.8 L-5.5,20.7 L-5.7,19.6 L-5.8,18.5 L-5.9,17.4 L-5.9,16.3 L-5.9,15.2 L-5.9,14.2 L-5.8,13.1 L-5.7,12.0 L-5.5,10.9 L-5.3,9.8 L-5.1,8.7 L-4.8,7.6 L-4.5,6.6 L-4.2,5.5 L-3.8,4.4 L-3.4,3.3 L-3.1,2.2 L-2.7,1.1 L-2.3,0.0 L2.3,0.0 M7.7,-1.9 L7.7,-0.6 L7.5,0.6 L7.4,1.8 L7.1,3.0 L6.8,4.1 L6.4,5.2 L5.9,6.2 L5.4,7.1 L4.9,8.0 L4.3,8.7 L3.6,9.4 L2.9,9.9 L2.2,10.3 L1.5,10.6 L0.8,10.8 L0.0,10.9 L-0.8,10.8 L-1.5,10.6 L-2.2,10.3 L-2.9,9.9 L-3.6,9.4 L-4.3,8.7 L-4.9,8.0 L-5.4,7.1 L-5.9,6.2 L-6.4,5.2 L-6.8,4.1 L-7.1,3.0 L-7.4,1.8 L-7.5,0.6 L-7.7,-0.6 L-7.7,-1.9 L-7.7,-3.1 L-7.5,-4.3 L-7.4,-5.6 L-7.1,-6.7 L-6.8,-7.9 L-6.4,-8.9 L-5.9,-9.9 L-5.4,-10.9 L-4.9,-11.7 L-4.3,-12.4 L-3.6,-13.1 L-2.9,-13.6 L-2.2,-14.0 L-1.5,-14.3 L-0.8,-14.5 L-0.0,-14.6 L0.8,-14.5 L1.5,-14.3 L2.2,-14.0 L2.9,-13.6 L3.6,-13.1 L4.3,-12.4 L4.9,-11.7 L5.4,-10.9 L5.9,-9.9 L6.4,-8.9 L6.8,-7.9 L7.1,-6.7 L7.4,-5.6 L7.5,-4.3 L7.7,-3.1 L7.7,-1.9 M5.3,-18.5 L5.3,-17.4 L5.2,-16.3 L5.1,-15.3 L4.9,-14.2 L4.7,-13.2 L4.4,-12.3 L4.1,-11.4 L3.8,-10.6 L3.4,-9.9 L3.0,-9.2 L2.5,-8.7 L2.0,-8.2 L1.6,-7.8 L1.0,-7.6 L0.5,-7.4 L0.0,-7.3 L-0.5,-7.4 L-1.0,-7.6 L-1.6,-7.8 L-2.0,-8.2 L-2.5,-8.7 L-3.0,-9.2 L-3.4,-9.9 L-3.8,-10.6 L-4.1,-11.4 L-4.4,-12.3 L-4.7,-13.2 L-4.9,-14.2 L-5.1,-15.3 L-5.2,-16.3 L-5.3,-17.4 L-5.3,-18.5 L-5.3,-19.6 L-5.2,-20.7 L-5.1,-21.7 L-4.9,-22.7 L-4.7,-23.7 L-4.4,-24.7 L-4.1,-25.5 L-3.8,-26.4 L-3.4,-27.1 L-3.0,-27.7 L-2.5,-28.3 L-2.0,-28.8 L-1.6,-29.1 L-1.0,-29.4 L-0.5,-29.6 L-0.0,-29.6 L0.5,-29.6 L1.0,-29.4 L1.6,-29.1 L2.0,-28.8 L2.5,-28.3 L3.0,-27.7 L3.4,-27.1 L3.8,-26.4 L4.1,-25.5 L4.4,-24.7 L4.7,-23.7 L4.9,-22.7 L5.1,-21.7 L5.2,-20.7 L5.3,-19.6 L5.3,-18.5 M8.1,-19.8 L7.9,-18.8 L7.6,-17.9 L7.0,-17.1 L6.3,-16.5 L5.5,-16.1 L4.5,-15.9 L3.6,-16.1 L2.8,-16.5 L2.0,-17.1 L1.5,-17.9 L1.1,-18.8 L1.0,-19.8 L1.1,-20.8 L1.5,-21.8 L2.0,-22.6 L2.8,-23.2 L3.6,-23.6 L4.5,-23.7 L5.5,-23.6 L6.3,-23.2 L7.0,-22.6 L7.6,-21.8 L7.9,-20.8 L8.1,-19.8 M-1.0,-19.8 L-1.1,-18.8 L-1.5,-17.9 L-2.0,-17.1 L-2.8,-16.5 L-3.6,-16.1 L-4.5,-15.9 L-5.5,-16.1 L-6.3,-16.5 L-7.0,-17.1 L-7.6,-17.9 L-7.9,-18.8 L-8.1,-19.8 L-7.9,-20.8 L-7.6,-21.8 L-7.0,-22.6 L-6.3,-23.2 L-5.5,-23.6 L-4.5,-23.7 L-3.6,-23.6 L-2.8,-23.2 L-2.0,-22.6 L-1.5,-21.8 L-1.1,-20.8 L-1.0,-19.8"/><path fill="none" stroke="#9ba18e" stroke-width="0.5" opacity="0.62" d="M-3.5,5.1 L0.0,6.5 L3.5,5.1 M-4.7,10.7 L0.0,12.1 L4.7,10.7 M-5.0,16.2 L0.0,17.6 L5.0,16.2 M-4.4,21.8 L0.0,23.2 L4.4,21.8 M-3.0,27.4 L0.0,28.8 L3.0,27.4 M-1.3,33.0 L0.0,34.4 L1.3,33.0 M3.3,-21.1 L4.9,-21.8 M-5.7,-21.1 L-4.2,-21.8"/></g></svg>