<svg xmlns="http://www.w3.org/2000/svg" viewBox="0 0 380 320" role="img" aria-label="나방 tailed 표본"><rect width="100%" height="100%" fill="#f9f7f0"/><g transform="translate(190 160)" stroke="#292d29" stroke-width="1.1" stroke-linejoin="round" stroke-linecap="round"><style>@keyframes k0{0%,0.000%{stroke-dashoffset:var(--d);fill-opacity:0}0.903%{stroke-dashoffset:0;fill-opacity:0}2.403%,100%{stroke-dashoffset:0;fill-opacity:1}}@keyframes k1{0%,0.903%{stroke-dashoffset:var(--d);fill-opacity:0}1.806%{stroke-dashoffset:0;fill-opacity:0}3.306%,100%{stroke-dashoffset:0;fill-opacity:1}}@keyframes k2{0%,1.806%{stroke-dashoffset:var(--d);fill-opacity:0}2.708%{stroke-dashoffset:0;fill-opacity:0}4.208%,100%{stroke-dashoffset:0;fill-opacity:1}}@keyframes k3{0%,2.708%{stroke-dashoffset:var(--d);fill-opacity:0}3.611%{stroke-dashoffset:0;fill-opacity:0}5.111%,100%{stroke-dashoffset:0;fill-opacity:1}}@keyframes k4{0%,3.611%{stroke-dashoffset:var(--d);fill-opacity:0}4.514%{stroke-dashoffset:0;fill-opacity:0}6.014%,100%{stroke-dashoffset:0;fill-opacity:1}}@keyframes k5{0%,4.514%{stroke-dashoffset:var(--d);fill-opacity:0}5.417%{stroke-dashoffset:0;fill-opacity:0}6.917%,100%{stroke-dashoffset:0;fill-opacity:1}}@keyframes k6{0%,5.417%{stroke-dashoffset:var(--d);fill-opacity:0}6.319%{stroke-dashoffset:0;fill-opacity:0}7.819%,100%{stroke-dashoffset:0;fill-opacity:1}}@keyframes k7{0%,6.319%{stroke-dashoffset:var(--d);fill-opacity:0}7.222%{stroke-dashoffset:0;fill-opacity:0}8.722%,100%{stroke-dashoffset:0;fill-opacity:1}}@keyframes k8{0%,7.222%{stroke-dashoffset:var(--d);fill-opacity:0}8.125%{stroke-dashoffset:0;fill-opacity:0}9.625%,100%{stroke-dashoffset:0;fill-opacity:1}}@keyframes k9{0%,8.125%{stroke-dashoffset:var(--d);fill-opacity:0}9.028%{stroke-dashoffset:0;fill-opacity:0}10.528%,100%{stroke-dashoffset:0;fill-opacity:1}}@keyframes k10{0%,9.028%{stroke-dashoffset:var(--d);fill-opacity:0}9.931%{stroke-dashoffset:0;fill-opacity:0}11.431%,100%{stroke-dashoffset:0;fill-opacity:1}}@keyframes k11{0%,9.931%{stroke-dashoffset:var(--d);fill-opacity:0}10.833%{stroke-dashoffset:0;fill-opacity:0}12.333%,100%{stroke-dashoffset:0;fill-opacity:1}}@keyframes k12{0%,10.833%{stroke-dashoffset:var(--d);fill-opacity:0}11.736%{stroke-dashoffset:0;fill-opacity:0}13.236%,100%{stroke-dashoffset:0;fill-opacity:1}}@keyframes k13{0%,11.736%{stroke-dashoffset:var(--d);fill-opacity:0}12.639%{stroke-dashoffset:0;fill-opacity:0}14.139%,100%{stroke-dashoffset:0;fill-opacity:1}}@keyframes k14{0%,12.639%{stroke-dashoffset:var(--d);fill-opacity:0}13.542%{stroke-dashoffset:0;fill-opacity:0}15.042%,100%{stroke-dashoffset:0;fill-opacity:1}}@keyframes k15{0%,13.542%{stroke-dashoffset:var(--d);fill-opacity:0}14.444%{stroke-dashoffset:0;fill-opacity:0}15.944%,100%{stroke-dashoffset:0;fill-opacity:1}}@keyframes k16{0%,14.444%{stroke-dashoffset:var(--d);fill-opacity:0}15.347%{stroke-dashoffset:0;fill-opacity:0}16.847%,100%{stroke-dashoffset:0;fill-opacity:1}}@keyframes k17{0%,15.347%{stroke-dashoffset:var(--d);fill-opacity:0}16.250%{stroke-dashoffset:0;fill-opacity:0}17.750%,100%{stroke-dashoffset:0;fill-opacity:1}}@keyframes k18{0%,16.250%{stroke-dashoffset:var(--d);fill-opacity:0}17.153%{stroke-dashoffset:0;fill-opacity:0}18.653%,100%{stroke-dashoffset:0;fill-opacity:1}}@keyframes k19{0%,17.153%{stroke-dashoffset:var(--d);fill-opacity:0}18.056%{stroke-dashoffset:0;fill-opacity:0}19.556%,100%{stroke-dashoffset:0;fill-opacity:1}}@keyframes k20{0%,18.056%{stroke-dashoffset:var(--d);fill-opacity:0}18.958%{stroke-dashoffset:0;fill-opacity:0}20.458%,100%{stroke-dashoffset:0;fill-opacity:1}}@keyframes k21{0%,18.958%{stroke-dashoffset:var(--d);fill-opacity:0}19.861%{stroke-dashoffset:0;fill-opacity:0}21.361%,100%{stroke-dashoffset:0;fill-opacity:1}}@keyframes k22{0%,19.861%{stroke-dashoffset:var(--d);fill-opacity:0}20.764%{stroke-dashoffset:0;fill-opacity:0}22.264%,100%{stroke-dashoffset:0;fill-opacity:1}}@keyframes k23{0%,20.764%{stroke-dashoffset:var(--d);fill-opacity:0}21.667%{stroke-dashoffset:0;fill-opacity:0}23.167%,100%{stroke-dashoffset:0;fill-opacity:1}}@keyframes k24{0%,21.667%{stroke-dashoffset:var(--d);fill-opacity:0}22.569%{stroke-dashoffset:0;fill-opacity:0}24.069%,100%{stroke-dashoffset:0;fill-opacity:1}}@keyframes k25{0%,22.569%{stroke-dashoffset:var(--d);fill-opacity:0}23.472%{stroke-dashoffset:0;fill-opacity:0}24.972%,100%{stroke-dashoffset:0;fill-opacity:1}}@keyframes k26{0%,23.472%{stroke-dashoffset:var(--d);fill-opacity:0}24.375%{stroke-dashoffset:0;fill-opacity:0}25.875%,100%{stroke-dashoffset:0;fill-opacity:1}}@keyframes k27{0%,24.375%{stroke-dashoffset:var(--d);fill-opacity:0}25.278%{stroke-dashoffset:0;fill-opacity:0}26.778%,100%{stroke-dashoffset:0;fill-opacity:1}}@keyframes k28{0%,25.278%{stroke-dashoffset:var(--d);fill-opacity:0}26.181%{stroke-dashoffset:0;fill-opacity:0}27.681%,100%{stroke-dashoffset:0;fill-opacity:1}}@keyframes k29{0%,26.181%{stroke-dashoffset:var(--d);fill-opacity:0}27.083%{stroke-dashoffset:0;fill-opacity:0}28.583%,100%{stroke-dashoffset:0;fill-opacity:1}}@keyframes k30{0%,27.083%{stroke-dashoffset:var(--d);fill-opacity:0}27.986%{stroke-dashoffset:0;fill-opacity:0}29.486%,100%{stroke-dashoffset:0;fill-opacity:1}}@keyframes k31{0%,27.986%{stroke-dashoffset:var(--d);fill-opacity:0}28.889%{stroke-dashoffset:0;fill-opacity:0}30.389%,100%{stroke-dashoffset:0;fill-opacity:1}}@keyframes k32{0%,28.889%{stroke-dashoffset:var(--d);fill-opacity:0}29.792%{stroke-dashoffset:0;fill-opacity:0}31.292%,100%{stroke-dashoffset:0;fill-opacity:1}}@keyframes k33{0%,29.792%{stroke-dashoffset:var(--d);fill-opacity:0}30.694%{stroke-dashoffset:0;fill-opacity:0}32.194%,100%{stroke-dashoffset:0;fill-opacity:1}}@keyframes k34{0%,30.694%{stroke-dashoffset:var(--d);fill-opacity:0}31.597%{stroke-dashoffset:0;fill-opacity:0}33.097%,100%{stroke-dashoffset:0;fill-opacity:1}}@keyframes k35{0%,31.597%{stroke-dashoffset:var(--d);fill-opacity:0}32.500%{stroke-dashoffset:0;fill-opacity:0}34.000%,100%{stroke-dashoffset:0;fill-opacity:1}}@keyframes k36{0%,32.500%{stroke-dashoffset:var(--d);fill-opacity:0}33.403%{stroke-dashoffset:0;fill-opacity:0}34.903%,100%{stroke-dashoffset:0;fill-opacity:1}}@keyframes k37{0%,33.403%{stroke-dashoffset:var(--d);fill-opacity:0}34.306%{stroke-dashoffset:0;fill-opacity:0}35.806%,100%{stroke-dashoffset:0;fill-opacity:1}}@keyframes k38{0%,34.306%{stroke-dashoffset:var(--d);fill-opacity:0}35.208%{stroke-dashoffset:0;fill-opacity:0}36.708%,100%{stroke-dashoffset:0;fill-opacity:1}}@keyframes k39{0%,35.208%{stroke-dashoffset:var(--d);fill-opacity:0}36.111%{stroke-dashoffset:0;fill-opacity:0}37.611%,100%{stroke-dashoffset:0;fill-opacity:1}}@keyframes k40{0%,36.111%{stroke-dashoffset:var(--d);fill-opacity:0}37.014%{stroke-dashoffset:0;fill-opacity:0}38.514%,100%{stroke-dashoffset:0;fill-opacity:1}}@keyframes k41{0%,37.014%{stroke-dashoffset:var(--d);fill-opacity:0}37.917%{stroke-dashoffset:0;fill-opacity:0}39.417%,100%{stroke-dashoffset:0;fill-opacity:1}}@keyframes k42{0%,37.917%{stroke-dashoffset:var(--d);fill-opacity:0}38.819%{stroke-dashoffset:0;fill-opacity:0}40.319%,100%{stroke-dashoffset:0;fill-opacity:1}}@keyframes k43{0%,38.819%{stroke-dashoffset:var(--d);fill-opacity:0}39.722%{stroke-dashoffset:0;fill-opacity:0}41.222%,100%{stroke-dashoffset:0;fill-opacity:1}}@keyframes k44{0%,39.722%{stroke-dashoffset:var(--d);fill-opacity:0}40.625%{stroke-dashoffset:0;fill-opacity:0}42.125%,100%{stroke-dashoffset:0;fill-opacity:1}}@keyframes k45{0%,40.625%{stroke-dashoffset:var(--d);fill-opacity:0}41.528%{stroke-dashoffset:0;fill-opacity:0}43.028%,100%{stroke-dashoffset:0;fill-opacity:1}}@keyframes k46{0%,41.528%{stroke-dashoffset:var(--d);fill-opacity:0}42.431%{stroke-dashoffset:0;fill-opacity:0}43.931%,100%{stroke-dashoffset:0;fill-opacity:1}}@keyframes k47{0%,42.431%{stroke-dashoffset:var(--d);fill-opacity:0}43.333%{stroke-dashoffset:0;fill-opacity:0}44.833%,100%{stroke-dashoffset:0;fill-opacity:1}}@keyframes k48{0%,43.333%{stroke-dashoffset:var(--d);fill-opacity:0}44.236%{stroke-dashoffset:0;fill-opacity:0}45.736%,100%{stroke-dashoffset:0;fill-opacity:1}}@keyframes k49{0%,44.236%{stroke-dashoffset:var(--d);fill-opacity:0}45.139%{stroke-dashoffset:0;fill-opacity:0}46.639%,100%{stroke-dashoffset:0;fill-opacity:1}}@keyframes k50{0%,45.139%{stroke-dashoffset:var(--d);fill-opacity:0}46.042%{stroke-dashoffset:0;fill-opacity:0}47.542%,100%{stroke-dashoffset:0;fill-opacity:1}}@keyframes k51{0%,46.042%{stroke-dashoffset:var(--d);fill-opacity:0}46.944%{stroke-dashoffset:0;fill-opacity:0}48.444%,100%{stroke-dashoffset:0;fill-opacity:1}}@keyframes k52{0%,46.944%{stroke-dashoffset:var(--d);fill-opacity:0}47.847%{stroke-dashoffset:0;fill-opacity:0}49.347%,100%{stroke-dashoffset:0;fill-opacity:1}}@keyframes k53{0%,47.847%{stroke-dashoffset:var(--d);fill-opacity:0}48.750%{stroke-dashoffset:0;fill-opacity:0}50.250%,100%{stroke-dashoffset:0;fill-opacity:1}}@keyframes k54{0%,48.750%{stroke-dashoffset:var(--d);fill-opacity:0}49.653%{stroke-dashoffset:0;fill-opacity:0}51.153%,100%{stroke-dashoffset:0;fill-opacity:1}}@keyframes k55{0%,49.653%{stroke-dashoffset:var(--d);fill-opacity:0}50.556%{stroke-dashoffset:0;fill-opacity:0}52.056%,100%{stroke-dashoffset:0;fill-opacity:1}}@keyframes k56{0%,50.556%{stroke-dashoffset:var(--d);fill-opacity:0}51.458%{stroke-dashoffset:0;fill-opacity:0}52.958%,100%{stroke-dashoffset:0;fill-opacity:1}}@keyframes k57{0%,51.458%{stroke-dashoffset:var(--d);fill-opacity:0}52.361%{stroke-dashoffset:0;fill-opacity:0}53.861%,100%{stroke-dashoffset:0;fill-opacity:1}}@keyframes k58{0%,52.361%{stroke-dashoffset:var(--d);fill-opacity:0}53.264%{stroke-dashoffset:0;fill-opacity:0}54.764%,100%{stroke-dashoffset:0;fill-opacity:1}}@keyframes k59{0%,53.264%{stroke-dashoffset:var(--d);fill-opacity:0}54.167%{stroke-dashoffset:0;fill-opacity:0}55.667%,100%{stroke-dashoffset:0;fill-opacity:1}}@keyframes k60{0%,54.167%{stroke-dashoffset:var(--d);fill-opacity:0}55.069%{stroke-dashoffset:0;fill-opacity:0}56.569%,100%{stroke-dashoffset:0;fill-opacity:1}}@keyframes k61{0%,55.069%{stroke-dashoffset:var(--d);fill-opacity:0}55.972%{stroke-dashoffset:0;fill-opacity:0}57.472%,100%{stroke-dashoffset:0;fill-opacity:1}}@keyframes k62{0%,55.972%{stroke-dashoffset:var(--d);fill-opacity:0}56.875%{stroke-dashoffset:0;fill-opacity:0}58.375%,100%{stroke-dashoffset:0;fill-opacity:1}}@keyframes k63{0%,56.875%{stroke-dashoffset:var(--d);fill-opacity:0}57.778%{stroke-dashoffset:0;fill-opacity:0}59.278%,100%{stroke-dashoffset:0;fill-opacity:1}}@keyframes k64{0%,57.778%{stroke-dashoffset:var(--d);fill-opacity:0}58.681%{stroke-dashoffset:0;fill-opacity:0}60.181%,100%{stroke-dashoffset:0;fill-opacity:1}}@keyframes k65{0%,58.681%{stroke-dashoffset:var(--d);fill-opacity:0}59.583%{stroke-dashoffset:0;fill-opacity:0}61.083%,100%{stroke-dashoffset:0;fill-opacity:1}}@keyframes k66{0%,59.583%{stroke-dashoffset:var(--d);fill-opacity:0}60.486%{stroke-dashoffset:0;fill-opacity:0}61.986%,100%{stroke-dashoffset:0;fill-opacity:1}}@keyframes k67{0%,60.486%{stroke-dashoffset:var(--d);fill-opacity:0}61.389%{stroke-dashoffset:0;fill-opacity:0}62.889%,100%{stroke-dashoffset:0;fill-opacity:1}}@keyframes k68{0%,61.389%{stroke-dashoffset:var(--d);fill-opacity:0}62.292%{stroke-dashoffset:0;fill-opacity:0}63.792%,100%{stroke-dashoffset:0;fill-opacity:1}}@keyframes k69{0%,62.292%{stroke-dashoffset:var(--d);fill-opacity:0}63.194%{stroke-dashoffset:0;fill-opacity:0}64.694%,100%{stroke-dashoffset:0;fill-opacity:1}}@keyframes k70{0%,63.194%{stroke-dashoffset:var(--d);fill-opacity:0}64.097%{stroke-dashoffset:0;fill-opacity:0}65.597%,100%{stroke-dashoffset:0;fill-opacity:1}}@keyframes k71{0%,64.097%{stroke-dashoffset:var(--d);fill-opacity:0}65.000%{stroke-dashoffset:0;fill-opacity:0}66.500%,100%{stroke-dashoffset:0;fill-opacity:1}}@keyframes k72{0%,65.000%{stroke-dashoffset:var(--d);fill-opacity:0}65.903%{stroke-dashoffset:0;fill-opacity:0}67.403%,100%{stroke-dashoffset:0;fill-opacity:1}}@keyframes k73{0%,65.903%{stroke-dashoffset:var(--d);fill-opacity:0}66.806%{stroke-dashoffset:0;fill-opacity:0}68.306%,100%{stroke-dashoffset:0;fill-opacity:1}}@keyframes k74{0%,66.806%{stroke-dashoffset:var(--d);fill-opacity:0}67.708%{stroke-dashoffset:0;fill-opacity:0}69.208%,100%{stroke-dashoffset:0;fill-opacity:1}}@keyframes k75{0%,67.708%{stroke-dashoffset:var(--d);fill-opacity:0}68.611%{stroke-dashoffset:0;fill-opacity:0}70.111%,100%{stroke-dashoffset:0;fill-opacity:1}}@keyframes k76{0%,68.611%{stroke-dashoffset:var(--d);fill-opacity:0}69.514%{stroke-dashoffset:0;fill-opacity:0}71.014%,100%{stroke-dashoffset:0;fill-opacity:1}}@keyframes k77{0%,69.514%{stroke-dashoffset:var(--d);fill-opacity:0}70.417%{stroke-dashoffset:0;fill-opacity:0}71.917%,100%{stroke-dashoffset:0;fill-opacity:1}}@keyframes k78{0%,70.417%{stroke-dashoffset:var(--d);fill-opacity:0}71.319%{stroke-dashoffset:0;fill-opacity:0}72.819%,100%{stroke-dashoffset:0;fill-opacity:1}}@keyframes k79{0%,71.319%{stroke-dashoffset:var(--d);fill-opacity:0}72.222%{stroke-dashoffset:0;fill-opacity:0}73.722%,100%{stroke-dashoffset:0;fill-opacity:1}}</style><path fill="none" stroke-width="1.05" opacity="0.92" style="--d:273.5;stroke-dasharray:var(--d);animation:k0 9s linear infinite" d="M91.6,15.4 L92.5,15.8 L97.1,18.3 L101.7,20.9 L106.0,24.0 L109.8,28.1 L109.6,32.7 L108.7,36.4 L107.2,39.7 L105.5,42.5 L103.5,45.1 L101.1,47.2 L98.4,49.0 L95.6,50.6 L92.7,52.1 L89.7,53.4 L86.6,54.6 L83.4,55.5 L80.3,56.7 L77.4,58.4 L75.0,60.7 L72.9,63.1 L70.9,65.2 L69.0,67.1 L67.1,69.0 L65.5,71.1 L65.2,73.5 L65.0,76.3 L65.0,79.4 L65.0,82.6 L65.1,86.0 L65.5,89.4 L65.9,92.9 L66.1,96.3 L66.1,99.8 L66.1,103.1 L66.6,106.2 L67.4,109.1 L68.1,112.1 L68.2,115.0 L67.4,117.6 L65.8,119.7 L63.7,121.3 L61.3,122.5 L58.5,123.3 L54.8,123.3 L55.6,119.3 L56.1,115.5 L56.2,111.9 L56.0,108.3 L55.8,104.8 L55.5,101.4 L55.0,98.0 L53.8,95.0 L52.0,92.2 L50.0,89.8 L48.1,87.5 L46.6,85.2 L45.4,82.9 L44.3,80.6 L43.0,78.6 L41.7,76.8 L40.5,75.2 L39.4,73.7 L38.4,72.4 L37.4,71.4 L35.1,70.0 L33.0,68.5 L31.0,66.8 L29.1,65.1 L27.0,63.5 L24.7,62.2 L22.3,60.8 L20.0,59.3 L18.1,57.4 L16.4,55.2 L14.9,52.9 L13.4,50.6 L12.0,48.2 L10.6,45.8 L9.4,43.2 L8.3,40.6 L7.2,38.0 L6.1,35.2 L5.2,32.4 L4.5,29.5 L4.5,28.8 L4.5,28.0 L4.5,27.0 L4.5,26.0 L4.5,24.9 L4.5,23.8 L4.6,22.6 L4.6,21.3 L4.6,20.0 L4.6,18.6 L4.6,18.1"/><path fill="none" stroke-width="1.05" opacity="0.92" style="--d:271.3;stroke-dasharray:var(--d);animation:k2 9s linear infinite" d="M92.3,15.3 L92.6,15.5 L97.3,18.0 L101.8,20.7 L106.0,23.9 L109.8,28.1 L109.4,32.7 L108.3,36.3 L106.8,39.5 L105.1,42.3 L103.2,44.8 L100.9,46.9 L98.3,48.8 L95.5,50.4 L92.6,51.9 L89.6,53.2 L86.5,54.3 L83.2,55.2 L80.1,56.3 L77.2,58.1 L74.8,60.4 L72.8,62.9 L70.9,65.3 L69.1,67.3 L67.4,69.3 L66.0,71.3 L65.8,73.6 L65.7,76.4 L65.7,79.4 L65.7,82.6 L65.8,85.9 L66.1,89.3 L66.4,92.8 L66.4,96.3 L66.2,99.8 L66.0,103.1 L66.3,106.2 L66.9,109.3 L67.6,112.2 L67.7,114.9 L66.9,117.3 L65.5,119.4 L63.5,121.0 L61.2,122.3 L58.4,123.1 L55.0,123.2 L55.9,119.3 L56.5,115.6 L56.6,111.9 L56.5,108.3 L56.1,104.8 L55.7,101.3 L55.0,98.0 L53.6,95.1 L51.7,92.5 L49.6,90.2 L47.6,87.9 L46.1,85.5 L44.9,83.1 L43.8,80.9 L42.6,78.9 L41.4,77.1 L40.2,75.4 L39.2,73.9 L38.3,72.5 L37.4,71.3 L35.3,69.8 L33.2,68.2 L31.3,66.5 L29.3,64.8 L27.2,63.3 L24.8,62.0 L22.4,60.7 L20.1,59.2 L18.2,57.3 L16.5,55.1 L15.0,52.8 L13.6,50.5 L12.1,48.1 L10.8,45.7 L9.5,43.2 L8.3,40.6 L7.2,38.0 L6.1,35.2 L5.2,32.4 L4.5,29.5 L4.5,28.8 L4.5,28.0 L4.5,27.0 L4.5,26.0 L4.5,24.9 L4.5,23.8 L4.6,22.6 L4.6,21.3 L4.6,20.0 L4.6,18.6 L4.6,18.1"/><path fill="none" stroke-width="1.05" opacity="0.92" style="--d:273.5;stroke-dasharray:var(--d);animation:k3 9s linear infinite" d="M-91.6,15.4 L-92.5,15.8 L-97.1,18.3 L-101.7,20.9 L-106.0,24.0 L-109.8,28.1 L-109.6,32.7 L-108.7,36.4 L-107.2,39.7 L-105.5,42.5 L-103.5,45.1 L-101.1,47.2 L-98.4,49.0 L-95.6,50.6 L-92.7,52.1 L-89.7,53.4 L-86.6,54.6 L-83.4,55.5 L-80.3,56.7 L-77.4,58.4 L-75.0,60.7 L-72.9,63.1 L-70.9,65.2 L-69.0,67.1 L-67.1,69.0 L-65.5,71.1 L-65.2,73.5 L-65.0,76.3 L-65.0,79.4 L-65.0,82.6 L-65.1,86.0 L-65.5,89.4 L-65.9,92.9 L-66.1,96.3 L-66.1,99.8 L-66.1,103.1 L-66.6,106.2 L-67.4,109.1 L-68.1,112.1 L-68.2,115.0 L-67.4,117.6 L-65.8,119.7 L-63.7,121.3 L-61.3,122.5 L-58.5,123.3 L-54.8,123.3 L-55.6,119.3 L-56.1,115.5 L-56.2,111.9 L-56.0,108.3 L-55.8,104.8 L-55.5,101.4 L-55.0,98.0 L-53.8,95.0 L-52.0,92.2 L-50.0,89.8 L-48.1,87.5 L-46.6,85.2 L-45.4,82.9 L-44.3,80.6 L-43.0,78.6 L-41.7,76.8 L-40.5,75.2 L-39.4,73.7 L-38.4,72.4 L-37.4,71.4 L-35.1,70.0 L-33.0,68.5 L-31.0,66.8 L-29.1,65.1 L-27.0,63.5 L-24.7,62.2 L-22.3,60.8 L-20.0,59.3 L-18.1,57.4 L-16.4,55.2 L-14.9,52.9 L-13.4,50.6 L-12.0,48.2 L-10.6,45.8 L-9.4,43.2 L-8.3,40.6 L-7.2,38.0 L-6.1,35.2 L-5.2,32.4 L-4.5,29.5 L-4.5,28.8 L-4.5,28.0 L-4.5,27.0 L-4.5,26.0 L-4.5,24.9 L-4.5,23.8 L-4.6,22.6 L-4.6,21.3 L-4.6,20.0 L-4.6,18.6 L-4.6,18.1"/><path fill="none" stroke-width="1.05" opacity="0.92" style="--d:268.2;stroke-dasharray:var(--d);animation:k5 9s linear infinite" d="M-93.0,15.3 L-97.4,17.8 L-101.8,20.6 L-105.9,24.1 L-109.4,28.3 L-108.8,32.6 L-107.6,36.0 L-106.1,39.1 L-104.5,41.8 L-102.7,44.3 L-100.5,46.5 L-98.0,48.4 L-95.3,50.1 L-92.5,51.7 L-89.6,53.2 L-86.5,54.4 L-83.3,55.5 L-80.3,56.8 L-77.6,58.7 L-75.3,61.0 L-73.3,63.4 L-71.4,65.7 L-69.4,67.6 L-67.6,69.4 L-66.1,71.4 L-65.8,73.6 L-65.8,76.4 L-66.0,79.4 L-66.1,82.6 L-66.3,85.9 L-66.6,89.3 L-66.7,92.8 L-66.5,96.3 L-65.9,99.8 L-65.4,103.1 L-65.4,106.4 L-66.0,109.5 L-66.6,112.3 L-66.7,114.8 L-66.2,117.0 L-65.0,118.9 L-63.2,120.6 L-61.1,121.9 L-58.4,122.8 L-55.1,123.1 L-55.8,119.3 L-56.1,115.5 L-56.1,111.9 L-55.7,108.3 L-55.4,104.8 L-55.0,101.4 L-54.4,98.2 L-53.3,95.2 L-51.6,92.6 L-49.5,90.2 L-47.6,87.9 L-46.0,85.6 L-44.7,83.3 L-43.4,81.1 L-42.2,79.2 L-41.0,77.4 L-40.0,75.6 L-39.2,73.9 L-38.5,72.3 L-37.7,71.0 L-35.6,69.3 L-33.7,67.7 L-31.7,66.0 L-29.7,64.3 L-27.4,62.8 L-25.0,61.6 L-22.5,60.4 L-20.3,59.0 L-18.3,57.2 L-16.6,55.1 L-15.0,52.8 L-13.4,50.6 L-11.9,48.2 L-10.5,45.8 L-9.3,43.3 L-8.1,40.7 L-7.1,38.0 L-6.1,35.2 L-5.2,32.4 L-4.5,29.5 L-4.5,28.8 L-4.5,28.0 L-4.5,27.0 L-4.5,26.0 L-4.5,24.9 L-4.5,23.8 L-4.6,22.6 L-4.6,21.3 L-4.6,20.0 L-4.6,18.6 L-4.6,18.1"/><path fill="none" stroke-width="1.05" opacity="0.92" style="--d:353.4;stroke-dasharray:var(--d);animation:k7 9s linear infinite" d="M4.5,-16.6 L10.0,-17.9 L16.0,-19.3 L22.5,-20.7 L29.3,-22.4 L36.3,-24.5 L43.5,-26.8 L50.8,-29.5 L58.2,-32.3 L65.8,-34.8 L73.4,-36.8 L81.1,-38.8 L88.5,-41.2 L95.8,-43.5 L102.9,-45.3 L109.9,-46.4 L116.5,-47.6 L122.6,-48.9 L128.2,-50.3 L133.3,-51.6 L137.8,-53.0 L138.1,-48.6 L137.8,-44.1 L136.7,-39.7 L135.2,-35.3 L134.1,-30.8 L133.2,-26.1 L131.7,-21.7 L129.4,-17.5 L126.9,-13.6 L124.7,-9.7 L122.6,-5.8 L120.4,-2.0 L118.1,1.8 L115.6,5.6 L112.4,9.0 L108.4,11.3 L103.7,12.7 L98.9,14.0 L93.8,15.2 L88.3,15.7 L83.6,16.8 L78.7,17.5 L73.8,18.5 L69.0,19.7 L64.2,21.1 L59.5,22.5 L54.7,24.0 L50.0,25.2 L45.2,25.8 L40.6,25.7 L36.0,25.5 L31.6,25.5 L27.4,25.4 L23.3,24.7 L19.6,23.8 L16.1,22.8 L12.7,21.9 L9.6,21.1 L6.9,19.7 L4.5,18.0 L4.3,16.8 L4.2,15.3 L4.1,13.7 L4.0,12.0 L3.9,10.2 L3.8,8.3 L3.8,6.4 L3.7,4.3 L3.7,2.3 L3.7,0.3 L3.7,-1.8 L3.7,-3.8 L3.8,-5.7 L3.8,-7.6 L3.9,-9.4 L4.0,-11.2 L4.1,-12.8 L4.2,-14.2 L4.3,-15.5 L4.5,-16.6"/><path fill="none" stroke-width="1.05" opacity="0.92" style="--d:352.8;stroke-dasharray:var(--d);animation:k9 9s linear infinite" d="M4.5,-16.6 L10.0,-17.9 L16.0,-19.3 L22.5,-20.6 L29.4,-22.3 L36.4,-24.3 L43.5,-26.8 L50.7,-29.7 L58.1,-32.7 L65.6,-35.3 L73.3,-37.3 L81.0,-39.3 L88.4,-41.4 L95.8,-43.4 L103.0,-44.8 L110.0,-45.8 L116.6,-47.0 L122.7,-48.6 L128.3,-50.1 L133.4,-51.3 L137.6,-52.6 L137.8,-48.6 L137.9,-44.1 L137.1,-39.6 L135.9,-35.1 L134.9,-30.6 L133.9,-25.9 L132.3,-21.4 L129.7,-17.4 L126.7,-13.7 L124.1,-10.0 L121.9,-6.2 L119.9,-2.3 L117.8,1.7 L115.4,5.5 L112.2,8.7 L108.2,10.9 L103.7,12.5 L99.0,14.0 L93.9,15.6 L88.4,16.4 L83.7,17.5 L78.8,18.2 L73.9,19.0 L69.1,20.0 L64.2,20.9 L59.3,22.0 L54.6,23.4 L49.9,24.8 L45.2,25.6 L40.6,25.5 L36.0,25.3 L31.6,25.2 L27.4,25.2 L23.3,24.8 L19.5,24.0 L16.0,23.1 L12.7,22.1 L9.6,21.1 L6.9,19.7 L4.5,18.0 L4.3,16.8 L4.2,15.3 L4.1,13.7 L4.0,12.0 L3.9,10.2 L3.8,8.3 L3.8,6.4 L3.7,4.3 L3.7,2.3 L3.7,0.3 L3.7,-1.8 L3.7,-3.8 L3.8,-5.7 L3.8,-7.6 L3.9,-9.4 L4.0,-11.2 L4.1,-12.8 L4.2,-14.2 L4.3,-15.5 L4.5,-16.6"/><path fill="none" stroke-width="1.05" opacity="0.92" style="--d:353.4;stroke-dasharray:var(--d);animation:k11 9s linear infinite" d="M-4.5,-16.6 L-10.0,-17.9 L-16.0,-19.3 L-22.5,-20.7 L-29.3,-22.4 L-36.3,-24.5 L-43.5,-26.8 L-50.8,-29.5 L-58.2,-32.3 L-65.8,-34.8 L-73.4,-36.8 L-81.1,-38.8 L-88.5,-41.2 L-95.8,-43.5 L-102.9,-45.3 L-109.9,-46.4 L-116.5,-47.6 L-122.6,-48.9 L-128.2,-50.3 L-133.3,-51.6 L-137.8,-53.0 L-138.1,-48.6 L-137.8,-44.1 L-136.7,-39.7 L-135.2,-35.3 L-134.1,-30.8 L-133.2,-26.1 L-131.7,-21.7 L-129.4,-17.5 L-126.9,-13.6 L-124.7,-9.7 L-122.6,-5.8 L-120.4,-2.0 L-118.1,1.8 L-115.6,5.6 L-112.4,9.0 L-108.4,11.3 L-103.7,12.7 L-98.9,14.0 L-93.8,15.2 L-88.3,15.7 L-83.6,16.8 L-78.7,17.5 L-73.8,18.5 L-69.0,19.7 L-64.2,21.1 L-59.5,22.5 L-54.7,24.0 L-50.0,25.2 L-45.2,25.8 L-40.6,25.7 L-36.0,25.5 L-31.6,25.5 L-27.4,25.4 L-23.3,24.7 L-19.6,23.8 L-16.1,22.8 L-12.7,21.9 L-9.6,21.1 L-6.9,19.7 L-4.5,18.0 L-4.3,16.8 L-4.2,15.3 L-4.1,13.7 L-4.0,12.0 L-3.9,10.2 L-3.8,8.3 L-3.8,6.4 L-3.7,4.3 L-3.7,2.3 L-3.7,0.3 L-3.7,-1.8 L-3.7,-3.8 L-3.8,-5.7 L-3.8,-7.6 L-3.9,-9.4 L-4.0,-11.2 L-4.1,-12.8 L-4.2,-14.2 L-4.3,-15.5 L-4.5,-16.6"/><path fill="none" stroke-width="1.05" opacity="0.92" style="--d:354.1;stroke-dasharray:var(--d);animation:k13 9s linear infinite" d="M-4.5,-16.6 L-10.0,-17.9 L-16.0,-19.3 L-22.5,-20.6 L-29.4,-22.2 L-36.4,-24.1 L-43.7,-26.3 L-51.1,-28.8 L-58.4,-31.6 L-65.9,-34.2 L-73.5,-36.5 L-81.1,-38.8 L-88.5,-41.4 L-95.6,-43.9 L-102.8,-45.9 L-109.8,-47.2 L-116.3,-48.5 L-122.4,-49.9 L-128.0,-51.4 L-133.0,-52.6 L-138.3,-53.7 L-138.6,-48.6 L-138.0,-44.1 L-136.5,-39.8 L-134.8,-35.4 L-133.6,-30.9 L-132.8,-26.2 L-131.4,-21.8 L-129.2,-17.6 L-126.7,-13.7 L-124.3,-9.9 L-121.9,-6.1 L-119.5,-2.5 L-117.1,1.2 L-114.6,4.9 L-111.8,8.1 L-108.1,10.6 L-103.6,12.4 L-98.9,14.0 L-93.9,15.5 L-88.4,16.3 L-83.7,17.5 L-78.8,18.4 L-74.0,19.4 L-69.3,20.7 L-64.5,22.0 L-59.7,23.3 L-54.9,24.6 L-50.1,25.6 L-45.3,25.8 L-40.6,25.5 L-36.0,25.2 L-31.6,25.2 L-27.4,25.2 L-23.4,24.6 L-19.6,23.7 L-16.1,22.7 L-12.8,21.8 L-9.6,21.1 L-6.9,19.7 L-4.5,18.0 L-4.3,16.8 L-4.2,15.3 L-4.1,13.7 L-4.0,12.0 L-3.9,10.2 L-3.8,8.3 L-3.8,6.4 L-3.7,4.3 L-3.7,2.3 L-3.7,0.3 L-3.7,-1.8 L-3.7,-3.8 L-3.8,-5.7 L-3.8,-7.6 L-3.9,-9.4 L-4.0,-11.2 L-4.1,-12.8 L-4.2,-14.2 L-4.3,-15.5 L-4.5,-16.6"/><path fill="#2b2f2a" stroke-width="1.1" style="--d:128.4;stroke-dasharray:var(--d);animation:k14 9s linear infinite" d="M4.5,1.6 L5.1,3.2 L5.6,4.8 L6.1,6.4 L6.6,8.0 L7.1,9.6 L7.5,11.2 L7.9,12.8 L8.2,14.4 L8.5,16.0 L8.8,17.6 L9.0,19.2 L9.1,20.8 L9.2,22.4 L9.3,24.0 L9.3,25.6 L9.2,27.2 L9.1,28.8 L9.0,30.4 L8.8,32.0 L8.6,33.6 L8.3,35.2 L7.9,36.8 L7.6,38.4 L7.2,40.0 L6.7,41.6 L6.2,43.2 L5.7,44.8 L5.1,46.4 L4.6,48.0 L4.0,49.6 L3.3,51.2 L2.7,52.8 L2.0,54.4 L1.4,56.0 L0.7,57.6 L0.0,59.2 L-0.0,59.2 L-0.7,57.6 L-1.4,56.0 L-2.0,54.4 L-2.7,52.8 L-3.3,51.2 L-4.0,49.6 L-4.6,48.0 L-5.1,46.4 L-5.7,44.8 L-6.2,43.2 L-6.7,41.6 L-7.2,40.0 L-7.6,38.4 L-7.9,36.8 L-8.3,35.2 L-8.6,33.6 L-8.8,32.0 L-9.0,30.4 L-9.1,28.8 L-9.2,27.2 L-9.3,25.6 L-9.3,24.0 L-9.2,22.4 L-9.1,20.8 L-9.0,19.2 L-8.8,17.6 L-8.5,16.0 L-8.2,14.4 L-7.9,12.8 L-7.5,11.2 L-7.1,9.6 L-6.6,8.0 L-6.1,6.4 L-5.6,4.8 L-5.1,3.2 L-4.5,1.6 L4.5,1.6"/><path fill="#2b2f2a" stroke-width="1.1" style="--d:118.8;stroke-dasharray:var(--d);animation:k15 9s linear infinite" d="M9.9,-2.3 L9.8,0.3 L9.7,2.8 L9.5,5.3 L9.1,7.7 L8.7,10.0 L8.2,12.2 L7.7,14.3 L7.0,16.1 L6.3,17.9 L5.5,19.4 L4.7,20.7 L3.8,21.8 L2.9,22.7 L1.9,23.3 L1.0,23.7 L0.0,23.8 L-1.0,23.7 L-1.9,23.3 L-2.9,22.7 L-3.8,21.8 L-4.7,20.7 L-5.5,19.4 L-6.3,17.9 L-7.0,16.1 L-7.7,14.3 L-8.2,12.2 L-8.7,10.0 L-9.1,7.7 L-9.5,5.3 L-9.7,2.8 L-9.8,0.3 L-9.9,-2.3 L-9.8,-4.9 L-9.7,-7.4 L-9.5,-9.9 L-9.1,-12.3 L-8.7,-14.6 L-8.2,-16.8 L-7.7,-18.8 L-7.0,-20.7 L-6.3,-22.5 L-5.5,-24.0 L-4.7,-25.3 L-3.8,-26.4 L-2.9,-27.3 L-1.9,-27.9 L-1.0,-28.3 L-0.0,-28.4 L1.0,-28.3 L1.9,-27.9 L2.9,-27.3 L3.8,-26.4 L4.7,-25.3 L5.5,-24.0 L6.3,-22.5 L7.0,-20.7 L7.7,-18.8 L8.2,-16.8 L8.7,-14.6 L9.1,-12.3 L9.5,-9.9 L9.7,-7.4 L9.8,-4.9 L9.9,-2.3"/><path fill="#2b2f2a" stroke-width="1.1" style="--d:60.2;stroke-dasharray:var(--d);animation:k16 9s linear infinite" d="M7.3,-32.5 L7.3,-31.3 L7.1,-30.2 L7.0,-29.1 L6.7,-28.0 L6.4,-27.0 L6.1,-26.0 L5.6,-25.1 L5.2,-24.2 L4.6,-23.5 L4.1,-22.8 L3.4,-22.2 L2.8,-21.7 L2.1,-21.3 L1.4,-21.0 L0.7,-20.9 L0.0,-20.8 L-0.7,-20.9 L-1.4,-21.0 L-2.1,-21.3 L-2.8,-21.7 L-3.4,-22.2 L-4.1,-22.8 L-4.6,-23.5 L-5.2,-24.2 L-5.6,-25.1 L-6.1,-26.0 L-6.4,-27.0 L-6.7,-28.0 L-7.0,-29.1 L-7.1,-30.2 L-7.3,-31.3 L-7.3,-32.5 L-7.3,-33.6 L-7.1,-34.7 L-7.0,-35.8 L-6.7,-36.9 L-6.4,-37.9 L-6.1,-38.9 L-5.6,-39.8 L-5.2,-40.7 L-4.6,-41.5 L-4.1,-42.1 L-3.4,-42.7 L-2.8,-43.2 L-2.1,-43.6 L-1.4,-43.9 L-0.7,-44.0 L-0.0,-44.1 L0.7,-44.0 L1.4,-43.9 L2.1,-43.6 L2.8,-43.2 L3.4,-42.7 L4.1,-42.1 L4.6,-41.5 L5.2,-40.7 L5.6,-39.8 L6.1,-38.9 L6.4,-37.9 L6.7,-36.9 L7.0,-35.8 L7.1,-34.7 L7.3,-33.6 L7.3,-32.5 M11.0,-33.9 L10.8,-32.5 L10.4,-31.2 L9.6,-30.1 L8.6,-29.3 L7.4,-28.7 L6.2,-28.6 L4.9,-28.7 L3.8,-29.3 L2.8,-30.1 L2.0,-31.2 L1.5,-32.5 L1.4,-33.9 L1.5,-35.2 L2.0,-36.5 L2.8,-37.6 L3.8,-38.4 L4.9,-39.0 L6.2,-39.1 L7.4,-39.0 L8.6,-38.4 L9.6,-37.6 L10.4,-36.5 L10.8,-35.2 L11.0,-33.9 M-1.4,-33.9 L-1.5,-32.5 L-2.0,-31.2 L-2.8,-30.1 L-3.8,-29.3 L-4.9,-28.7 L-6.2,-28.6 L-7.4,-28.7 L-8.6,-29.3 L-9.6,-30.1 L-10.4,-31.2 L-10.8,-32.5 L-11.0,-33.9 L-10.8,-35.2 L-10.4,-36.5 L-9.6,-37.6 L-8.6,-38.4 L-7.4,-39.0 L-6.2,-39.1 L-4.9,-39.0 L-3.8,-38.4 L-2.8,-37.6 L-2.0,-36.5 L-1.5,-35.2 L-1.4,-33.9"/><path fill="none" stroke-width="0.9" style="--d:93.4;stroke-dasharray:var(--d);animation:k17 9s linear infinite" d="M3.4,-38.3 L6.5,-44.0 L9.8,-49.5 L13.3,-54.7 L16.9,-59.6 L20.6,-64.3 L24.3,-68.7 L28.0,-72.9 L31.8,-76.9 L35.4,-80.7 L39.0,-84.3 L42.4,-87.6 L45.6,-90.8 L48.6,-93.9 L51.4,-96.7 L53.9,-99.5 L56.1,-102.0 L57.8,-104.5 L59.2,-106.8 L60.2,-109.1 L60.6,-111.2 M-3.4,-38.3 L-6.5,-44.0 L-9.8,-49.5 L-13.3,-54.7 L-16.9,-59.6 L-20.6,-64.3 L-24.3,-68.7 L-28.0,-72.9 L-31.8,-76.9 L-35.4,-80.7 L-39.0,-84.3 L-42.4,-87.6 L-45.6,-90.8 L-48.6,-93.9 L-51.4,-96.7 L-53.9,-99.5 L-56.1,-102.0 L-57.8,-104.5 L-59.2,-106.8 L-60.2,-109.1 L-60.6,-111.2 M8.5,-53.4 L9.8,-49.5 L11.2,-47.0 M-8.5,-53.4 L-9.8,-49.5 L-11.2,-47.0 M11.3,-58.6 L13.3,-54.7 L15.3,-52.2 M-11.3,-58.6 L-13.3,-54.7 L-15.3,-52.2"/><path fill="none" stroke-width="0.9" style="--d:11.1;stroke-dasharray:var(--d);animation:k18 9s linear infinite" d="M14.3,-63.5 L16.9,-59.6 L19.5,-57.1 M-14.3,-63.5 L-16.9,-59.6 L-19.5,-57.1 M17.4,-68.2 L20.6,-64.3 L23.7,-61.8 M-17.4,-68.2 L-20.6,-64.3 L-23.7,-61.8 M20.7,-72.6 L24.3,-68.7 L27.9,-66.2 M-20.7,-72.6 L-24.3,-68.7 L-27.9,-66.2 M24.1,-76.8 L28.0,-72.9 L32.0,-70.4 M-24.1,-76.8 L-28.0,-72.9 L-32.0,-70.4 M27.5,-80.8 L31.8,-76.9 L36.0,-74.4 M-27.5,-80.8 L-31.8,-76.9 L-36.0,-74.4 M31.0,-84.6 L35.4,-80.7 L39.8,-78.2 M-31.0,-84.6 L-35.4,-80.7 L-39.8,-78.2 M34.5,-88.2 L39.0,-84.3 L43.4,-81.7 M-34.5,-88.2 L-39.0,-84.3 L-43.4,-81.7 M38.0,-91.5 L42.4,-87.6 L46.8,-85.1 M-38.0,-91.5 L-42.4,-87.6 L-46.8,-85.1 M41.4,-94.7 L45.6,-90.8 L49.9,-88.3"/><path fill="none" stroke-width="0.9" style="--d:10.7;stroke-dasharray:var(--d);animation:k19 9s linear infinite" d="M-41.4,-94.7 L-45.6,-90.8 L-49.9,-88.3 M44.7,-97.8 L48.6,-93.9 L52.6,-91.3 M-44.7,-97.8 L-48.6,-93.9 L-52.6,-91.3 M47.8,-100.7 L51.4,-96.7 L55.0,-94.2 M-47.8,-100.7 L-51.4,-96.7 L-55.0,-94.2 M50.7,-103.4 L53.9,-99.5 L57.0,-96.9 M-50.7,-103.4 L-53.9,-99.5 L-57.0,-96.9 M53.4,-106.0 L56.1,-102.0 L58.7,-99.5 M-53.4,-106.0 L-56.1,-102.0 L-58.7,-99.5 M55.8,-108.4 L57.8,-104.5 L59.9,-102.0 M-55.8,-108.4 L-57.8,-104.5 L-59.9,-102.0 M57.8,-110.8 L59.2,-106.8 L60.6,-104.3 M-57.8,-110.8 L-59.2,-106.8 L-60.6,-104.3"/><path fill="none" stroke-width="0.45" opacity="0.4" style="--d:52.4;stroke-dasharray:var(--d);animation:k19 9s linear infinite" d="M53.4,24.3 L59.2,25.3 L66.0,27.2 L73.0,29.0 L80.4,30.2 L88.0,32.3 L96.1,33.9 L104.2,36.8"/><path fill="none" stroke-width="0.45" opacity="0.4" style="--d:82.8;stroke-dasharray:var(--d);animation:k20 9s linear infinite" d="M16.9,26.7 L21.1,30.0 L25.4,33.1 L29.8,36.1 L34.3,39.0 L39.1,41.5 L44.0,43.7 L48.4,46.6 L52.3,50.3 L56.3,53.9 L60.7,56.8 L65.3,59.6 L69.8,62.6 M15.5,33.7 L20.2,38.1 L23.2,43.5 L27.1,48.2 L31.1,52.5 L35.8,56.5 L39.0,61.9 L42.9,67.1 L47.1,72.6 L52.0,78.2 L55.3,85.4 L59.4,92.6 L63.8,100.2 M14.7,35.6 L17.8,41.9 L21.3,47.9 L24.6,54.2 L27.4,60.8 L29.7,65.6"/><path fill="none" stroke-width="0.45" opacity="0.4" style="--d:58.6;stroke-dasharray:var(--d);animation:k21 9s linear infinite" d="M8.6,22.9 L10.8,27.0 L12.2,31.5 L14.9,35.2 L17.7,38.7 L19.8,42.7 L21.2,47.1 L24.1,50.9 L27.3,54.6 L29.8,58.9 L31.8,63.8 L35.3,68.0 L39.1,72.1 M5.6,22.1 L5.5,24.3 L6.8,26.1 L8.5,27.6 L7.3,29.7 L7.1,31.7 L8.5,33.5 L10.2,35.3 L9.5,38.1 L9.7,41.1 L11.6,43.9 L14.0,46.9 L13.9,51.1 M-53.4,24.3 L-59.2,25.3 L-66.0,27.2 L-73.0,29.0 L-80.4,30.2 L-88.0,32.3 L-96.1,33.9 L-104.2,36.8"/><path fill="none" stroke-width="0.45" opacity="0.4" style="--d:82.8;stroke-dasharray:var(--d);animation:k22 9s linear infinite" d="M-16.9,26.7 L-21.1,30.0 L-25.4,33.1 L-29.8,36.1 L-34.3,39.0 L-39.1,41.5 L-44.0,43.7 L-48.4,46.6 L-52.3,50.3 L-56.3,53.9 L-60.7,56.8 L-65.3,59.6 L-69.8,62.6 M-15.5,33.7 L-20.2,38.1 L-23.2,43.5 L-27.1,48.2 L-31.1,52.5 L-35.8,56.5 L-39.0,61.9 L-42.9,67.1 L-47.1,72.6 L-52.0,78.2 L-55.3,85.4 L-59.4,92.6 L-63.8,100.2 M-14.7,35.6 L-17.8,41.9 L-21.3,47.9 L-24.6,54.2 L-27.4,60.8 L-29.7,65.6"/><path fill="none" stroke-width="0.45" opacity="0.4" style="--d:75.9;stroke-dasharray:var(--d);animation:k23 9s linear infinite" d="M-8.6,22.9 L-10.8,27.0 L-12.2,31.5 L-14.9,35.2 L-17.7,38.7 L-19.8,42.7 L-21.2,47.1 L-24.1,50.9 L-27.3,54.6 L-29.8,58.9 L-31.8,63.8 L-35.3,68.0 L-39.1,72.1 M-5.6,22.1 L-5.5,24.3 L-6.8,26.1 L-8.5,27.6 L-7.3,29.7 L-7.1,31.7 L-8.5,33.5 L-10.2,35.3 L-9.5,38.1 L-9.7,41.1 L-11.6,43.9 L-14.0,46.9 L-13.9,51.1 M11.6,-6.9 L14.4,-8.8 L17.6,-10.6 L21.2,-11.9 L25.1,-12.8 L27.9,-15.5 L30.8,-17.6 L33.5,-19.5 L35.9,-21.1 L38.2,-22.1 L40.4,-22.7 L40.9,-24.6 L41.4,-26.0 M15.3,-7.5 L20.8,-9.5 L25.9,-11.5 L30.7,-13.7 L35.4,-15.7 L39.7,-18.7 L44.4,-21.6 L49.8,-23.9 L55.8,-26.3 L62.2,-29.1 L69.4,-31.9 L76.7,-36.0 L83.7,-39.6"/><path fill="none" stroke-width="0.45" opacity="0.4" style="--d:112.5;stroke-dasharray:var(--d);animation:k24 9s linear infinite" d="M18.7,-7.6 L27.4,-10.3 L35.9,-13.1 L44.1,-16.3 L52.3,-19.5 L60.6,-22.2 L69.2,-24.8 L77.7,-28.1 L86.2,-32.0 L95.0,-36.1 L104.2,-40.4 L113.6,-44.8 L123.2,-49.0"/><path fill="none" stroke-width="0.45" opacity="0.4" style="--d:111.6;stroke-dasharray:var(--d);animation:k25 9s linear infinite" d="M23.1,-6.5 L32.4,-8.3 L41.8,-10.2 L51.2,-12.4 L60.4,-15.2 L69.6,-18.1 L78.8,-20.7 L88.0,-23.0 L96.8,-25.8 L105.3,-29.1 L113.8,-31.9 L122.3,-33.6 L130.8,-34.9 M28.9,-2.0 L36.5,-1.6 L44.1,-2.4 L51.7,-3.0 L59.4,-2.9 L67.0,-2.8 L74.6,-3.9 L82.2,-4.9 L89.9,-5.2 L97.6,-5.6 L105.1,-7.1 L112.8,-8.5 L120.5,-9.3"/><path fill="none" stroke-width="0.45" opacity="0.4" style="--d:86.2;stroke-dasharray:var(--d);animation:k26 9s linear infinite" d="M18.0,1.3 L25.0,2.3 L32.0,3.0 L38.9,3.8 L45.9,4.7 L52.8,5.5 L59.7,6.4 L66.8,7.4 L73.9,8.1 L81.1,8.5 L88.5,9.2 L96.0,10.0 L103.6,10.5 M16.8,3.1 L22.1,3.3 L27.1,4.4 L32.1,5.6 L36.6,8.8 L41.9,8.8 L46.9,9.7 L51.9,10.8 L56.4,13.7 L61.6,13.6 L66.5,14.4 L71.3,15.2 L75.6,18.1 M13.9,3.0 L16.5,6.0 L20.3,7.0 L24.1,8.2 L27.9,9.5 L30.8,12.4 L34.5,13.3 L37.9,14.4 L40.9,15.8 L42.5,18.7 L45.0,19.8 L47.0,21.2 L48.7,22.8"/><path fill="none" stroke-width="0.45" opacity="0.4" style="--d:75.9;stroke-dasharray:var(--d);animation:k27 9s linear infinite" d="M7.4,0.9 L8.3,3.3 L9.7,5.4 L11.4,7.4 L13.2,9.4 L15.0,11.3 L16.9,13.1 L18.5,14.9 L19.8,16.7 L21.3,18.3 L22.8,19.9 L23.5,21.8 L23.1,23.6 M-11.6,-6.9 L-14.4,-8.8 L-17.6,-10.6 L-21.2,-11.9 L-25.1,-12.8 L-27.9,-15.5 L-30.8,-17.6 L-33.5,-19.5 L-35.9,-21.1 L-38.2,-22.1 L-40.4,-22.7 L-40.9,-24.6 L-41.4,-26.0 M-15.3,-7.5 L-20.8,-9.5 L-25.9,-11.5 L-30.7,-13.7 L-35.4,-15.7 L-39.7,-18.7 L-44.4,-21.6 L-49.8,-23.9 L-55.8,-26.3 L-62.2,-29.1 L-69.4,-31.9 L-76.7,-36.0 L-83.7,-39.6"/><path fill="none" stroke-width="0.45" opacity="0.4" style="--d:112.5;stroke-dasharray:var(--d);animation:k28 9s linear infinite" d="M-18.7,-7.6 L-27.4,-10.3 L-35.9,-13.1 L-44.1,-16.3 L-52.3,-19.5 L-60.6,-22.2 L-69.2,-24.8 L-77.7,-28.1 L-86.2,-32.0 L-95.0,-36.1 L-104.2,-40.4 L-113.6,-44.8 L-123.2,-49.0 M-23.1,-6.5 L-32.4,-8.3 L-41.8,-10.2 L-51.2,-12.4 L-60.4,-15.2 L-69.6,-18.1 L-78.8,-20.7 L-88.0,-23.0 L-96.8,-25.8 L-105.3,-29.1 L-113.8,-31.9 L-122.3,-33.6 L-130.8,-34.9"/><path fill="none" stroke-width="0.45" opacity="0.4" style="--d:92.2;stroke-dasharray:var(--d);animation:k29 9s linear infinite" d="M-28.9,-2.0 L-36.5,-1.6 L-44.1,-2.4 L-51.7,-3.0 L-59.4,-2.9 L-67.0,-2.8 L-74.6,-3.9 L-82.2,-4.9 L-89.9,-5.2 L-97.6,-5.6 L-105.1,-7.1 L-112.8,-8.5 L-120.5,-9.3 M-18.0,1.3 L-25.0,2.3 L-32.0,3.0 L-38.9,3.8 L-45.9,4.7 L-52.8,5.5 L-59.7,6.4 L-66.8,7.4 L-73.9,8.1 L-81.1,8.5 L-88.5,9.2 L-96.0,10.0 L-103.6,10.5"/><path fill="none" stroke-width="0.45" opacity="0.4" style="--d:62.1;stroke-dasharray:var(--d);animation:k30 9s linear infinite" d="M-16.8,3.1 L-22.1,3.3 L-27.1,4.4 L-32.1,5.6 L-36.6,8.8 L-41.9,8.8 L-46.9,9.7 L-51.9,10.8 L-56.4,13.7 L-61.6,13.6 L-66.5,14.4 L-71.3,15.2 L-75.6,18.1 M-13.9,3.0 L-16.5,6.0 L-20.3,7.0 L-24.1,8.2 L-27.9,9.5 L-30.8,12.4 L-34.5,13.3 L-37.9,14.4 L-40.9,15.8 L-42.5,18.7 L-45.0,19.8 L-47.0,21.2 L-48.7,22.8 M-7.4,0.9 L-8.3,3.3 L-9.7,5.4 L-11.4,7.4 L-13.2,9.4 L-15.0,11.3 L-16.9,13.1 L-18.5,14.9 L-19.8,16.7 L-21.3,18.3 L-22.8,19.9 L-23.5,21.8 L-23.1,23.6"/><path fill="none" stroke-width="0.85" opacity="0.72" style="--d:86.4;stroke-dasharray:var(--d);animation:k31 9s linear infinite" d="M85.6,16.3 L84.7,23.6 L78.6,31.0 L62.1,33.6 L55.0,37.4 L49.1,40.5 L43.4,42.6 L39.9,45.8 L37.5,50.1 L36.7,56.1 L37.2,63.1 L38.0,69.5 L38.2,72.2 M32.4,68.0 L29.8,62.3 L26.9,56.5 L24.4,51.5 L21.9,46.7 L18.9,42.8 L15.6,39.7 L13.8,42.7 L12.3,44.0 L9.6,41.9"/><path fill="none" stroke-width="0.85" opacity="0.72" style="--d:120.2;stroke-dasharray:var(--d);animation:k32 9s linear infinite" d="M-85.6,16.3 L-84.7,23.6 L-78.6,31.0 L-62.1,33.6 L-55.0,37.4 L-49.1,40.5 L-43.4,42.6 L-39.9,45.8 L-37.5,50.1 L-36.7,56.1 L-37.2,63.1 L-38.0,69.5 L-38.2,72.2 M-32.4,68.0 L-29.8,62.3 L-26.9,56.5 L-24.4,51.5 L-21.9,46.7 L-18.9,42.8 L-15.6,39.7 L-13.8,42.7 L-12.3,44.0 L-9.6,41.9 M103.7,-45.2 L96.4,-39.5 L86.9,-32.3 L71.1,-22.7 L71.8,-20.8 L70.8,-17.2 L67.8,-13.3 L64.5,-9.3 L60.0,-6.1 L55.2,-3.3 L51.3,-0.0 L47.7,3.1 L43.4,4.7 L39.6,5.3 L36.2,5.3 L33.3,5.7 L30.6,5.9 L28.0,6.2 L25.8,7.8 L23.3,9.3 L20.4,10.2 L18.3,10.1 L18.7,14.5 L17.7,18.6 L14.7,21.7"/><path fill="none" stroke-width="0.85" opacity="0.72" style="--d:135.7;stroke-dasharray:var(--d);animation:k33 9s linear infinite" d="M95.4,-42.1 L100.8,-42.0 L103.6,-40.8 L101.8,-37.0 L103.0,-34.0 L105.3,-30.9 L102.9,-24.6 L100.7,-18.8 L97.9,-13.4 L95.4,-7.9 L93.1,-2.4 L90.1,2.7 L85.7,6.7 L79.7,9.8 L73.0,11.6 L65.4,11.8 L57.9,12.4 L50.8,13.7 L44.0,15.4 L37.5,16.1 L31.3,16.7 L26.2,17.4 L23.3,19.1 L19.2,20.6 L14.9,21.4"/><path fill="none" stroke-width="0.85" opacity="0.72" style="--d:143.8;stroke-dasharray:var(--d);animation:k34 9s linear infinite" d="M95.5,-42.3 L104.4,-43.3 L106.3,-42.3 L105.3,-38.8 L107.6,-35.9 L110.1,-32.5 L107.9,-25.8 L105.9,-19.5 L103.0,-13.8 L99.9,-8.2 L96.7,-3.0 L93.6,2.3 L89.0,6.4 L82.6,8.7 L76.0,10.8 L68.3,12.3 L60.6,14.1 L53.3,15.8 L46.1,16.9 L39.2,17.4 L32.7,17.8 L27.1,17.7 L23.9,19.7 L19.9,21.5 L15.1,21.6 M50.6,-11.7 L51.5,-8.9 L51.2,-6.3 L50.2,-3.7 L47.8,-1.2 L45.1,1.8 L41.1,3.8"/><path fill="none" stroke-width="0.85" opacity="0.72" style="--d:120.2;stroke-dasharray:var(--d);animation:k35 9s linear infinite" d="M-103.7,-45.2 L-96.4,-39.5 L-86.9,-32.3 L-71.1,-22.7 L-71.8,-20.8 L-70.8,-17.2 L-67.8,-13.3 L-64.5,-9.3 L-60.0,-6.1 L-55.2,-3.3 L-51.3,-0.0 L-47.7,3.1 L-43.4,4.7 L-39.6,5.3 L-36.2,5.3 L-33.3,5.7 L-30.6,5.9 L-28.0,6.2 L-25.8,7.8 L-23.3,9.3 L-20.4,10.2 L-18.3,10.1 L-18.7,14.5 L-17.7,18.6 L-14.7,21.7"/><path fill="none" stroke-width="0.85" opacity="0.72" style="--d:143.8;stroke-dasharray:var(--d);animation:k36 9s linear infinite" d="M-95.4,-42.1 L-100.8,-42.0 L-103.6,-40.8 L-101.8,-37.0 L-103.0,-34.0 L-105.3,-30.9 L-102.9,-24.6 L-100.7,-18.8 L-97.9,-13.4 L-95.4,-7.9 L-93.1,-2.4 L-90.1,2.7 L-85.7,6.7 L-79.7,9.8 L-73.0,11.6 L-65.4,11.8 L-57.9,12.4 L-50.8,13.7 L-44.0,15.4 L-37.5,16.1 L-31.3,16.7 L-26.2,17.4 L-23.3,19.1 L-19.2,20.6 L-14.9,21.4 M-95.5,-42.3 L-104.4,-43.3 L-106.3,-42.3 L-105.3,-38.8 L-107.6,-35.9 L-110.1,-32.5 L-107.9,-25.8 L-105.9,-19.5 L-103.0,-13.8 L-99.9,-8.2 L-96.7,-3.0 L-93.6,2.3 L-89.0,6.4 L-82.6,8.7 L-76.0,10.8 L-68.3,12.3 L-60.6,14.1 L-53.3,15.8 L-46.1,16.9 L-39.2,17.4 L-32.7,17.8 L-27.1,17.7 L-23.9,19.7 L-19.9,21.5 L-15.1,21.6"/><path fill="none" stroke-width="0.85" opacity="0.72" style="--d:20.3;stroke-dasharray:var(--d);animation:k37 9s linear infinite" d="M-50.6,-11.7 L-51.5,-8.9 L-51.2,-6.3 L-50.2,-3.7 L-47.8,-1.2 L-45.1,1.8 L-41.1,3.8"/><path fill="none" stroke-width="0.7" opacity="0.82" style="--d:59.4;stroke-dasharray:var(--d);animation:k37 9s linear infinite" d="M42.3,39.3 L43.0,39.4 L43.7,39.4 L44.5,39.4 L45.2,39.4 L46.0,39.2 L46.7,39.0 L47.3,38.7 L47.8,38.5 L48.2,38.3 L48.5,38.0 L48.7,37.7 L48.7,37.2 L48.3,36.8 L47.7,36.4 L46.9,36.2 L46.1,36.1 L45.2,36.0 L44.3,35.8 L43.4,35.7 L42.5,35.6 L41.6,35.7 L40.8,36.1 L40.2,36.8 L40.0,37.7 L40.3,38.5 L40.9,39.0 L41.6,39.2 L42.3,39.3 M39.6,41.4 L40.8,42.3 L42.4,42.8 L44.1,43.0 L46.0,42.7 L47.8,42.2 L49.4,41.5 L51.0,40.8 L52.2,39.9 L52.8,38.8 L52.8,37.9 L52.6,37.3 L52.5,36.3 L51.9,35.2 L50.7,34.2 L49.2,33.6 L47.4,33.4 L45.7,33.4 L44.0,33.7 L42.3,34.2 L40.9,34.7 L39.7,35.2 L38.8,35.9 L38.4,36.8 L38.6,37.7 L38.7,38.3 L38.6,39.2 L38.8,40.3 L39.6,41.4 M38.5,42.7 L40.2,43.7 L42.0,44.3 L44.2,44.5 L46.9,44.4 L49.7,44.1 L52.5,43.3 L55.1,42.3 L57.2,40.9 L58.7,39.1 L59.1,37.0 L58.6,35.2 L57.4,33.8 L55.7,32.9 L53.6,32.3 L51.2,32.0 L48.6,31.8 L46.0,31.8 L43.6,32.1 L41.4,32.6 L39.3,33.1 L37.7,33.8 L36.5,34.6 L35.7,35.7 L35.3,36.9 L35.2,38.2 L35.8,39.8 L37.1,41.4 L38.5,42.7"/><path fill="none" stroke-width="0.7" opacity="0.82" style="--d:59.4;stroke-dasharray:var(--d);animation:k38 9s linear infinite" d="M-42.3,39.3 L-43.0,39.4 L-43.7,39.4 L-44.5,39.4 L-45.2,39.4 L-46.0,39.2 L-46.7,39.0 L-47.3,38.7 L-47.8,38.5 L-48.2,38.3 L-48.5,38.0 L-48.7,37.7 L-48.7,37.2 L-48.3,36.8 L-47.7,36.4 L-46.9,36.2 L-46.1,36.1 L-45.2,36.0 L-44.3,35.8 L-43.4,35.7 L-42.5,35.6 L-41.6,35.7 L-40.8,36.1 L-40.2,36.8 L-40.0,37.7 L-40.3,38.5 L-40.9,39.0 L-41.6,39.2 L-42.3,39.3 M-39.6,41.4 L-40.8,42.3 L-42.4,42.8 L-44.1,43.0 L-46.0,42.7 L-47.8,42.2 L-49.4,41.5 L-51.0,40.8 L-52.2,39.9 L-52.8,38.8 L-52.8,37.9 L-52.6,37.3 L-52.5,36.3 L-51.9,35.2 L-50.7,34.2 L-49.2,33.6 L-47.4,33.4 L-45.7,33.4 L-44.0,33.7 L-42.3,34.2 L-40.9,34.7 L-39.7,35.2 L-38.8,35.9 L-38.4,36.8 L-38.6,37.7 L-38.7,38.3 L-38.6,39.2 L-38.8,40.3 L-39.6,41.4 M-38.5,42.7 L-40.2,43.7 L-42.0,44.3 L-44.2,44.5 L-46.9,44.4 L-49.7,44.1 L-52.5,43.3 L-55.1,42.3 L-57.2,40.9 L-58.7,39.1 L-59.1,37.0 L-58.6,35.2 L-57.4,33.8 L-55.7,32.9 L-53.6,32.3 L-51.2,32.0 L-48.6,31.8 L-46.0,31.8 L-43.6,32.1 L-41.4,32.6 L-39.3,33.1 L-37.7,33.8 L-36.5,34.6 L-35.7,35.7 L-35.3,36.9 L-35.2,38.2 L-35.8,39.8 L-37.1,41.4 L-38.5,42.7 M70.6,-13.8 L71.8,-14.8 L72.6,-16.4 L73.4,-18.0 L74.6,-19.2 L76.0,-20.4 L77.2,-21.8 L77.1,-22.7 L76.3,-23.3 L75.1,-24.0 L73.7,-24.6 L72.2,-24.9 L70.6,-25.0 L69.1,-24.9 L67.6,-24.5 L66.6,-23.4 L66.3,-22.0 L66.3,-21.0 L66.1,-20.7 L65.6,-20.5 L65.4,-19.9 L65.9,-19.2 L66.2,-18.3 L66.0,-17.0 L66.1,-15.8 L66.7,-14.8 L67.7,-14.1 L69.0,-13.6 L70.4,-13.8"/><path fill="none" stroke-width="0.7" opacity="0.82" style="--d:109.3;stroke-dasharray:var(--d);animation:k39 9s linear infinite" d="M68.5,-7.5 L71.4,-8.4 L74.3,-10.1 L77.3,-12.4 L79.6,-15.5 L81.7,-19.0 L83.4,-22.7 L83.1,-25.2 L80.8,-26.4 L78.3,-27.2 L74.6,-27.1 L69.6,-25.8 L65.3,-24.6 L61.8,-23.5 L59.3,-22.5 L57.8,-21.8 L57.4,-21.4 L57.3,-21.8 L58.5,-21.6 L59.4,-20.4 L59.8,-19.3 L60.8,-18.1 L61.3,-16.1 L61.0,-13.8 L61.2,-11.7 L62.1,-9.7 L63.6,-8.2 L65.8,-7.4 L68.5,-7.5 M64.1,0.7 L67.8,-0.6 L71.6,-2.9 L75.7,-5.7 L80.2,-9.2 L84.7,-13.5 L87.8,-18.9 L89.7,-24.6 L88.3,-27.6 L84.5,-29.5 L78.1,-29.8 L70.1,-28.3 L63.4,-26.9 L58.2,-25.4 L54.5,-23.7 L52.7,-21.9 L52.7,-20.6 L53.0,-21.0 L54.3,-20.3 L55.2,-18.7 L55.8,-16.8 L56.2,-14.3 L55.5,-11.0 L55.1,-8.0 L55.0,-5.4 L55.9,-2.8 L57.8,-0.8 L60.6,0.6 L64.1,0.7"/><path fill="none" stroke-width="0.7" opacity="0.82" style="--d:73.4;stroke-dasharray:var(--d);animation:k40 9s linear infinite" d="M-70.6,-13.8 L-71.8,-14.8 L-72.6,-16.4 L-73.4,-18.0 L-74.6,-19.2 L-76.0,-20.4 L-77.2,-21.8 L-77.1,-22.7 L-76.3,-23.3 L-75.1,-24.0 L-73.7,-24.6 L-72.2,-24.9 L-70.6,-25.0 L-69.1,-24.9 L-67.6,-24.5 L-66.6,-23.4 L-66.3,-22.0 L-66.3,-21.0 L-66.1,-20.7 L-65.6,-20.5 L-65.4,-19.9 L-65.9,-19.2 L-66.2,-18.3 L-66.0,-17.0 L-66.1,-15.8 L-66.7,-14.8 L-67.7,-14.1 L-69.0,-13.6 L-70.4,-13.8 M-68.5,-7.5 L-71.4,-8.4 L-74.3,-10.1 L-77.3,-12.4 L-79.6,-15.5 L-81.7,-19.0 L-83.4,-22.7 L-83.1,-25.2 L-80.8,-26.4 L-78.3,-27.2 L-74.6,-27.1 L-69.6,-25.8 L-65.3,-24.6 L-61.8,-23.5 L-59.3,-22.5 L-57.8,-21.8 L-57.4,-21.4 L-57.3,-21.8 L-58.5,-21.6 L-59.4,-20.4 L-59.8,-19.3 L-60.8,-18.1 L-61.3,-16.1 L-61.0,-13.8 L-61.2,-11.7 L-62.1,-9.7 L-63.6,-8.2 L-65.8,-7.4 L-68.5,-7.5"/><path fill="none" stroke-width="0.7" opacity="0.82" style="--d:109.3;stroke-dasharray:var(--d);animation:k41 9s linear infinite" d="M-64.1,0.7 L-67.8,-0.6 L-71.6,-2.9 L-75.7,-5.7 L-80.2,-9.2 L-84.7,-13.5 L-87.8,-18.9 L-89.7,-24.6 L-88.3,-27.6 L-84.5,-29.5 L-78.1,-29.8 L-70.1,-28.3 L-63.4,-26.9 L-58.2,-25.4 L-54.5,-23.7 L-52.7,-21.9 L-52.7,-20.6 L-53.0,-21.0 L-54.3,-20.3 L-55.2,-18.7 L-55.8,-16.8 L-56.2,-14.3 L-55.5,-11.0 L-55.1,-8.0 L-55.0,-5.4 L-55.9,-2.8 L-57.8,-0.8 L-60.6,0.6 L-64.1,0.7"/><path fill="#292d29" stroke-width="0.45" opacity="0.85" style="--d:37.9;stroke-dasharray:var(--d);animation:k41 9s linear infinite" d="M41.9,40.8 L42.8,40.4 L43.5,40.3 L44.2,41.0 L45.1,41.3 L46.0,41.2 L47.0,41.2 L47.9,41.0 L48.5,40.5 L48.9,39.8 L48.5,39.1 L48.0,38.8 L48.2,38.5 L48.3,37.8 L47.7,37.4 L47.0,37.0 L46.2,36.5 L45.2,36.4 L44.3,36.6 L43.5,37.2 L42.9,38.1 L42.4,38.2 L41.5,38.0 L41.1,38.4 L40.8,38.8 L40.5,39.4 L40.6,40.1 L41.1,40.6 L41.9,40.8 M-41.9,40.8 L-42.8,40.4 L-43.5,40.3 L-44.2,41.0 L-45.1,41.3 L-46.0,41.2 L-47.0,41.2 L-47.9,41.0 L-48.5,40.5 L-48.9,39.8 L-48.5,39.1 L-48.0,38.8 L-48.2,38.5 L-48.3,37.8 L-47.7,37.4 L-47.0,37.0 L-46.2,36.5 L-45.2,36.4 L-44.3,36.6 L-43.5,37.2 L-42.9,38.1 L-42.4,38.2 L-41.5,38.0 L-41.1,38.4 L-40.8,38.8 L-40.5,39.4 L-40.6,40.1 L-41.1,40.6 L-41.9,40.8 M65.1,-10.0 L66.4,-10.5 L67.9,-11.2 L69.2,-12.1 L70.5,-13.4 L71.6,-14.9 L72.4,-16.5 L72.8,-18.2 L72.9,-19.7 L72.8,-20.5 L71.8,-20.3 L70.4,-20.3 L69.0,-20.3 L67.6,-20.3 L66.3,-20.2 L65.0,-20.0 L63.9,-19.6 L63.0,-19.1 L62.4,-18.5 L62.1,-17.9 L61.2,-16.6 L60.5,-15.2 L60.2,-13.7 L60.2,-12.3 L60.7,-11.1 L61.6,-10.2 L62.7,-9.8 L63.9,-9.7 L65.1,-10.0 M-65.1,-10.0 L-66.4,-10.5 L-67.9,-11.2 L-69.2,-12.1 L-70.5,-13.4 L-71.6,-14.9 L-72.4,-16.5 L-72.8,-18.2 L-72.9,-19.7 L-72.8,-20.5 L-71.8,-20.3 L-70.4,-20.3 L-69.0,-20.3 L-67.6,-20.3 L-66.3,-20.2 L-65.0,-20.0 L-63.9,-19.6 L-63.0,-19.1 L-62.4,-18.5 L-62.1,-17.9 L-61.2,-16.6 L-60.5,-15.2 L-60.2,-13.7 L-60.2,-12.3 L-60.7,-11.1 L-61.6,-10.2 L-62.7,-9.8 L-63.9,-9.7 L-65.1,-10.0"/><path fill="none" stroke-width="1.05" opacity="0.66" style="--d:16.2;stroke-dasharray:var(--d);animation:k42 9s linear infinite" d="M40.4,44.9 L29.5,36.6 M40.0,46.3 L29.2,37.6 M39.2,47.3 L28.6,38.3 M37.9,47.8 L27.4,38.4 M37.4,49.1 L27.2,39.3 M37.5,50.9 L27.4,40.8 M37.8,53.0 L27.8,42.4 M36.9,53.7 L26.8,42.6 M37.2,55.8 L27.2,44.2 M37.5,57.7 L27.4,45.6 M38.2,60.3 L28.1,47.7"/><path fill="none" stroke-width="1.05" opacity="0.66" style="--d:18.7;stroke-dasharray:var(--d);animation:k43 9s linear infinite" d="M38.4,62.2 L28.3,49.1 M39.1,64.9 L29.0,51.3 M39.0,66.5 L28.8,52.3 M38.1,66.9 L28.0,52.3 M38.6,69.3 L28.5,54.3 M38.5,70.7 L28.4,55.3 M38.3,72.2 L28.3,56.4 M36.4,70.8 L28.3,57.6 M34.9,69.8 L28.4,59.0 M33.3,68.7 L29.0,61.3 M32.5,68.0 L28.0,60.2"/><path fill="none" stroke-width="1.05" opacity="0.66" style="--d:16.4;stroke-dasharray:var(--d);animation:k44 9s linear infinite" d="M32.4,68.0 L28.4,60.9 M32.3,67.9 L27.6,59.7 M32.2,67.8 L27.0,58.6 M32.1,67.7 L26.6,57.9 M32.0,67.6 L26.2,57.4 M31.8,67.5 L25.5,56.1 M31.9,67.5 L25.7,56.5 M32.6,68.1 L24.5,53.9 M32.9,68.0 L24.7,53.7 M32.2,66.0 L24.2,52.3 M31.8,64.5 L23.9,51.2 M30.5,61.7 L22.8,48.8 M30.0,60.1 L22.5,47.7"/><path fill="none" stroke-width="1.05" opacity="0.66" style="--d:14.0;stroke-dasharray:var(--d);animation:k45 9s linear infinite" d="M29.2,58.0 L21.9,46.1 M28.4,56.5 L21.2,44.9 M27.9,55.6 L20.9,44.4 M26.8,53.9 L20.0,42.9 M25.5,51.8 L18.9,41.1 M25.0,51.0 L18.7,40.7 M24.6,50.2 L18.4,40.2 M23.7,48.7 L17.7,39.0 M22.2,46.7 L16.5,37.2 M22.0,46.8 L16.5,37.6 M20.3,44.7 L15.1,35.8 M19.4,43.8 L14.5,35.1 M18.7,43.3 L14.0,34.7 M17.9,42.6 L13.5,34.3 M-40.4,44.9 L-29.5,36.6"/><path fill="none" stroke-width="1.05" opacity="0.66" style="--d:16.6;stroke-dasharray:var(--d);animation:k46 9s linear infinite" d="M-40.0,46.3 L-29.2,37.6 M-39.2,47.3 L-28.6,38.3 M-37.9,47.8 L-27.4,38.4 M-37.4,49.1 L-27.2,39.3 M-37.5,50.9 L-27.4,40.8 M-37.8,53.0 L-27.8,42.4 M-36.9,53.7 L-26.8,42.6 M-37.2,55.8 L-27.2,44.2 M-37.5,57.7 L-27.4,45.6 M-38.2,60.3 L-28.1,47.7 M-38.4,62.2 L-28.3,49.1"/><path fill="none" stroke-width="1.05" opacity="0.66" style="--d:18.7;stroke-dasharray:var(--d);animation:k47 9s linear infinite" d="M-39.1,64.9 L-29.0,51.3 M-39.0,66.5 L-28.8,52.3 M-38.1,66.9 L-28.0,52.3 M-38.6,69.3 L-28.5,54.3 M-38.5,70.7 L-28.4,55.3 M-38.3,72.2 L-28.3,56.4 M-36.4,70.8 L-28.3,57.6 M-34.9,69.8 L-28.4,59.0 M-33.3,68.7 L-29.0,61.3 M-32.5,68.0 L-28.0,60.2 M-32.4,68.0 L-28.4,60.9 M-32.3,67.9 L-27.6,59.7 M-32.2,67.8 L-27.0,58.6"/><path fill="none" stroke-width="1.05" opacity="0.66" style="--d:16.4;stroke-dasharray:var(--d);animation:k48 9s linear infinite" d="M-32.1,67.7 L-26.6,57.9 M-32.0,67.6 L-26.2,57.4 M-31.8,67.5 L-25.5,56.1 M-31.9,67.5 L-25.7,56.5 M-32.6,68.1 L-24.5,53.9 M-32.9,68.0 L-24.7,53.7 M-32.2,66.0 L-24.2,52.3 M-31.8,64.5 L-23.9,51.2 M-30.5,61.7 L-22.8,48.8 M-30.0,60.1 L-22.5,47.7 M-29.2,58.0 L-21.9,46.1 M-28.4,56.5 L-21.2,44.9"/><path fill="none" stroke-width="1.05" opacity="0.66" style="--d:14.6;stroke-dasharray:var(--d);animation:k49 9s linear infinite" d="M-27.9,55.6 L-20.9,44.4 M-26.8,53.9 L-20.0,42.9 M-25.5,51.8 L-18.9,41.1 M-25.0,51.0 L-18.7,40.7 M-24.6,50.2 L-18.4,40.2 M-23.7,48.7 L-17.7,39.0 M-22.2,46.7 L-16.5,37.2 M-22.0,46.8 L-16.5,37.6 M-20.3,44.7 L-15.1,35.8 M-19.4,43.8 L-14.5,35.1 M-18.7,43.3 L-14.0,34.7 M-17.9,42.6 L-13.5,34.3 M102.4,-38.4 L115.7,-44.2 M101.0,-36.8 L114.4,-42.5"/><path fill="none" stroke-width="1.05" opacity="0.66" style="--d:15.2;stroke-dasharray:var(--d);animation:k50 9s linear infinite" d="M102.1,-36.2 L115.6,-42.0 M100.5,-34.6 L114.2,-40.3 M101.1,-33.9 L114.9,-39.5 M102.7,-33.6 L116.6,-39.1 M103.2,-32.9 L117.2,-38.3 M104.4,-32.4 L118.5,-37.8 M104.7,-31.6 L118.9,-36.9 M104.8,-30.2 L119.0,-35.3 M104.0,-28.4 L118.2,-33.3 M103.2,-26.7 L117.3,-31.3 M101.8,-24.8 L115.8,-29.1 M102.0,-23.4 L116.0,-27.5"/><path fill="none" stroke-width="1.05" opacity="0.66" style="--d:14.5;stroke-dasharray:var(--d);animation:k51 9s linear infinite" d="M100.7,-21.5 L114.7,-25.4 M100.6,-20.0 L114.5,-23.7 M101.1,-18.6 L114.9,-22.1 M101.3,-17.3 L115.0,-20.5 M99.4,-15.6 L113.1,-18.6 M97.6,-13.9 L111.2,-16.7 M98.9,-12.9 L112.4,-15.5 M97.6,-11.3 L111.0,-13.7 M96.2,-9.7 L109.4,-11.9 M97.0,-8.5 L110.2,-10.5 M95.6,-6.9 L108.7,-8.7 M93.9,-5.4 L106.9,-6.9"/><path fill="none" stroke-width="1.05" opacity="0.66" style="--d:12.9;stroke-dasharray:var(--d);animation:k52 9s linear infinite" d="M94.6,-4.2 L107.5,-5.5 M93.7,-2.8 L106.4,-3.9 M92.8,-1.5 L105.4,-2.3 M90.7,-0.0 L103.2,-0.7 M90.7,1.3 L103.2,0.8 M88.8,2.7 L101.2,2.4 M87.8,4.0 L100.0,4.0 M88.3,5.4 L100.4,5.5 M86.5,6.1 L98.4,6.4 M85.7,6.8 L97.4,7.2 M84.5,7.6 L96.0,8.1 M80.9,8.1 L92.2,8.8 M80.7,8.9 L91.8,9.7 M79.1,9.6 L89.9,10.6 M76.3,10.2 L86.9,11.3"/><path fill="none" stroke-width="1.05" opacity="0.66" style="--d:10.5;stroke-dasharray:var(--d);animation:k53 9s linear infinite" d="M75.1,10.9 L85.5,12.1 M74.0,11.4 L84.1,12.7 M71.8,11.6 L81.7,13.0 M69.8,11.9 L79.5,13.3 M66.4,11.9 L75.8,13.4 M64.7,12.2 L73.9,13.7 M63.7,12.5 L72.6,14.2 M61.4,12.7 L70.0,14.4 M59.5,12.9 L67.8,14.7 M56.7,13.0 L64.8,14.8 M54.5,13.2 L62.4,15.2 M53.5,13.8 L61.1,15.8 M51.2,13.9 L58.5,16.0 M49.9,14.4 L57.0,16.6 M48.2,14.8 L55.1,17.0 M46.3,15.1 L52.9,17.4 M44.0,15.2 L50.3,17.6 M42.8,15.7 L48.9,18.2 M40.3,15.5 L46.1,18.1 M39.5,16.1 L45.1,18.7"/><path fill="none" stroke-width="1.05" opacity="0.66" style="--d:15.2;stroke-dasharray:var(--d);animation:k54 9s linear infinite" d="M37.3,16.0 L42.6,18.7 M35.1,15.8 L40.1,18.6 M33.7,16.1 L38.5,18.9 M32.2,16.4 L36.7,19.2 M30.4,16.4 L34.7,19.3 M28.9,16.6 L32.9,19.5 M-102.4,-38.4 L-115.7,-44.2 M-101.0,-36.8 L-114.4,-42.5 M-102.1,-36.2 L-115.6,-42.0 M-100.5,-34.6 L-114.2,-40.3 M-101.1,-33.9 L-114.9,-39.5 M-102.7,-33.6 L-116.6,-39.1 M-103.2,-32.9 L-117.2,-38.3 M-104.4,-32.4 L-118.5,-37.8 M-104.7,-31.6 L-118.9,-36.9"/><path fill="none" stroke-width="1.05" opacity="0.66" style="--d:15.1;stroke-dasharray:var(--d);animation:k55 9s linear infinite" d="M-104.8,-30.2 L-119.0,-35.3 M-104.0,-28.4 L-118.2,-33.3 M-103.2,-26.7 L-117.3,-31.3 M-101.8,-24.8 L-115.8,-29.1 M-102.0,-23.4 L-116.0,-27.5 M-100.7,-21.5 L-114.7,-25.4 M-100.6,-20.0 L-114.5,-23.7 M-101.1,-18.6 L-114.9,-22.1 M-101.3,-17.3 L-115.0,-20.5 M-99.4,-15.6 L-113.1,-18.6 M-97.6,-13.9 L-111.2,-16.7 M-98.9,-12.9 L-112.4,-15.5"/><path fill="none" stroke-width="1.05" opacity="0.66" style="--d:13.6;stroke-dasharray:var(--d);animation:k56 9s linear infinite" d="M-97.6,-11.3 L-111.0,-13.7 M-96.2,-9.7 L-109.4,-11.9 M-97.0,-8.5 L-110.2,-10.5 M-95.6,-6.9 L-108.7,-8.7 M-93.9,-5.4 L-106.9,-6.9 M-94.6,-4.2 L-107.5,-5.5 M-93.7,-2.8 L-106.4,-3.9 M-92.8,-1.5 L-105.4,-2.3 M-90.7,-0.0 L-103.2,-0.7 M-90.7,1.3 L-103.2,0.8 M-88.8,2.7 L-101.2,2.4 M-87.8,4.0 L-100.0,4.0 M-88.3,5.4 L-100.4,5.5 M-86.5,6.1 L-98.4,6.4"/><path fill="none" stroke-width="1.05" opacity="0.66" style="--d:11.7;stroke-dasharray:var(--d);animation:k57 9s linear infinite" d="M-85.7,6.8 L-97.4,7.2 M-84.5,7.6 L-96.0,8.1 M-80.9,8.1 L-92.2,8.8 M-80.7,8.9 L-91.8,9.7 M-79.1,9.6 L-89.9,10.6 M-76.3,10.2 L-86.9,11.3 M-75.1,10.9 L-85.5,12.1 M-74.0,11.4 L-84.1,12.7 M-71.8,11.6 L-81.7,13.0 M-69.8,11.9 L-79.5,13.3 M-66.4,11.9 L-75.8,13.4 M-64.7,12.2 L-73.9,13.7 M-63.7,12.5 L-72.6,14.2 M-61.4,12.7 L-70.0,14.4 M-59.5,12.9 L-67.8,14.7 M-56.7,13.0 L-64.8,14.8 M-54.5,13.2 L-62.4,15.2"/><path fill="none" stroke-width="1.05" opacity="0.66" style="--d:7.8;stroke-dasharray:var(--d);animation:k58 9s linear infinite" d="M-53.5,13.8 L-61.1,15.8 M-51.2,13.9 L-58.5,16.0 M-49.9,14.4 L-57.0,16.6 M-48.2,14.8 L-55.1,17.0 M-46.3,15.1 L-52.9,17.4 M-44.0,15.2 L-50.3,17.6 M-42.8,15.7 L-48.9,18.2 M-40.3,15.5 L-46.1,18.1 M-39.5,16.1 L-45.1,18.7 M-37.3,16.0 L-42.6,18.7 M-35.1,15.8 L-40.1,18.6 M-33.7,16.1 L-38.5,18.9 M-32.2,16.4 L-36.7,19.2 M-30.4,16.4 L-34.7,19.3 M-28.9,16.6 L-32.9,19.5"/><path fill="none" stroke-width="0.45" opacity="0.56" style="--d:9.6;stroke-dasharray:var(--d);animation:k58 9s linear infinite" d="M27.8,54.3 L29.7,57.2 L31.6,60.1 M28.0,41.2 L30.1,43.2 L32.1,45.2 M30.0,35.8 L33.9,38.7 L37.8,41.4 M25.8,35.4 L28.0,37.2 L30.1,39.1 M37.8,29.4 L40.1,30.2 L42.4,31.0 M26.1,43.3 L28.8,46.6 L31.5,49.8 M35.5,34.8 L37.6,36.0 L39.8,37.3 M30.4,30.4 L33.9,32.2 L37.4,34.0 M27.4,55.1 L28.6,57.2 L29.9,59.2 M25.5,48.0 L27.1,50.2 L28.6,52.4 M14.4,35.1 L16.0,38.0 L17.7,41.0 M13.8,23.8 L16.3,25.7 L18.7,27.5"/><path fill="none" stroke-width="0.45" opacity="0.56" style="--d:9.4;stroke-dasharray:var(--d);animation:k59 9s linear infinite" d="M29.6,31.5 L32.3,33.1 L35.1,34.6 M25.1,26.4 L29.1,28.2 L33.0,29.9 M9.0,21.8 L10.6,23.6 L12.2,25.3 M17.0,35.3 L19.5,38.8 L22.0,42.3 M23.1,24.7 L23.4,24.8 L25.1,25.5 M15.6,35.5 L17.6,38.9 L19.6,42.2 M13.0,31.2 L14.5,33.7 L16.0,36.2 M28.3,47.6 L29.9,49.4 L31.4,51.3 M7.7,21.1 L10.2,24.4 L12.8,27.6 M25.7,25.5 L27.7,26.4 L29.7,27.2 M11.4,28.8 L12.5,30.7 L13.5,32.5 M12.4,31.3 L13.9,34.0 L15.5,36.8 M17.8,23.3 L19.8,24.2 L21.9,25.2 M14.6,34.4 L16.2,37.1 L17.8,39.8 M-36.8,40.8 L-40.7,43.5 L-44.5,46.2 M-32.4,66.3 L-34.1,69.2 L-34.1,69.3 M-32.6,64.3 L-33.8,66.3 L-35.0,68.2 M-35.6,27.0 L-37.8,27.6 L-40.1,28.3 M-7.3,22.2 L-8.3,24.2 L-9.3,26.1 M-9.8,24.0 L-11.3,25.9 L-12.8,27.8 M-7.9,22.9 L-9.6,25.8 L-11.4,28.7 M-17.3,38.5 L-18.7,40.8 L-20.1,43.1 M-17.5,41.4 L-18.3,42.9 L-19.1,44.5 M-13.6,34.2 L-15.5,37.7 L-17.3,41.2 M-10.7,21.7 L-13.5,23.9 L-16.4,26.0 M-32.8,25.5 L-35.6,26.3 M-9.2,25.7 L-11.1,29.1 L-13.0,32.5 M-13.8,33.2 L-15.2,35.7 L-16.7,38.1 M-9.8,26.8 L-10.9,28.9 L-12.1,31.1 M-10.8,28.0 L-11.8,29.7 L-12.8,31.4"/><path fill="none" stroke-width="0.45" opacity="0.56" style="--d:11.1;stroke-dasharray:var(--d);animation:k60 9s linear infinite" d="M-18.4,41.3 L-20.0,44.1 L-21.6,46.8 M-17.7,39.1 L-18.7,40.8 L-19.8,42.5 M-24.5,50.3 L-25.8,52.5 L-27.2,54.7 M-9.4,26.1 L-11.2,29.3 L-13.0,32.5 M-13.1,31.8 L-14.2,33.7 L-15.4,35.7 M-14.0,23.0 L-15.6,24.1 L-17.3,25.1 M-21.7,49.0 L-23.7,52.6 L-25.8,56.3 M-9.6,25.8 L-10.5,27.4 L-11.4,29.0 M-12.4,31.9 L-14.2,35.2 L-16.0,38.6 M-17.1,38.2 L-19.4,41.9 L-21.6,45.6 M-8.2,22.0 L-9.9,24.3 L-11.6,26.6 M-28.2,28.9 L-31.7,30.6 L-35.3,32.4 M-37.6,28.5 L-39.7,29.2 L-41.8,29.9 M-22.6,42.3 L-23.9,44.0 L-25.2,45.8 M-27.6,58.2 L-29.1,60.8 L-30.6,63.3 M-28.1,34.0 L-30.2,35.4 L-32.3,36.9 M-10.3,26.7 L-11.9,29.6 L-13.6,32.4 M53.8,7.6 L57.9,8.3 L61.9,8.8 M45.5,9.7 L48.6,10.5 L51.7,11.2 M43.9,8.4 L48.0,9.4 L52.1,10.3 M46.8,10.7 L50.4,11.6 L54.1,12.5 M57.6,7.0 L61.7,7.5 L65.7,8.0 M61.7,6.3 L67.1,6.8 L72.4,7.3 M56.8,5.8 L60.5,6.2 L64.2,6.6 M60.5,1.2 L64.9,1.3 L69.3,1.3 M68.2,1.0 L73.8,1.0 L79.3,1.0"/><path fill="none" stroke-width="0.45" opacity="0.56" style="--d:11.4;stroke-dasharray:var(--d);animation:k61 9s linear infinite" d="M67.9,3.9 L71.2,4.0 L74.5,4.1 M39.4,9.6 L44.8,11.2 L50.3,12.7 M42.3,9.2 L46.4,10.3 L50.6,11.3 M53.3,5.1 L59.0,5.7 L64.7,6.2 M89.6,-21.5 L93.2,-22.5 L96.8,-23.6 M81.7,-23.5 L85.9,-24.9 L90.1,-26.3 M86.4,-2.0 L91.8,-2.4 L97.2,-2.8 M87.0,-11.9 L91.4,-12.7 L95.8,-13.5 M93.0,-8.7 L97.7,-9.3 L102.3,-10.0 M74.3,0.4 L77.2,0.4 L80.2,0.3 M103.9,-29.4 L107.2,-30.5 L110.5,-31.7 M92.9,-7.0 L95.8,-7.4 L98.8,-7.8 M95.5,-18.3 L100.2,-19.4 L104.9,-20.6 M95.7,-16.9 L100.8,-18.1 L105.8,-19.3 M86.9,-3.0 L91.0,-3.4 L95.0,-3.7 M80.6,-16.7 L84.5,-17.6 L88.3,-18.6 M80.3,-12.5 L83.2,-13.1 L86.2,-13.7 M14.5,2.7 L17.1,3.9 L19.7,5.1 M31.1,2.3 L34.0,2.8 L36.9,3.2 M12.1,0.0 L15.6,1.0 L19.2,2.1"/><path fill="none" stroke-width="0.45" opacity="0.56" style="--d:8.0;stroke-dasharray:var(--d);animation:k62 9s linear infinite" d="M23.1,0.8 L27.1,1.3 L31.0,1.9 M8.0,-0.0 L10.8,1.7 L13.6,3.5 M23.7,-3.1 L26.4,-3.2 L29.1,-3.4 M17.9,-2.4 L21.1,-2.5 L24.3,-2.6 M56.6,-15.5 L59.9,-16.5 L63.2,-17.5 M16.1,3.2 L19.5,4.7 L22.9,6.1 M19.0,4.8 L21.3,5.9 L23.7,7.0 M38.4,-3.8 L40.9,-4.0 L43.3,-4.1 M8.3,-0.5 L10.2,0.4 L12.1,1.3 M9.2,-0.0 L11.7,1.2 L14.2,2.3 M12.9,-2.0 L15.8,-1.9 L18.7,-1.8 M12.5,2.1 L15.2,3.6 L17.9,5.0 M25.3,-9.3 L27.3,-10.0 L29.3,-10.7 M17.4,-2.0 L21.2,-1.9 L25.0,-1.9 M18.1,-4.3 L20.3,-4.6 L22.4,-5.0 M36.1,3.8 L38.4,4.1 L40.8,4.5 M23.8,-8.6 L26.2,-9.4 L28.6,-10.2 M15.7,-5.5 L17.9,-6.2 L20.2,-6.9 M10.1,-0.7 L12.0,-0.1 L13.8,0.4 M16.8,-6.3 L20.6,-7.5 L24.4,-8.8 M39.8,-12.4 L41.5,-13.0 L43.3,-13.5 M11.0,1.0 L13.8,2.3 L16.5,3.6 M54.4,-14.9 L56.7,-15.5 L59.0,-16.2 M11.5,-5.9 L14.8,-7.5 L18.1,-9.2 M32.8,-11.3 L35.1,-12.0 L37.3,-12.8 M17.2,3.2 L19.9,4.4 L22.7,5.5 M36.1,-10.7 L38.0,-11.3 L39.9,-11.8 M19.9,1.7 L22.8,2.4 L25.6,3.1 M13.6,-1.4 L15.4,-1.3 L17.2,-1.1 M24.5,0.8 L26.7,1.1 L28.9,1.4 M16.5,5.7 L19.6,7.7 L22.7,9.6"/><path fill="none" stroke-width="0.45" opacity="0.56" style="--d:11.2;stroke-dasharray:var(--d);animation:k63 9s linear infinite" d="M5.5,-1.5 L7.6,0.1 L9.8,1.7 M35.9,-10.0 L38.0,-10.6 L40.0,-11.2 M31.3,-7.6 L34.1,-8.2 L37.0,-8.8 M36.0,5.8 L38.0,6.2 L40.1,6.7 M16.3,-2.2 L19.7,-2.2 L23.0,-2.3 M32.0,4.9 L35.6,5.8 L39.3,6.6 M31.9,-11.3 L35.2,-12.5 L38.5,-13.7 M46.0,-3.5 L49.8,-3.7 L53.6,-4.0 M15.2,-2.6 L18.3,-2.7 L21.3,-2.8 M35.0,6.5 L37.1,7.1 L39.1,7.6 M21.6,-8.6 L24.3,-9.6 L26.9,-10.6 M19.7,-0.9 L23.9,-0.6 L28.2,-0.3 M-70.0,-1.3 L-75.0,-1.5 L-80.1,-1.8 M-86.3,-12.8 L-91.4,-13.7 L-96.4,-14.7 M-78.6,-2.3 L-82.0,-2.5 L-85.4,-2.7 M-77.0,-17.4 L-80.3,-18.3 L-83.5,-19.1 M-78.2,-27.5 L-83.3,-29.5 L-88.4,-31.6 M-75.0,-25.1 L-79.4,-26.7 L-83.9,-28.4 M-70.5,-4.2 L-75.1,-4.6 L-79.6,-5.0 M-73.4,-5.4 L-79.0,-5.9 L-84.6,-6.6 M-86.3,-27.2 L-90.4,-28.7 L-94.5,-30.2 M-76.0,-1.2 L-79.7,-1.3 L-83.4,-1.5 M-77.9,-24.2 L-82.9,-25.9 L-87.9,-27.7"/><path fill="none" stroke-width="0.45" opacity="0.56" style="--d:11.5;stroke-dasharray:var(--d);animation:k64 9s linear infinite" d="M-86.0,-29.9 L-91.0,-31.8 L-96.0,-33.9 M-77.8,-24.9 L-82.0,-26.4 L-86.2,-28.0 M-80.6,-11.6 L-84.5,-12.3 L-88.4,-13.0 M-70.8,-11.8 L-76.5,-12.9 L-82.1,-14.0 M-83.4,-13.9 L-86.9,-14.6 L-90.4,-15.4 M-82.0,-14.3 L-86.0,-15.2 L-90.1,-16.1 M-85.9,-17.6 L-90.5,-18.7 L-95.0,-19.9 M-77.4,-9.7 L-82.2,-10.4 L-87.0,-11.2 M-77.9,-11.7 L-81.7,-12.4 L-85.4,-13.1 M-84.2,-8.7 L-88.1,-9.2 L-92.1,-9.8 M-71.1,-5.8 L-74.5,-6.1 L-77.9,-6.5 M-82.0,-11.0 L-87.1,-11.9 L-92.3,-12.8 M-80.8,-25.1 L-85.9,-26.9 L-91.0,-28.7 M-74.9,-3.5 L-79.0,-3.8 L-83.0,-4.1 M-87.1,-29.3 L-90.6,-30.7 L-94.1,-32.0 M-73.4,-9.0 L-77.1,-9.5 L-80.7,-10.1 M-13.2,5.0 L-15.6,6.9 L-17.9,8.8 M-36.6,5.5 L-39.8,6.2 L-42.9,6.8 M-25.2,3.0 L-29.1,4.0 L-33.0,4.8 M-27.8,-1.0 L-29.7,-1.0 L-31.7,-0.9 M-18.8,3.8 L-22.7,5.4 L-26.6,6.9"/><path fill="none" stroke-width="0.45" opacity="0.56" style="--d:8.4;stroke-dasharray:var(--d);animation:k65 9s linear infinite" d="M-15.5,-6.4 L-17.5,-7.1 L-19.4,-7.9 M-30.8,5.0 L-33.6,5.7 L-36.4,6.4 M-22.7,-11.2 L-25.4,-12.6 L-28.1,-13.9 M-51.4,-1.4 L-53.2,-1.4 L-55.1,-1.4 M-28.8,-12.1 L-31.1,-13.1 L-33.4,-14.1 M-30.0,-10.7 L-32.1,-11.4 L-34.1,-12.1 M-24.3,-12.2 L-27.0,-13.6 L-29.8,-15.0 M-14.0,-3.0 L-16.1,-3.1 L-18.2,-3.3 M-26.8,0.4 L-28.6,0.6 L-30.4,0.8 M-5.1,-1.9 L-8.4,0.3 L-11.8,2.4 M-22.5,6.5 L-25.2,7.8 L-28.0,9.0 M-30.2,-13.9 L-34.0,-15.6 L-37.7,-17.4 M-11.4,-4.9 L-14.8,-6.2 L-18.2,-7.5 M-31.0,-4.1 L-33.2,-4.3 L-35.4,-4.5 M-27.3,4.6 L-29.9,5.4 L-32.6,6.1 M-57.7,-14.8 L-61.7,-15.9 L-65.8,-17.0 M-41.5,-16.0 L-45.2,-17.4 L-48.9,-18.9 M-34.4,5.1 L-37.8,5.8 L-41.3,6.5 M-36.7,-2.5 L-39.6,-2.6 L-42.5,-2.8 M-25.1,-9.3 L-28.9,-10.6 L-32.7,-11.9 M-24.9,-3.9 L-26.8,-4.1 L-28.7,-4.3 M-34.6,-13.4 L-37.6,-14.6 L-40.7,-15.8 M-18.8,4.6 L-22.4,6.3 L-25.9,7.9 M-31.4,-12.7 L-33.8,-13.6 L-36.1,-14.6 M-40.8,2.5 L-44.6,2.8 L-48.4,3.2 M-36.9,-13.4 L-39.0,-14.1 L-41.0,-14.9 M-18.7,3.4 L-21.9,4.6 L-25.0,5.8 M-15.8,-4.2 L-18.5,-4.7 L-21.1,-5.1"/><path fill="none" stroke-width="0.45" opacity="0.56" style="--d:8.6;stroke-dasharray:var(--d);animation:k66 9s linear infinite" d="M-12.2,-2.9 L-15.3,-3.2 L-18.4,-3.5 M-42.8,-0.8 L-46.8,-0.8 L-50.9,-0.8 M-48.3,-18.7 L-51.1,-19.8 L-53.9,-20.9 M-46.4,-10.4 L-49.9,-11.2 L-53.4,-12.0 M-39.7,-6.3 L-43.8,-6.8 L-48.0,-7.4 M-10.0,-4.9 L-12.7,-6.2 L-15.4,-7.5 M-13.7,-6.0 L-16.3,-7.0 L-18.9,-8.1 M-19.2,3.9 L-22.5,5.2 L-25.8,6.5 M-14.7,0.4 L-16.5,0.8 L-18.3,1.2 M-14.3,5.2 L-16.8,7.0 L-19.2,8.7 M-11.9,-4.6 L-16.0,-5.9 L-20.1,-7.3 M-33.6,4.5 L-36.5,5.1 L-39.5,5.7 M-35.0,3.7 L-38.7,4.4 L-42.3,4.9 M-20.9,-3.2 L-22.7,-3.3 L-24.6,-3.4"/><path fill="none" stroke-width="0.6" opacity="0.62" style="--d:3.1;stroke-dasharray:var(--d);animation:k66 9s linear infinite" d="M26.0,52.6 L25.7,52.1 L25.4,51.5 M42.6,56.8 L43.1,57.8 L43.7,58.7 M22.7,49.2 L22.7,49.6 L22.8,49.9 M53.2,90.1 L53.3,91.5 L53.4,93.0 M21.4,50.4 L22.4,51.6 L23.5,52.8 M42.6,50.8 L43.3,51.5 L44.0,52.2 M14.2,42.6 L14.8,43.6 L15.4,44.5 M23.5,39.9 L23.5,40.7 L23.6,41.5 M13.5,32.1 L14.1,33.3 L14.8,34.6 M29.6,58.5 L29.8,59.0 L29.9,59.5 M23.9,49.2 L23.8,49.1 L23.8,49.0 M-17.3,38.4 L-17.3,38.5 L-17.3,38.5 M-28.1,41.8 L-28.5,42.4 L-28.8,43.0 M-37.3,38.2 L-38.0,38.4 L-38.6,38.5 M-22.4,48.4 L-22.8,49.2 L-23.2,50.0 M-19.2,35.5 L-19.8,35.7 L-20.4,35.7 M-11.9,40.7 L-12.5,41.6 L-13.1,42.6 M-18.8,29.2 L-19.6,28.5 L-20.6,27.9 M-28.2,56.2 L-28.9,57.3 L-29.6,58.5 M-15.8,39.5 L-16.5,40.5 L-17.2,41.6 M-41.8,52.0 L-42.3,51.0 L-42.9,50.0 M-34.8,54.3 L-35.1,54.0 L-35.5,53.8 M-80.1,34.5 L-80.7,34.8 L-81.3,35.1 M-14.7,35.4 L-15.0,36.1 L-15.3,36.8 M-45.1,40.4 L-45.7,40.3 L-46.4,40.1 M-42.9,41.4 L-43.8,41.4 L-44.7,41.3 M28.3,0.8 L29.1,0.4 L29.9,-0.1 M41.2,10.2 L41.4,10.5 L41.5,10.8 M79.4,0.1 L80.2,-0.2 L81.0,-0.4 M46.4,-22.5 L47.0,-22.9 L47.6,-23.3 M19.1,-10.1 L19.7,-10.5 L20.3,-10.9 M50.4,11.1 L51.3,11.4 L52.1,11.7 M61.0,14.3 L62.1,14.2 L63.1,14.1 M22.4,7.1 L21.2,7.2 L20.0,7.4 M105.6,-34.7 L106.6,-35.1 L107.6,-35.5 M63.2,-4.3 L64.3,-4.9 L65.4,-5.6 M78.3,-8.2 L78.3,-7.5 L78.3,-6.8 M-36.5,-5.4 L-37.1,-6.0 L-37.6,-6.7 M-81.7,-1.3 L-81.8,-0.6 L-81.9,0.1 M-94.4,-38.3 L-95.6,-38.7 L-96.8,-39.0 M-90.8,-22.8 L-91.2,-23.8 L-91.6,-24.8 M-44.9,3.6 L-46.0,3.8 L-47.0,4.0 M-58.3,-29.1 L-58.0,-29.1 L-57.8,-29.1 M-28.0,-13.6 L-29.2,-14.2 L-30.5,-14.8 M-65.7,-28.3 L-66.2,-28.6 L-66.8,-28.9 M-101.1,-40.8 L-102.0,-41.1 L-102.9,-41.4 M-46.5,-19.5 L-45.9,-19.4 L-45.3,-19.3 M-102.0,-4.0 L-102.4,-3.8 L-102.9,-3.5"/><path fill="none" stroke-width="0.42" opacity="0.55" style="--d:0.3;stroke-dasharray:var(--d);animation:k66 9s linear infinite" d="M89.5,15.8 L89.6,15.6"/><path fill="none" stroke-width="0.42" opacity="0.55" style="--d:6.5;stroke-dasharray:var(--d);animation:k67 9s linear infinite" d="M96.4,19.5 L98.6,15.6 M103.0,23.5 L106.6,18.8 M108.6,28.7 L114.5,26.1 M107.8,34.2 L112.4,35.3 M106.0,39.0 L111.7,41.9 M103.4,42.9 L108.0,46.7 M100.2,46.1 L103.7,50.6 M96.3,48.6 L98.7,52.7 M92.1,50.8 L94.9,56.6 M87.7,52.7 L89.5,57.9 M82.9,54.2 L84.4,58.6 M78.1,56.4 L81.1,61.2 M74.0,59.7 L77.1,62.8 M70.9,63.2 L75.3,67.3 M68.0,66.1 L71.6,69.8 M65.1,69.3 L69.2,71.9 M63.8,73.4 L69.4,73.9 M63.6,77.8 L69.7,77.9 M63.6,82.6 L68.1,82.5 M63.9,87.8 L70.2,87.2 M64.5,93.0 L70.7,92.5 M64.7,98.1 L69.3,98.0 M64.7,103.2 L70.2,102.7 M65.6,108.0 L71.1,106.7 M66.8,112.3 L71.4,111.6 M66.5,115.9 L71.7,117.5 M64.8,118.7 L68.9,122.8 M61.9,120.7 L64.7,126.3 M58.3,121.9 L59.0,127.4 M56.6,121.1 L50.5,122.0 M57.4,115.6 L51.6,115.2"/><path fill="none" stroke-width="0.42" opacity="0.55" style="--d:6.6;stroke-dasharray:var(--d);animation:k68 9s linear infinite" d="M57.5,110.1 L51.6,110.2 M57.2,104.7 L52.7,105.0 M56.6,99.4 L50.7,100.6 M55.0,94.3 L49.2,97.3 M52.1,90.2 L47.1,94.1 M49.2,86.7 L45.3,89.6 M47.2,83.4 L41.7,86.4 M45.5,79.9 L40.5,82.8 M43.5,76.9 L38.5,80.4 M41.6,74.4 L37.4,77.5 M40.0,72.2 L36.6,75.0 M38.2,70.3 L34.5,75.3 M34.9,68.1 L31.9,72.2 M31.9,65.8 L28.6,69.6 M28.8,63.2 L26.2,66.9 M25.4,61.0 L22.3,66.2 M22.0,58.9 L19.0,63.0 M19.1,56.4 L14.7,60.4 M16.8,53.3 L13.0,55.9 M14.6,49.8 L9.7,52.9 M12.5,46.3 L6.7,49.5 M10.7,42.6 L5.2,45.1 M9.0,38.8 L4.6,40.6 M7.4,34.8 L2.0,36.7 M-89.5,15.8 L-89.6,15.6 M-96.4,19.5 L-99.0,14.9 M-103.0,23.5 L-106.0,19.6 M-108.6,28.7 L-114.4,26.2 M-107.8,34.2 L-113.6,35.6 M-106.0,39.0 L-110.7,41.4 M-103.4,42.9 L-107.3,46.1 M-100.2,46.1 L-103.3,50.1"/><path fill="none" stroke-width="0.42" opacity="0.55" style="--d:6.5;stroke-dasharray:var(--d);animation:k69 9s linear infinite" d="M-96.3,48.6 L-98.8,52.8 M-92.1,50.8 L-94.5,55.8 M-87.7,52.7 L-89.7,58.2 M-82.9,54.2 L-84.6,59.3 M-78.1,56.4 L-80.5,60.2 M-74.0,59.7 L-78.2,63.8 M-70.9,63.2 L-74.9,66.9 M-68.0,66.1 L-72.1,70.3 M-65.1,69.3 L-69.4,72.0 M-63.8,73.4 L-69.8,74.0 M-63.6,77.8 L-69.3,77.9 M-63.6,82.6 L-69.5,82.5 M-63.9,87.8 L-69.3,87.3 M-64.5,93.0 L-69.2,92.6 M-64.7,98.1 L-71.1,98.0 M-64.7,103.2 L-70.0,102.8 M-65.6,108.0 L-70.5,106.8 M-66.8,112.3 L-72.1,111.5 M-66.5,115.9 L-72.7,117.8 M-64.8,118.7 L-69.2,123.1 M-61.9,120.7 L-64.3,125.5 M-58.3,121.9 L-59.1,128.0 M-56.6,121.1 L-50.3,122.0 M-57.4,115.6 L-51.1,115.1 M-57.5,110.1 L-51.9,110.2 M-57.2,104.7 L-51.3,105.1 M-56.6,99.4 L-51.6,100.4 M-55.0,94.3 L-50.0,96.9 M-52.1,90.2 L-48.2,93.2 M-49.2,86.7 L-45.3,89.6 M-47.2,83.4 L-42.0,86.2"/><path fill="none" stroke-width="0.42" opacity="0.55" style="--d:6.4;stroke-dasharray:var(--d);animation:k70 9s linear infinite" d="M-45.5,79.9 L-41.5,82.2 M-43.5,76.9 L-39.3,79.9 M-41.6,74.4 L-37.3,77.6 M-40.0,72.2 L-35.9,75.5 M-38.2,70.3 L-34.5,75.2 M-34.9,68.1 L-31.2,73.3 M-31.9,65.8 L-28.3,70.0 M-28.8,63.2 L-25.8,67.3 M-25.4,61.0 L-22.2,66.5 M-22.0,58.9 L-19.2,62.7 M-19.1,56.4 L-15.8,59.4 M-16.8,53.3 L-12.1,56.5 M-14.6,49.8 L-9.6,53.0 M-12.5,46.3 L-8.3,48.6 M-10.7,42.6 L-5.2,45.1 M-9.0,38.8 L-4.3,40.7 M-7.4,34.8 L-2.0,36.7 M136.5,-44.4 L142.0,-43.5 M134.5,-37.5 L140.0,-35.8 M132.5,-30.2 L138.0,-28.9 M130.7,-23.1 L134.5,-21.6 M127.2,-16.7 L130.9,-14.5 M123.4,-10.4 L126.9,-8.4 M120.1,-4.2 L123.5,-2.2 M116.5,1.8 L121.3,5.0 M112.2,7.3 L115.5,11.2 M106.0,10.6 L107.9,15.6 M98.6,12.6 L99.9,17.8 M90.3,14.1 L91.2,19.6 M82.4,15.5 L83.2,19.8 M74.5,16.9 L75.6,22.1 M66.7,19.0 L68.2,24.3"/><path fill="none" stroke-width="0.42" opacity="0.55" style="--d:6.1;stroke-dasharray:var(--d);animation:k71 9s linear infinite" d="M59.1,21.2 L60.6,26.3 M51.6,23.4 L52.8,28.5 M44.3,24.4 L44.4,28.8 M36.9,24.1 L36.9,28.0 M30.0,24.1 L29.7,29.6 M23.6,23.4 L22.4,29.3 M17.8,21.9 L16.7,26.0 M12.5,20.4 L10.8,26.3 M-136.5,-44.4 L-142.1,-43.4 M-134.5,-37.5 L-138.4,-36.3 M-132.5,-30.2 L-138.1,-28.9 M-130.7,-23.1 L-135.1,-21.3 M-127.2,-16.7 L-131.6,-14.0 M-123.4,-10.4 L-127.3,-8.2 M-120.1,-4.2 L-123.6,-2.1 M-116.5,1.8 L-121.3,5.0 M-112.2,7.3 L-116.1,11.8 M-106.0,10.6 L-107.8,15.4 M-98.6,12.6 L-100.0,18.2 M-90.3,14.1 L-91.1,19.3 M-82.4,15.5 L-83.3,20.7 M-74.5,16.9 L-75.6,22.0 M-66.7,19.0 L-68.3,24.6 M-59.1,21.2 L-60.6,26.3 M-51.6,23.4 L-52.9,29.1 M-44.3,24.4 L-44.4,30.0 M-36.9,24.1 L-36.8,29.4 M-30.0,24.1 L-29.8,29.1 M-23.6,23.4 L-22.5,29.0 M-17.8,21.9 L-16.5,26.7 M-12.5,20.4 L-11.2,24.7"/><path fill="none" stroke-width="0.75" opacity="0.88" style="--d:9.2;stroke-dasharray:var(--d);animation:k71 9s linear infinite" d="M-3.6,21.5 L-7.8,20.3 L-12.5,19.1"/><path fill="none" stroke-width="0.75" opacity="0.88" style="--d:18.5;stroke-dasharray:var(--d);animation:k72 9s linear infinite" d="M4.9,0.1 L14.5,0.7 L23.4,1.4 M4.6,28.5 L10.1,28.3 L14.7,28.1 M3.3,-11.9 L7.4,-13.3 L10.8,-14.8 M-4.6,-7.1 L-10.8,-8.1 L-18.0,-9.2 M-2.4,9.2 L-8.4,12.4 L-12.9,15.6 M4.9,0.0 L10.3,0.5 L16.7,0.9 M-4.6,31.1 L-9.4,31.2 L-13.3,31.3 M-3.2,-29.7 L-12.6,-26.9 L-20.6,-24.2 M3.6,6.5 L11.3,9.0 L18.3,11.5 M2.3,9.2 L4.3,11.3 L7.3,13.4 M-4.7,1.7 L-11.4,2.5 L-17.4,3.2 M-1.7,17.0 L-4.6,14.2 L-7.9,11.4 M3.6,-33.1 L9.6,-33.5 L16.2,-33.9 M4.4,-8.4 L7.2,-9.2 L11.3,-10.0 M-4.6,28.1 L-10.5,27.9 L-14.8,27.6"/><path fill="none" stroke-width="0.75" opacity="0.88" style="--d:18.7;stroke-dasharray:var(--d);animation:k73 9s linear infinite" d="M4.9,-4.6 L12.8,-5.1 L20.3,-5.6 M0.6,16.1 L2.4,10.5 L4.6,4.9 M1.9,-14.4 L6.0,-17.1 L8.9,-19.9 M-0.3,-26.7 L-2.2,-18.9 L-3.3,-11.1 M-0.4,-15.3 L-2.6,-24.4 L-4.8,-33.4 M1.2,10.3 L2.4,14.2 L5.2,18.0 M4.8,0.6 L11.8,1.1 L17.5,1.6 M0.9,-38.1 L4.2,-44.0 L6.4,-50.0 M-2.9,-28.8 L-5.5,-26.8 L-9.8,-24.7 M3.4,7.3 L11.4,10.0 L17.8,12.7 M3.2,-12.2 L12.0,-15.5 L19.3,-18.8 M4.6,28.5 L10.8,28.3 L16.1,28.1 M-4.0,37.5 L-6.2,38.1 L-9.8,38.8"/><path fill="none" stroke-width="0.75" opacity="0.88" style="--d:19.5;stroke-dasharray:var(--d);animation:k74 9s linear infinite" d="M-2.7,8.6 L-10.8,13.3 L-18.8,18.0 M4.7,-6.7 L10.7,-7.5 L16.0,-8.2 M3.1,7.9 L10.4,11.4 L17.9,14.9 M2.3,-37.0 L7.2,-41.1 L12.3,-45.1 M3.6,-32.0 L12.5,-31.6 L22.0,-31.1 M1.9,-27.5 L5.9,-21.9 L11.4,-16.4 M-1.8,17.1 L-6.1,13.9 L-10.2,10.7 M-0.1,10.7 L0.4,16.3 L0.1,21.9 M-3.9,5.6 L-11.0,7.6 L-17.7,9.5 M0.7,-26.7 L3.2,-20.0 L5.2,-13.2 M-2.8,-36.1 L-6.5,-38.3 L-10.9,-40.5 M3.7,-11.1 L13.5,-14.1 L22.2,-17.1"/><path fill="none" stroke-width="0.75" opacity="0.88" style="--d:18.9;stroke-dasharray:var(--d);animation:k75 9s linear infinite" d="M-1.3,-37.9 L-6.4,-44.7 L-10.2,-51.4 M4.5,3.3 L11.3,4.6 L18.8,6.0 M-4.3,25.0 L-8.7,24.5 L-12.6,24.0 M4.6,-7.3 L8.1,-8.1 L12.9,-8.8 M-1.7,-27.3 L-5.9,-23.4 L-9.2,-19.5 M4.9,-2.2 L14.2,-2.2 L22.5,-2.2 M-3.9,5.7 L-13.1,8.3 L-22.1,11.0 M0.8,-26.8 L4.3,-20.3 L6.5,-13.8 M4.6,28.9 L8.9,28.7 L13.9,28.5 M-4.4,3.9 L-12.1,5.2 L-18.2,6.5 M4.8,-5.8 L12.4,-6.6 L19.6,-7.4 M-3.6,-32.7 L-13.6,-32.9 L-22.0,-33.1 M1.0,-15.1 L3.4,-20.2 L6.2,-25.3"/><path fill="none" stroke-width="0.75" opacity="0.88" style="--d:18.9;stroke-dasharray:var(--d);animation:k76 9s linear infinite" d="M-3.7,-11.0 L-6.7,-12.5 L-11.0,-13.9 M-1.0,10.5 L-3.0,14.0 L-4.9,17.6 M0.8,-26.8 L2.2,-23.1 L3.4,-19.4 M-3.2,7.6 L-10.5,10.2 L-16.3,12.9 M0.9,10.5 L3.4,16.1 L6.2,21.6 M-3.4,7.3 L-12.0,10.9 L-20.8,14.5 M-4.2,-9.4 L-10.9,-10.8 L-16.4,-12.1 M-0.7,-15.2 L-2.8,-24.0 L-5.9,-32.7 M-4.2,24.6 L-8.5,24.0 L-12.7,23.4 M2.5,8.9 L6.3,11.2 L9.9,13.5 M0.7,10.6 L4.2,17.1 L6.4,23.7 M2.8,18.8 L6.6,17.1 L10.6,15.4 M-3.0,8.0 L-10.7,11.5 L-17.9,15.0 M-0.8,16.2 L-1.9,11.6 L-4.4,7.0 M4.4,25.7 L9.1,25.3 L12.7,24.9"/><path fill="none" stroke-width="0.75" opacity="0.88" style="--d:18.4;stroke-dasharray:var(--d);animation:k77 9s linear infinite" d="M3.6,-32.4 L13.0,-32.4 L21.7,-32.4 M-1.6,-27.2 L-4.6,-23.0 L-7.8,-18.7 M-1.2,10.3 L-4.1,13.9 L-6.4,17.6 M-2.3,-36.9 L-6.0,-40.0 L-10.1,-43.0 M2.4,-28.1 L10.6,-23.5 L17.1,-18.9 M1.0,-26.9 L2.5,-22.1 L4.7,-17.3 M3.0,8.1 L10.9,12.3 L19.2,16.5 M-4.1,5.1 L-11.1,6.6 L-16.5,8.1 M0.7,16.2 L3.3,11.6 L5.2,7.0 M-3.0,8.1 L-10.5,12.4 L-19.2,16.8 M-4.0,37.6 L-7.6,38.5 L-12.6,39.4 M-4.6,-6.8 L-9.9,-7.4 L-14.1,-8.0"/><path fill="none" stroke-width="0.75" opacity="0.88" style="--d:42.7;stroke-dasharray:var(--d);animation:k78 9s linear infinite" d="M2.3,-16.6 L14.3,-31.6 L20.0,-48.5 L16.9,-53.3 M-2.3,-16.6 L-14.3,-31.6 L-20.0,-48.5 L-16.9,-53.3 M5.3,-20.4 L7.5,-18.3 M-5.3,-20.4 L-7.5,-18.3 M8.3,-24.1 L10.7,-21.8 M-8.3,-24.1 L-10.7,-21.8 M11.3,-27.9 L13.0,-26.3 M-11.3,-27.9 L-13.0,-26.3 M2.3,-2.3 L15.5,5.1 L24.7,16.7 L29.4,16.7 M-2.3,-2.3 L-15.5,5.1 L-24.7,16.7 L-29.4,16.7 M5.6,-0.4 L4.3,2.2 M-5.6,-0.4 L-4.3,2.2 M8.9,1.4 L7.3,4.7 M-8.9,1.4 L-7.3,4.7 M12.2,3.3 L11.2,5.4"/><path fill="none" stroke-width="0.75" opacity="0.88" style="--d:36.7;stroke-dasharray:var(--d);animation:k79 9s linear infinite" d="M-12.2,3.3 L-11.2,5.4 M2.3,12.0 L11.7,25.5 L11.2,40.9 L14.9,44.1 M-2.3,12.0 L-11.7,25.5 L-11.2,40.9 L-14.9,44.1 M4.6,15.4 L2.3,17.5 M-4.6,15.4 L-2.3,17.5 M7.0,18.8 L5.3,20.2 M-7.0,18.8 L-5.3,20.2 M9.3,22.2 L7.7,23.6 M-9.3,22.2 L-7.7,23.6"/><path fill="none" stroke="#9ba18e" stroke-width="0.5" opacity="0.62" style="--d:15.9;stroke-dasharray:var(--d);animation:k79 9s linear infinite" d="M-6.0,9.2 L0.0,10.9 L6.0,9.2 M-7.4,17.4 L0.0,19.1 L7.4,17.4 M-7.8,25.6 L0.0,27.3 L7.8,25.6 M-7.1,33.8 L0.0,35.6 L7.1,33.8 M-5.3,42.1 L0.0,43.8 L5.3,42.1 M-2.9,50.3 L0.0,52.0 L2.9,50.3 M4.6,-35.5 L6.7,-36.3 M-7.8,-35.5 L-5.7,-36.3"/></g></svg>